<svg xmlns="http://www.w3.org/2000/svg" width="300" height="348" viewBox="0 0 300 348"><g transform="translate(-63 -221.668)"><g transform="translate(-61.969 59.268)"><g transform="translate(124.969 197.258)"><path d="M175.641,302.606c-91.476,42.351-48.1,186,42.825,211.895,79.166,22.519,157.5-10.811,190.858-53.232,34.919-44.486,10.091-129.671-61.585-125.815C286.675,338.76,260.633,263.25,175.641,302.606Z" transform="translate(-124.969 -279.512)" fill="#291d36" fill-rule="evenodd"/><g transform="translate(16.111 0)"><path d="M268.88,413.489a1.5,1.5,0,0,0-.069-.344c-1.6-3.684-1.491-7.782-2.219-11.672-.52-2.755-1.8-5.957-4.369-7.437-2.427-1.377-4.473.62-5.305,2.755-1.006,2.479.069,5.268.485,7.919-1.006-.585-2.011-1.136-3.051-1.653-2.5-1.24-8.5-4.166-9.883-.034-1.734,5.13,4.924,9.228,8.669,10.88,4.369,1.928,11.443,3.994,15.847,1.136A.944.944,0,0,0,268.88,413.489Z" transform="translate(-218.957 -348.839)" fill="#aa4242"/><path d="M399.032,268.377c-.07-1.894-1.318-5.027-3.745-4.717-2.081.276-2.531,3.133-2.774,4.752-.173,1.205-.278,2.445-.347,3.684-.659-.792-1.318-1.549-2.011-2.238-1.214-1.24-4.2-4.442-6.172-2.823-.936.758-.936,2.238-.9,3.34.069,1.825,1.491,3.374,2.809,4.476,2.635,2.2,7,4.2,10.542,3.478a.777.777,0,0,0,1.248-.448C398.338,274.747,399.136,271.579,399.032,268.377Z" transform="translate(-309.682 -263.638)" fill="#aa4242"/><path d="M793.614,420.681c-.763-2.892-4.265-2.479-6.415-1.756a18.006,18.006,0,0,0-4.959,2.582,26.737,26.737,0,0,0-1.8-6.714c-1.213-2.617-4.161-3.581-6.276-1.274-2.289,2.479-1.283,6.818-.416,9.641a23.665,23.665,0,0,0,4.508,8.987,1.79,1.79,0,0,0,1.075.448c3.468-.482,6.935-2.341,9.779-4.235C791.672,426.638,794.515,424.056,793.614,420.681Z" transform="translate(-564.242 -361.058)" fill="#aa4242"/><path d="M5.415.009a5.472,5.472,0,0,1,5.444,5.444,5.379,5.379,0,0,1-5.406,5.406A5.472,5.472,0,0,1,.009,5.415,5.379,5.379,0,0,1,5.415.009Z" transform="translate(0 127.731) rotate(-45)" fill="#aa4242"/><ellipse cx="5.444" cy="5.406" rx="5.444" ry="5.406" transform="translate(22.737 89.751)" fill="#aa4242"/><path d="M5.406,0A5.444,5.444,0,0,1,5.42,10.891,5.444,5.444,0,0,1,5.406,0Z" transform="matrix(0.228, -0.974, 0.974, 0.228, 227.566, 93.767)" fill="#aa4242"/><path d="M5.415.009a5.472,5.472,0,0,1,5.444,5.444,5.379,5.379,0,0,1-5.406,5.406A5.472,5.472,0,0,1,.009,5.415,5.379,5.379,0,0,1,5.415.009Z" transform="translate(246.785 127.722) rotate(-45)" fill="#aa4242"/></g></g><g transform="translate(188.22 162.4)"><path d="M598.79,318.136c-1.664-3.891-4.82-6.542-7.663-9.572a32.1,32.1,0,0,1-5.93-8.918c-1.7-3.753-2.843-7.437-5.9-10.364-2.739-2.651-6.38-4.166-8.981-6.955-2.531-2.755-2.74-6.68-4.057-10.02-1.768-4.51-5.2-8.057-7.7-12.189-2.878-4.786-2.254-9.847-2.393-15.15-.1-5.1-2.393-9.434-3.849-14.22a16.559,16.559,0,0,1-.59-5.716c.347-2.341.763-4.614,1.214-6.852,3.918-19.041-8.392-55.814-43.345-55.78a35.034,35.034,0,0,0-19.939,6.06c-13.385-3.684-29.3,11.294-21.257,28.579,0,0,.9.069,3.017.1-3.468,13.394-4.023,30.713-.278,52.027,3.433,19.729,8.877,38.977,17.165,55.091,5.41,7.265,12.587,13.394,18.968,19.661a64.166,64.166,0,0,1,6.068,6.99c.485.344.936.689,1.422,1.067.589,1.205,1.144,2.376,1.769,3.547a26.416,26.416,0,0,0,8.773,8.815,22.952,22.952,0,0,0,13.7,3.65c4.2-.172,8.461-1.171,12.518.31,3.745,1.343,6.762,4.063,10.784,4.683,3.433.516,6.589-.517,9.571-2.135,3.017-1.653,5.791-3.788,9.016-5.027,3.19-1.205,6.658-1.446,9.883-2.651a14.1,14.1,0,0,0,6.45-4.683c1.8-2.41,2.393-5.578,2.74-8.47C600.419,325.986,600.385,321.854,598.79,318.136Z" transform="translate(-411.148 -162.4)" fill="#5d3c31"/><g transform="translate(25.984 101.127)"><path d="M479.675,456.1c14.252,87.63,42.409,159.214,21.465,166.961-37.693,13.945-117.691,10.433-118.627-4.579-2.7-43.178,21.881-119.031,38.525-124.885C457.725,480.685,479.675,456.1,479.675,456.1Z" transform="translate(-382.307 -456.1)" fill="#334554"/><g transform="translate(7.557 148.953)"><g transform="translate(0 1.007)"><path d="M404.1,892.477v13.945a.868.868,0,0,0,1.734,0V892.477a.867.867,0,0,0-1.734,0Z" transform="translate(-404.1 -891.625)" fill="#65768a"/></g><g transform="translate(7.802 4.622)"><path d="M426.6,902.977a106.907,106.907,0,0,0,.52,12.912c.139,1.1,1.873,1.1,1.734,0a106.932,106.932,0,0,1-.52-12.912.867.867,0,0,0-1.734,0Z" transform="translate(-426.6 -902.125)" fill="#65768a"/></g><g transform="translate(16.124 6.172)"><path d="M450.6,907.477a133.929,133.929,0,0,0,.52,13.946c.1,1.1,1.838,1.1,1.734,0a133.87,133.87,0,0,1-.52-13.946.867.867,0,0,0-1.734,0Z" transform="translate(-450.6 -906.625)" fill="#65768a"/></g><g transform="translate(24.439 8.78)"><path d="M474.585,915.027a114.364,114.364,0,0,1,1.04,12.912.868.868,0,0,0,1.734,0,115.033,115.033,0,0,0-1.04-12.912c-.139-1.1-1.872-1.1-1.734,0Z" transform="translate(-474.577 -914.2)" fill="#65768a"/></g><g transform="translate(32.78 8.747)"><path d="M498.655,915.17c.971,4.511,1.04,9.124,1.526,13.7.1,1.1,1.838,1.1,1.734,0-.52-4.717-.59-9.5-1.6-14.186-.243-1.033-1.907-.586-1.664.482Z" transform="translate(-498.631 -914.104)" fill="#65768a"/></g><g transform="translate(40.593 10.281)"><path d="M521.177,919.641a85.592,85.592,0,0,1,1.006,11.122.868.868,0,0,0,1.733,0,86.94,86.94,0,0,0-1.074-11.6c-.139-1.068-1.838-.586-1.664.482Z" transform="translate(-521.165 -918.56)" fill="#65768a"/></g><g transform="translate(48.893 9.792)"><path d="M545.1,917.985a53.088,53.088,0,0,0,1.6,12.121.863.863,0,0,0,1.665-.448,50.787,50.787,0,0,1-1.526-11.638.867.867,0,0,0-1.734-.035Z" transform="translate(-545.1 -917.137)" fill="#65768a"/></g><g transform="translate(57.736 8.754)"><path d="M570.6,914.977a105.9,105.9,0,0,0,1.04,12.4c.138,1.1,1.872,1.1,1.733,0a106.113,106.113,0,0,1-1.04-12.4.867.867,0,0,0-1.733,0Z" transform="translate(-570.601 -914.125)" fill="#65768a"/></g><g transform="translate(66.054 8.747)"><path d="M594.627,915.17a43.023,43.023,0,0,1,1.526,11.122.868.868,0,0,0,1.734,0,43.969,43.969,0,0,0-1.6-11.6.868.868,0,0,0-1.664.482Z" transform="translate(-594.588 -914.104)" fill="#65768a"/></g><g transform="translate(74.373 7.747)"><path d="M618.586,912.027c.485,4.132.555,8.264,1.04,12.4.139,1.1,1.873,1.1,1.734,0-.485-4.132-.555-8.264-1.04-12.4-.139-1.1-1.873-1.1-1.734,0Z" transform="translate(-618.578 -911.2)" fill="#65768a"/></g><g transform="translate(81.662 6.701)"><path d="M639.6,909c.069,4.166.971,8.229,1.04,12.4a.868.868,0,0,0,1.734,0c-.069-4.166-.971-8.229-1.04-12.4-.035-1.1-1.768-1.136-1.734,0Z" transform="translate(-639.599 -908.163)" fill="#65768a"/></g><g transform="translate(89.469 5.648)"><path d="M662.143,906.17c1.006,4.166,1.04,8.436,1.526,12.671.138,1.1,1.872,1.1,1.733,0-.52-4.373-.555-8.815-1.6-13.153-.243-1.033-1.942-.585-1.664.482Z" transform="translate(-662.112 -905.104)" fill="#65768a"/></g><g transform="translate(98.819 2.066)"><path d="M689.085,895.527c.485,4.476.52,8.952,1.04,13.429.139,1.1,1.872,1.1,1.734,0-.52-4.476-.555-8.952-1.04-13.429-.139-1.1-1.872-1.1-1.734,0Z" transform="translate(-689.077 -894.7)" fill="#65768a"/></g><g transform="translate(108.182)"><path d="M716.085,889.527a133.9,133.9,0,0,1,1.041,13.429.868.868,0,0,0,1.733,0,133.9,133.9,0,0,0-1.04-13.429c-.139-1.1-1.873-1.1-1.734,0Z" transform="translate(-716.077 -888.7)" fill="#65768a"/></g></g></g><path d="M437.225,571.368c10.68-4.752,14.98-11.638,24.308-25.824,5.479-8.367,14.391-15.632,20.91-23.827a3.211,3.211,0,0,1,.347-.413c.139-.207.312-.413.451-.586.347-.447.693-.93,1.04-1.377.693-.93,1.352-1.859,2.011-2.823q1.977-2.841,3.849-5.785c2.5-3.925,4.959-7.919,7.455-11.845.52-.861,1.075-1.687,1.6-2.548-2.531-12.155-4.959-24.826-7.074-37.841,0,0-21.95,24.584-58.637,37.5-10.542,3.719-24.239,35.4-32.18,69.139,8.946,5.819,11.443,5.165,22.574,8.333C425.573,573.951,430.428,574.6,437.225,571.368Z" transform="translate(-368.73 -356.547)" fill="#2b3c47"/><g transform="translate(54.416 12.671)"><g transform="translate(19.459 56.572)"><path d="M561.954,389.324l-26.7,16.355a52.276,52.276,0,0,0-13.836-29.336c-6.276-6.508,22.575-12.843,22.575-12.843C549.47,377.342,557.792,383.2,561.954,389.324Z" transform="translate(-520.486 -363.5)" fill="#feddaf"/><path d="M527.97,386.625a52.245,52.245,0,0,0,4.022-5.027c3.468-4.752,6.831-9.882,8.323-15.6-7.525,1.963-23.892,6.921-19,11.982A48.153,48.153,0,0,1,527.97,386.625Z" transform="translate(-520.416 -365.139)" fill="#b56f57"/></g><g transform="translate(26.25 67.659)"><path d="M574.676,409.921l-29.925,18.834L540,409.025,562.609,395.7Z" transform="translate(-540 -395.7)" fill="#334554"/><g transform="translate(4.323 6.061)"><g transform="translate(0 8.926)"><path d="M552.513,440.284c1.179,3.684,2.323,7.4,3.71,11.018.381,1.033,2.045.585,1.664-.448-1.352-3.615-2.532-7.334-3.71-11.018-.312-1.067-2.011-.62-1.664.448Z" transform="translate(-552.466 -439.226)" fill="#6b748c"/></g><g transform="translate(7.428 3.859)"><path d="M574,425.816c1.838,3.478,3.468,7.093,5.305,10.571.52,1,2.011.1,1.491-.861-1.838-3.478-3.468-7.093-5.305-10.571-.52-1-2.011-.138-1.491.861Z" transform="translate(-573.887 -424.511)" fill="#6b748c"/></g><g transform="translate(14.761)"><path d="M595.2,414.541c2.081,2.961,4.543,5.647,6.484,8.711.59.93,2.081.069,1.491-.861-1.942-3.064-4.369-5.75-6.485-8.711-.624-.9-2.15-.035-1.491.861Z" transform="translate(-595.034 -413.302)" fill="#6b748c"/></g></g></g><path d="M507.23,255.772c-4.2,4.821-8.184,12.223-35.751,14.289-1.387.1-8.357-12.706-7-37.359,1.456-26.168,22.5-33.5,22.5-33.5s1.838,13.428,5.652,20.763c4.681,8.952,11.513,12.12,11.894,21.692A53.54,53.54,0,0,0,507.23,255.772Z" transform="translate(-464.301 -199.2)" fill="#feddaf"/><g transform="translate(0.024 16.731)"><path d="M535.5,325.815a10.949,10.949,0,0,0,10.923,10.949,10.524,10.524,0,0,0,3.329-.517,59.063,59.063,0,0,0,3.988-4.476,53.554,53.554,0,0,1-2.7-14.117c-.035-.62-.069-1.24-.139-1.79a10.744,10.744,0,0,0-4.473-.964A10.876,10.876,0,0,0,535.5,325.815Z" transform="translate(-510.835 -291.793)" fill="#ffa075"/><g transform="translate(14.007 16.702)"><path d="M504.811,297.331c1.734,4.958,7.837,4.511,11.686,2.341a.858.858,0,0,0-.867-1.481c-2.774,1.549-7.8,2.479-9.12-1.308-.382-1.033-2.046-.585-1.7.448Z" transform="translate(-504.764 -296.297)" fill="#472e42"/></g><g transform="translate(7.031 30.331)"><path d="M485.22,345.254c5.756,2.169,10.854-3.1,12.171-8.3a.862.862,0,0,0-1.664-.447c-1.075,4.338-5.167,8.918-10.022,7.093-1.075-.413-1.491,1.24-.485,1.653Z" transform="translate(-484.647 -335.882)" fill="#472e42"/></g><path d="M521.771,252.512a21.565,21.565,0,0,1-5.444-2.238c-1.6-.861-3.051-2.066-4.855-2.41-3.468-.689-3.745,3.753-2.393,5.853,1.665,2.617,5.34,3.512,8.218,3.994a24.663,24.663,0,0,0,8.114.207A39.824,39.824,0,0,1,521.771,252.512Z" transform="translate(-493.083 -247.792)" fill="#5d3c31"/><path d="M471.281,298.376c-.867-2.307-2.566-4.373-3.78-6.473a39.768,39.768,0,0,1-2.635-5.3q-.208,1.7-.312,3.512a102.69,102.69,0,0,0,.277,15.942,6.083,6.083,0,0,0,1.179-.516,21.725,21.725,0,0,0,4.612-3.512A3.237,3.237,0,0,0,471.281,298.376Z" transform="translate(-464.371 -273.238)" fill="#ffa075"/></g></g><g transform="translate(2.956 93.793)"><g transform="translate(36.021 0.034)"><path d="M489.36,445.918c0,1.722-23.719,10.949-32.075-2.548-1.977-3.168,2.462-1.343,6.311-8.47,0,0,4.681,7.2,11.859,9.262C485.961,447.123,489.36,445.918,489.36,445.918Z" transform="translate(-443.96 -434.9)" fill="#c4af94"/><path d="M478.8,458.3c0,1.722-14.356,12.568-26.7,20.074-12.483,7.575-35.751-4.82-31.9-11.948,8.565-15.839,14.807-6.783,29.475-4.476C463.893,464.184,478.8,452.1,478.8,458.3Z" transform="translate(-419.776 -449.068)" fill="#f2e7d5"/></g><g transform="translate(0 0)"><path d="M436.36,610.059c5.236,11.982,16.263,15.495,10.16,18.593-9.467,4.821-37.866-15.425-47.645-24.171-16.575-14.84,13.281-14.221,19.419-17.147S426.235,586.955,436.36,610.059Z" transform="translate(-366.869 -534.171)" fill="#c4af94"/><path d="M358.343,706.37c-5.722-7.782-10.021-11.052-18.066-11.225-.728-.861-1.942.379-1.214,1.205,1.006,1.205.936,3.2.936,4.683,0,1.859-.208,3.753-.381,5.612a47.428,47.428,0,0,1-3.4,13.807,29.454,29.454,0,0,1-3.156,5.922c-1.214,1.687-2.531,3.271-3.606,5.061a8.737,8.737,0,0,0-1.422,4.407c-.035,1.962,1.456,3.581,2.011,5.371.59,1.894-.486,3.857-1.283,5.509-1.214,2.548-2.635,4.993-3.953,7.506-1.214,2.341-2.393,4.717-3.5,7.093-.728,1.55-1.872,3.546-1.456,5.337a6.548,6.548,0,0,0,1.734,2.686c1.8,2.066,1.387,4.442.139,6.68a74.054,74.054,0,0,0-4.577,8.677c-1.422,3.546-2.393,8.3,1.491,10.639,2.393,1.446,5.722,1.274,8.357.964a28.717,28.717,0,0,0,9.744-3.064,30.787,30.787,0,0,0,10.507-9.159c8.288-9.435,13.108-24.378,13.108-40.94C360.423,727.683,358.343,706.37,358.343,706.37Z" transform="translate(-315.899 -605.311)" fill="#c4af94"/><path d="M411.061,672.552c5.236,11.982,16.263,15.495,10.16,18.594-9.467,4.82-37.866-15.426-47.645-24.171-16.575-14.84,13.281-14.22,19.419-17.147C399.2,646.9,400.935,649.414,411.061,672.552Z" transform="translate(-350.342 -575.144)" fill="#f2e7d5"/><g transform="translate(65.84 7.636)"><g transform="translate(0 105.041)"><path d="M506.022,762.718a4.822,4.822,0,0,1,2.878,3.03c.173.413.832.241.659-.172a5.57,5.57,0,0,0-3.364-3.512.338.338,0,1,0-.173.654Z" transform="translate(-505.769 -762.045)" fill="#c4af94"/></g><g transform="translate(2.237 102.881)"><path d="M512.386,756.4a5.951,5.951,0,0,1,3.468,3.925c.1.447.763.241.659-.172a6.543,6.543,0,0,0-3.815-4.338c-.347-.207-.693.379-.312.585Z" transform="translate(-512.22 -755.774)" fill="#c4af94"/></g><g transform="translate(10.834 84.399)"><path d="M537.355,702.752A2.339,2.339,0,0,1,539.3,704.4c.173.413.763.069.589-.344a3.047,3.047,0,0,0-2.566-1.963c-.416-.034-.416.654.035.654Z" transform="translate(-537.012 -702.097)" fill="#f2e7d5"/></g><g transform="translate(12.743 82.832)"><path d="M542.755,698.218a3.729,3.729,0,0,1,1.977,2c.208.379.8.034.589-.344a4.4,4.4,0,0,0-2.358-2.307.343.343,0,0,0-.208.654Z" transform="translate(-542.518 -697.545)" fill="#f2e7d5"/></g><g transform="translate(25.198)"><path d="M581.717,457.02a3.117,3.117,0,0,0-3.191,1.274c-.381.551.521,1.067.9.517a1.988,1.988,0,0,1,2.011-.792c.659.069.937-.93.278-1Z" transform="translate(-578.434 -456.978)" fill="#c4af94"/></g></g><path d="M393,460.693c4.993,23.242-9.64,68.038-32.561,68.038-16.055,0-28.642-12.017-28.642-35.775S352.363,434.8,368.418,434.8a52.572,52.572,0,0,0,9.883,9.469C386.727,450.4,392,456.01,393,460.693Z" transform="translate(-326.286 -434.8)" fill="#f2e7d5"/><g transform="translate(37.331 25.927)"><path d="M460.465,510.1c-1.144.413-2.982.792-4.126,1.171-3.294,1.067-6.554,2.238-9.918,3.133-7,1.894-14.529,3.064-21.777,1.722-1.11-.207-1.56,1.446-.451,1.653,7.386,1.377,14.911.276,22.123-1.549,2.635-.654,5.2-1.515,7.767-2.376C455.784,513.337,458.489,511.236,460.465,510.1Z" transform="translate(-423.554 -510.1)" fill="#472e42"/></g></g></g><g transform="translate(9.967 93.563)"><path d="M364.3,538.451c-17.1,6.129-31.174-5.819-27.637-22.174,1.8-8.264,64.463-53.473,95.88-79.331,9.5-7.816,36.722,1.446,26.493,35.017C454.5,487.113,427.97,515.588,364.3,538.451Z" transform="translate(-336.119 -434.271)" fill="#65768a"/><g transform="translate(10.57)"><path d="M410.349,589.071a16.061,16.061,0,0,0,9.12-29.371c-8.773,6.818-17.13,13.429-24.169,19.213A16.2,16.2,0,0,0,410.349,589.071Z" transform="translate(-385.348 -516.465)" fill="#aa9d99"/><path d="M559.494,594.3A16.133,16.133,0,0,0,543.3,610.38a15.88,15.88,0,0,0,4.474,11.087,172.652,172.652,0,0,0,26.18-18.215A16.09,16.09,0,0,0,559.494,594.3Z" transform="translate(-482.027 -539.152)" fill="#aa9d99"/><path d="M625.753,443.832c-6.311-10.192-19.141-11.982-25.106-7.093-2.254,1.859-4.681,3.822-7.213,5.853-.035.379-.035.792-.035,1.171a16.177,16.177,0,0,0,32.353.069Z" transform="translate(-514.755 -434.134)" fill="#aa9d99"/><path d="M378.113,674.715A5.756,5.756,0,1,1,372.356,669,5.744,5.744,0,0,1,378.113,674.715Z" transform="translate(-366.6 -588.131)" fill="#deb781"/><path d="M490.913,649.516a5.756,5.756,0,1,1-5.756-5.716A5.744,5.744,0,0,1,490.913,649.516Z" transform="translate(-440.286 -571.608)" fill="#a7ac8b"/><path d="M538.313,548.915a5.757,5.757,0,1,1-5.757-5.716A5.744,5.744,0,0,1,538.313,548.915Z" transform="translate(-471.249 -505.646)" fill="#deb781"/><path d="M643.413,548.915a5.756,5.756,0,1,1-5.757-5.716A5.744,5.744,0,0,1,643.413,548.915Z" transform="translate(-539.905 -505.646)" fill="#a7ac8b"/></g></g><g transform="translate(0 97.897)"><path d="M319.485,526.164c-4.473,16.252.1,27.132.1,27.132-8.738,0-14.737-9.159-11.166-25.514C311.648,513.08,323.889,497,323.889,497c3.051,6.645,12.83,9.4,12.83,9.4C334.535,511.53,321.982,517.143,319.485,526.164Z" transform="translate(-307.374 -479.687)" fill="#65768a"/><path d="M394.109,460.106c-.035,2.066-4.855.826-13.073,4.958a148.016,148.016,0,0,0-13.281,8.367c-8.08-1.136-13.385-6.886-12.83-9.4a54.142,54.142,0,0,1,6.831-16.665c7.872-2.376,21.846,2.548,21.846,2.548,0,1.618-5.652,3.581-5.1,4.82.659,1.412,14.113-6.026,15.223-1.963.589,2.2-14.321,5.888-13.35,7.816C380.343,460.588,394.144,458.316,394.109,460.106Z" transform="translate(-338.41 -446.719)" fill="#feddaf"/></g><g transform="translate(13.741 55.313)"><path d="M389.825,337.146c-2.67-9.744-1.838-14.117-2.219-13.256-.867,1.928-2.011,2.066-2.219,2.479l-.069-.069h0l-.52-.344a10.277,10.277,0,0,0-5.167-1.033,33,33,0,0,0-13.281,3.237c-4.022-3.271-9.224-5.853-10.542-4.924-1.977,1.377-.347,6.473.347,11.259-5.444,4.338-9.155,9.3-9.155,12.981,0,1.756,2.913-1.515,3.641,0,.763,1.653-2.635,11.053-1.214,12.4,1.075,1.033,3.5-.172,4.855.689,1.04.654.035,4.889,1.214,5.509,1.387.723,4.855-.826,6.415-.172,1.456.62,1.075,3.65,2.6,4.1,2.046.62,3.814-.172,5.895.172,1.7.31,2.427,1.618,3.814,1.205a45.111,45.111,0,0,1,11.374-1.412c0,.034,19.141-8.126,4.231-32.814" transform="translate(-347 -323.043)" fill="#f3e6d6"/><path d="M383.464,335.976a7.412,7.412,0,0,0-3.4-1.618c-2.046-.275-2.358,2.066-2.219,3.512a10.716,10.716,0,0,0,2.566,5.819L386,338.7A6.6,6.6,0,0,0,383.464,335.976Z" transform="translate(-367.132 -330.447)" fill="#ce3e35"/><path d="M404.644,450.436a5.3,5.3,0,0,1-1.248.413,17.656,17.656,0,0,1-3.745-.379c-2.843-.344-4.785,2.789-7.663,1.274-1.8-.964-2.809-1.687-4.889-1.205a6.856,6.856,0,0,1-3.329.069h-.1c-1.977-.275-1.352-2.858-3.676-3.753-2.462-.93-1.907.344-5.305.379-.173.241,2.358-.1,4.092.826,1.56.826,1.075,2.135,2.67,3.478a5.281,5.281,0,0,0,3.814,1.068c1.318-.034,2.809-.93,4.057-.379s2.219,1.446,3.606,1.687a5.992,5.992,0,0,0,3.676-.758,8.052,8.052,0,0,1,2.462-1,20.343,20.343,0,0,1,2.878.275,5.452,5.452,0,0,0,3.988-1.067Z" transform="translate(-365.079 -404.002)" fill="#472e42"/><g transform="translate(21.319 15.91)"><path d="M439.7,399.363c.728,2.238,2.67,3.65,4.369,3.1s2.5-2.789,1.768-5.061Z" transform="translate(-428.875 -387.707)" fill="#ce3e35"/><g transform="translate(1.636 7.489)"><ellipse cx="2.774" cy="2.755" rx="2.774" ry="2.755" transform="translate(0 7.782)" fill="#ffa075"/><ellipse cx="2.774" cy="2.755" rx="2.774" ry="2.755" transform="translate(19.419)" fill="#ffa075"/></g><g transform="translate(10.988 12.925)"><g transform="translate(0 2.701)"><path d="M440.284,417.857a3.527,3.527,0,0,0,4.473,1.24,3.228,3.228,0,0,0,1.907-3.994c-.312-.826-1.63-.482-1.352.379.8,2.238-2.566,3.547-3.849,1.722-.485-.758-1.664-.069-1.179.654Z" transform="translate(-440.169 -414.63)" fill="#472e42"/></g><g transform="translate(4.944)"><path d="M454.556,410.476c1.006,1.377,2.462,2.031,4.057,1.067,1.63-1,1.56-2.651,1.144-4.27a.7.7,0,0,0-1.352.379,2.6,2.6,0,0,1-.07,2.376c-.832,1-1.872.723-2.566-.241-.555-.723-1.734-.034-1.214.689Z" transform="translate(-454.427 -406.787)" fill="#472e42"/></g></g><path d="M415.909,392.023c-.52-1.618-1.907-2.651-3.121-2.273a2.007,2.007,0,0,0-1.179,1.136,2.227,2.227,0,0,1-2.08.1c-.8-.413-1.491.792-.694,1.205a3.531,3.531,0,0,0,2.5.241,4.7,4.7,0,0,0,.173.964c.52,1.618,1.907,2.651,3.121,2.273C415.874,395.294,416.429,393.676,415.909,392.023Z" transform="translate(-408.482 -382.64)" fill="#472e42"/><path d="M459.711,372.538a3.287,3.287,0,0,0,1.422-2.617c.069-.9-1.318-.9-1.387,0a2,2,0,0,1-1.179,1.687,1.656,1.656,0,0,0-1.144-.1c-1.248.31-1.907,1.894-1.526,3.547.416,1.653,1.734,2.789,2.982,2.479s1.907-1.894,1.526-3.546A4.01,4.01,0,0,0,459.711,372.538Z" transform="translate(-439.384 -369.25)" fill="#472e42"/><g transform="translate(0.024 7.943)"><g transform="translate(0 8.468)"><path d="M409.226,418.838a11.5,11.5,0,0,0,3.4-.551.7.7,0,0,0-.382-1.343,9.877,9.877,0,0,1-3.017.482.706.706,0,0,0,0,1.412Z" transform="translate(-408.55 -416.914)" fill="#472e42"/></g><g transform="translate(3.039 11.334)"><path d="M418.349,427.807a7.1,7.1,0,0,0,1.8-1.412.693.693,0,0,0,0-.964.705.705,0,0,0-.971,0,5.459,5.459,0,0,1-1.491,1.171.687.687,0,1,0,.659,1.205Z" transform="translate(-417.313 -425.237)" fill="#472e42"/></g><g transform="translate(23.055)"><path d="M476.064,394.62a6.058,6.058,0,0,0,1.526-1.136c.624-.62-.347-1.584-.971-.964a4.712,4.712,0,0,1-1.248.93.673.673,0,0,0-.243.93.706.706,0,0,0,.936.241Z" transform="translate(-475.037 -392.32)" fill="#472e42"/></g><g transform="translate(24.1 4.366)"><path d="M478.726,406.377h1.318a.689.689,0,0,0,0-1.377h-1.318a.689.689,0,0,0,0,1.377Z" transform="translate(-478.05 -405)" fill="#472e42"/></g></g></g></g></g></g><g transform="translate(15.383 -41.008)"><path d="M-71.214-7.916l-2.229-3.166h-1.773l3.251,4.431v3.71h1.514v-3.7l3.275-4.443h-1.785ZM-65.132-2.8a2.932,2.932,0,0,0,3.066-2.907A2.923,2.923,0,0,0-65.132-8.6a2.912,2.912,0,0,0-3.054,2.895A2.922,2.922,0,0,0-65.132-2.8Zm0-1.276a1.582,1.582,0,0,1-1.613-1.631,1.587,1.587,0,0,1,1.613-1.619,1.6,1.6,0,0,1,1.625,1.619A1.592,1.592,0,0,1-65.132-4.076Zm8.422-1.43a1.362,1.362,0,0,1-1.465,1.43A1.206,1.206,0,0,1-59.37-5.423V-8.46H-60.8v3.1c0,1.607.825,2.564,2.3,2.564a2.012,2.012,0,0,0,1.785-1v.863h1.428V-8.46H-56.71ZM-50.5-8.6a1.7,1.7,0,0,0-1.65,1.323V-8.46h-1.428v5.518h1.441V-4.868c0-1.548.517-2.446,1.453-2.446a1.86,1.86,0,0,1,.837.2l.283-1.3A2.181,2.181,0,0,0-50.5-8.6Zm4.8-2.481v8.141h1.5V-5.86h1.933A2.477,2.477,0,0,0-39.6-8.471a2.488,2.488,0,0,0-2.672-2.611Zm1.5,3.923V-9.795h1.9A1.2,1.2,0,0,1-41.1-8.471,1.2,1.2,0,0,1-42.341-7.16Zm11.18,1.406A2.786,2.786,0,0,0-35.951-8.6a2.867,2.867,0,0,0-3.017,2.895A2.863,2.863,0,0,0-35.951-2.8a3.1,3.1,0,0,0,2.6-1.252l-.96-.7a1.941,1.941,0,0,1-1.551.709A1.507,1.507,0,0,1-37.5-5.222h4.457C-33.033-5.423-33.021-5.6-33.021-5.754ZM-37.5-6.179a1.459,1.459,0,0,1,1.564-1.205,1.386,1.386,0,0,1,1.5,1.205Zm7.658-2.28v-2.032h-1.428V-8.46h-1.034v1.087h1.034v4.431h1.428V-7.373h1.219V-8.46Zm9.321,5.66A4.294,4.294,0,0,0-17.15-4.383l-1.133-.827a2.761,2.761,0,0,1-2.2,1.063,2.811,2.811,0,0,1-2.832-2.859,2.837,2.837,0,0,1,2.832-2.871,2.761,2.761,0,0,1,2.2,1.063l1.133-.827a4.294,4.294,0,0,0-3.374-1.583,4.275,4.275,0,0,0-4.309,4.218A4.266,4.266,0,0,0-20.523-2.8Zm7.191,0a2.932,2.932,0,0,0,3.066-2.907A2.923,2.923,0,0,0-13.333-8.6a2.912,2.912,0,0,0-3.054,2.895A2.922,2.922,0,0,0-13.333-2.8Zm0-1.276a1.582,1.582,0,0,1-1.613-1.631,1.587,1.587,0,0,1,1.613-1.619,1.6,1.6,0,0,1,1.625,1.619A1.592,1.592,0,0,1-13.333-4.076ZM-1.993-8.6A2.178,2.178,0,0,0-3.926-7.491,2,2,0,0,0-5.785-8.6,1.7,1.7,0,0,0-7.5-7.443V-8.46H-8.925v5.518H-7.5V-5.884a1.272,1.272,0,0,1,1.33-1.43c.616,0,1.1.473,1.1,1.347v3.025h1.428V-5.671c0-1.1.468-1.642,1.293-1.642.665,0,1.145.461,1.145,1.347v3.025H.211v-3.1C.211-7.644-.552-8.6-1.993-8.6Zm7.178,0a2.349,2.349,0,0,0-1.908.874V-8.46H1.849V-.248H3.277V-3.674A2.324,2.324,0,0,0,5.2-2.8a2.784,2.784,0,0,0,2.82-2.895A2.8,2.8,0,0,0,5.186-8.6ZM4.964-4.076A1.643,1.643,0,0,1,3.3-5.695a1.63,1.63,0,0,1,1.662-1.63,1.629,1.629,0,0,1,1.625,1.63A1.611,1.611,0,0,1,4.964-4.076Zm8.8-3.615a2.311,2.311,0,0,0-1.933-.91A2.766,2.766,0,0,0,9.027-5.707,2.769,2.769,0,0,0,11.8-2.8a2.343,2.343,0,0,0,1.97-1v.863H15.2V-8.46H13.767ZM12.093-4.076a1.623,1.623,0,0,1-1.638-1.631,1.611,1.611,0,0,1,1.625-1.619,1.651,1.651,0,0,1,1.662,1.619A1.642,1.642,0,0,1,12.093-4.076ZM20.108-8.6a2.01,2.01,0,0,0-1.785,1.016V-8.46H16.895v5.518h1.428v-2.93A1.368,1.368,0,0,1,19.788-7.3a1.216,1.216,0,0,1,1.194,1.359v3h1.428v-3.1C22.411-7.644,21.586-8.6,20.108-8.6ZM24.75-9.57a.874.874,0,0,0,.923-.839.866.866,0,0,0-.923-.839.885.885,0,0,0-.936.839A.893.893,0,0,0,24.75-9.57Zm.714,6.628V-8.46H24.036v5.518Zm4.4.142a2.932,2.932,0,0,0,3.066-2.907A2.923,2.923,0,0,0,29.86-8.6a2.912,2.912,0,0,0-3.054,2.895A2.922,2.922,0,0,0,29.86-2.8Zm0-1.276a1.582,1.582,0,0,1-1.613-1.631A1.587,1.587,0,0,1,29.86-7.325a1.6,1.6,0,0,1,1.625,1.619A1.592,1.592,0,0,1,29.86-4.076ZM37.482-8.6A2.01,2.01,0,0,0,35.7-7.585V-8.46H34.268v5.518H35.7v-2.93A1.368,1.368,0,0,1,37.161-7.3a1.216,1.216,0,0,1,1.194,1.359v3h1.428v-3.1C39.784-7.644,38.959-8.6,37.482-8.6Z" transform="translate(212.833 610.923)" fill="#fff"/><path d="M7.558-.917a4.507,4.507,0,0,1,4.778-3.932,4.186,4.186,0,0,1,4.5,3.932ZM20.515,5.975a2.976,2.976,0,0,0-4.043-.324A5.785,5.785,0,0,1,12.75,6.669c-2.251,0-4.962-1.064-5.284-3.562H21.3a2,2,0,0,0,1.976-1.989c0-6.8-4.87-11.333-10.981-11.333C6.134-10.215,1.08-5.867,1.08.933A10.924,10.924,0,0,0,12.291,12.22a13.448,13.448,0,0,0,7.4-1.943A2.813,2.813,0,0,0,20.515,5.975ZM38.571,11.11a3.251,3.251,0,0,0,4.227.278,2.839,2.839,0,0,0,.184-4.21L35.906-.27l5.008-4.9A2.9,2.9,0,0,0,40.5-9.29a3.038,3.038,0,0,0-4.135.37L31.358-3.832v-15.08a3.053,3.053,0,0,0-3.216-2.868,3.146,3.146,0,0,0-3.216,2.868V9.167a3.146,3.146,0,0,0,3.216,2.868,3.053,3.053,0,0,0,3.216-2.868V3.292Zm16.4,1.11A10.945,10.945,0,0,0,66.276.933c0-6.8-5.054-11.148-11.3-11.148S43.717-5.867,43.717.933A10.908,10.908,0,0,0,54.973,12.22Zm0-6.245A4.856,4.856,0,0,1,50.149.933a4.764,4.764,0,0,1,4.824-4.9,4.775,4.775,0,0,1,4.87,4.9A4.865,4.865,0,0,1,54.973,5.975Zm25.453-16.19c-2.205,0-4.457,1.388-5.651,5.412V-7.162a3.053,3.053,0,0,0-3.216-2.868,3.146,3.146,0,0,0-3.216,2.868V9.167a3.146,3.146,0,0,0,3.216,2.868,3.053,3.053,0,0,0,3.216-2.868V3.847c.092-5.412,1.286-8.188,4.87-8.188.414,0,1.1.046,1.562.046a2.964,2.964,0,0,0,3.17-2.359C84.792-9.707,82.54-10.215,80.427-10.215ZM84.24-17.8a3.908,3.908,0,0,0,4,3.793A3.828,3.828,0,0,0,92.143-17.8a3.79,3.79,0,0,0-3.905-3.747A3.87,3.87,0,0,0,84.24-17.8ZM91.454-7.162a3.053,3.053,0,0,0-3.216-2.868,3.146,3.146,0,0,0-3.216,2.868V9.167a3.146,3.146,0,0,0,3.216,2.868,3.053,3.053,0,0,0,3.216-2.868ZM104.778,12.22A10.945,10.945,0,0,0,116.08.933c0-6.8-5.054-11.148-11.3-11.148S93.521-5.867,93.521.933A10.908,10.908,0,0,0,104.778,12.22Zm0-6.245A4.856,4.856,0,0,1,99.953.933a4.764,4.764,0,0,1,4.824-4.9,4.775,4.775,0,0,1,4.87,4.9A4.865,4.865,0,0,1,104.778,5.975Z" transform="translate(136.537 579.455)" fill="#fff"/></g></g></svg>