<svg xmlns="http://www.w3.org/2000/svg" xmlns:xlink="http://www.w3.org/1999/xlink" width="110" height="110" viewBox="0 0 110 110"><defs><clipPath id="a"><circle cx="55" cy="55" r="55" transform="translate(0 0)" fill="#fff" stroke="#707070" stroke-width="1"/></clipPath></defs><g transform="translate(-96.971 -176.971)"><ellipse cx="41.392" cy="41.959" rx="41.392" ry="41.959" transform="translate(110.579 191.713)" fill="#f5f1f8"/><g transform="translate(96.971 176.971)" clip-path="url(#a)"><g transform="translate(13.797 16.264)"><path d="M44.178,104.7a4.236,4.236,0,0,1-5.787,1.551L25.522,98.491a4.236,4.236,0,0,1,4.236-7.338l12.869,7.758A4.236,4.236,0,0,1,44.178,104.7Z" transform="translate(-23.403 -71.35)" fill="#ffcebf"/><path d="M57.129,98.916,44.26,91.158a4.214,4.214,0,0,0-2.446-.554v8.971l11.079,6.678a4.236,4.236,0,0,0,4.236-7.338Z" transform="translate(-37.905 -71.355)" fill="#fcb7ac"/><path d="M201.645,141.169a2.571,2.571,0,0,1-1.23-2.023c-.226-3.326-.5-7.116-2.011-9.982l-4.911-10.4a6.842,6.842,0,0,1-.655-2.921v-9.871a4.411,4.411,0,1,0-8.823,0L172.5,123.44l-17.129,34.78,16.944,8.613a21.879,21.879,0,0,0,7.2,2.206l9.967,1.246a21.883,21.883,0,0,1,7.347,2.282l22.544,11.675a1.7,1.7,0,0,0,2.478-1.507V155.456a3.554,3.554,0,0,0-1.707-3.036Z" transform="translate(-127.348 -79.993)" fill="#ffcebf"/><g transform="translate(58.677 21.564)"><path d="M301.748,105.968v9.871a6.842,6.842,0,0,0,.655,2.921l4.911,10.4c1.415,2.691,1.747,6.2,1.969,9.367a5.856,5.856,0,0,0,1.414,3.424,7.893,7.893,0,0,0,4.266,2.5,11.686,11.686,0,0,1,3.025,1.295l14.3,8.8a7.518,7.518,0,0,1,3.278,4.3v-3.385a3.554,3.554,0,0,0-1.707-3.036l-18.5-11.251a2.571,2.571,0,0,1-1.23-2.023c-.226-3.326-.5-7.116-2.011-9.982l-4.911-10.4a6.843,6.843,0,0,1-.655-2.921v-9.871a4.408,4.408,0,0,0-6.815-3.7A4.4,4.4,0,0,1,301.748,105.968Z" transform="translate(-299.74 -101.557)" fill="#fcb7ac"/></g><path d="M103.58,78.848H70.99a7.817,7.817,0,0,1-7.817-7.817V7.817A7.817,7.817,0,0,1,70.99,0H103.58A7.817,7.817,0,0,1,111.4,7.817V71.032A7.816,7.816,0,0,1,103.58,78.848Z" transform="translate(-54.728 0)" fill="#806c94"/><path d="M232.722,0h-5.594a7.817,7.817,0,0,1,7.817,7.817V71.032a7.817,7.817,0,0,1-7.817,7.817h5.594a7.817,7.817,0,0,0,7.817-7.817V7.817A7.817,7.817,0,0,0,232.722,0Z" transform="translate(-183.87 0)" fill="#533b6b"/><path d="M126.558,42.6l-2.452,6.122,2.452,4.553v4.642l-1.113,2.268,1.113,1.431V91.682a2.334,2.334,0,0,1-2.327,2.327H91.849a2.334,2.334,0,0,1-2.327-2.327V75.249l3.406-6.534-3.406-4.141v-35.9a2.324,2.324,0,0,1,2.325-2.325h6.022a2.113,2.113,0,0,1,2.024,1.5l.246.811a1.751,1.751,0,0,0,1.675,1.244h12.451a1.751,1.751,0,0,0,1.675-1.244l.244-.809a2.115,2.115,0,0,1,2.024-1.5h6.022a2.328,2.328,0,0,1,2.327,2.327Z" transform="translate(-75.482 -20.755)" fill="#f2f7f7"/><g transform="translate(42.291 5.595)"><path d="M231.356,42.6,228.9,48.718l2.452,4.553v4.642l-1.113,2.268,1.113,1.431V91.682a2.334,2.334,0,0,1-2.327,2.327h-6.457a2.331,2.331,0,0,0,2.327-2.327V28.675c0-1.283-.609-2.325-1.892-2.325h6.022a2.328,2.328,0,0,1,2.327,2.327Z" transform="translate(-222.572 -26.35)" fill="#deecf1"/></g><g transform="translate(14.04 37.157)"><path d="M126.558,174.99v3.7L120.1,182.5,89.522,200.547v-3.7L120.1,178.8Z" transform="translate(-89.522 -174.99)" fill="#f2f7f7"/></g><g transform="translate(44.618 37.157)"><path d="M239.989,174.99v3.7l-6.457,3.811v-3.7Z" transform="translate(-233.532 -174.99)" fill="#deecf1"/></g><path d="M126.555,102.86v10.674L89.519,135.513V124.839Z" transform="translate(-75.48 -81.019)" fill="#deecf1"/><path d="M233.532,106.692v10.674l6.457-3.832V102.86Z" transform="translate(-188.914 -81.019)" fill="#cee6ed"/><path d="M57.617,262.457a5,5,0,1,1,5-5A5,5,0,0,1,57.617,262.457Z" transform="translate(-46.411 -198.847)" fill="#ffcebf"/><path d="M72.484,257.453a5,5,0,0,1-7.345,4.421,5,5,0,0,0,0-8.842,5,5,0,0,1,7.345,4.421Z" transform="translate(-56.277 -198.845)" fill="#fcb7ac"/><path d="M57.617,215.083a5,5,0,1,1,5-5A5,5,0,0,1,57.617,215.083Z" transform="translate(-46.411 -161.532)" fill="#ffcebf"/><path d="M72.484,210.083a5,5,0,0,1-7.345,4.421,5,5,0,0,0,0-8.842,5,5,0,0,1,7.345,4.421Z" transform="translate(-56.277 -161.534)" fill="#fcb7ac"/><path d="M57.617,167.709a5,5,0,1,1,5-5A5,5,0,0,1,57.617,167.709Z" transform="translate(-46.411 -124.218)" fill="#ffcebf"/><path d="M67.486,157.7a4.98,4.98,0,0,0-2.342.582,5,5,0,0,1,0,8.841,5,5,0,1,0,2.342-9.423Z" transform="translate(-56.281 -124.218)" fill="#fcb7ac"/><g transform="translate(21.208 65.868)"><g transform="translate(17.565)"><path d="M210.081,313.388H207.6a1.593,1.593,0,1,1,0-3.185h2.482a1.593,1.593,0,0,1,0,3.185Z" transform="translate(-206.006 -310.203)" fill="#806c94"/></g><g transform="translate(0)"><path d="M127.359,313.388h-2.482a1.593,1.593,0,1,1,0-3.185h2.482a1.593,1.593,0,1,1,0,3.185Z" transform="translate(-123.284 -310.203)" fill="#806c94"/></g></g></g></g></g></svg>