<svg xmlns="http://www.w3.org/2000/svg" width="633.34" height="749.2" viewBox="0 0 633.34 749.2"><path d="M812.694,702.031l6.174,19.023S848.6,751.775,837.85,760.1s-34.884-35.568-34.884-35.568l-4.447-21.476Z" transform="translate(-206.853 -75.401)" fill="#ffceb8"/><path d="M755.647,554.792l9-3s14,4,16,18,17,85,17,85,6,3,2,8,20,50,20,50l-19,9s-38-40-38-44,1-8,1-12-1-4,0-7a32.167,32.167,0,0,0,1-8l-7-16Z" transform="translate(-206.853 -75.401)" fill="#e1e7ed"/><ellipse cx="90.418" cy="184.489" rx="90.418" ry="184.489" transform="translate(0 179.009)" fill="#cbd2d9"/><path d="M296.44,440.813c4.51-80.307,13.6-134.551,13.689-135.09l-1.972-.334c-.091.539-9.2,54.871-13.712,135.281-4.169,74.214-5.175,186.467,13.712,299.786l1.973-.328C291.275,627,292.279,514.918,296.44,440.813Z" transform="translate(-206.853 -75.401)" fill="#9aa5b1"/><rect width="92.725" height="2" transform="translate(89.48 369.839) rotate(-28.157)" fill="#9aa5b1"/><rect width="2" height="92.725" transform="translate(3.173 349.778) rotate(-61.858)" fill="#9aa5b1"/><ellipse cx="123.73" cy="252.458" rx="123.73" ry="252.458" transform="translate(180.836 0)" fill="#e1e7ed"/><path d="M509.915,330.446c6.173-109.911,18.611-184.152,18.736-184.889l-1.972-.334c-.125.738-12.579,75.065-18.759,185.08-5.7,101.538-7.081,255.118,18.759,410.153l1.973-.328C502.844,585.284,504.218,431.875,509.915,330.446Z" transform="translate(-206.853 -75.401)" fill="#9aa5b1"/><rect width="126.887" height="2" transform="translate(303.455 261.463) rotate(-28.157)" fill="#9aa5b1"/><rect width="2" height="126.887" transform="translate(185.353 233.36) rotate(-61.858)" fill="#9aa5b1"/><ellipse cx="46.229" cy="94.325" rx="46.229" ry="94.325" transform="translate(155.263 414.643)" fill="#e1e7ed"/><path d="M408.3,588.433l.274.512,41.8-22.372-.943-1.764L408.39,586.776c2.271-41.8,6.916-69.863,7.01-70.415l-1.972-.334c-.1.6-5.621,33.927-7.58,82.145l-41.393-22.156-.943,1.764,41.8,22.372.5-.933c-1.567,39.8-.689,89.56,7.62,139.41l1.973-.328C406.342,683.949,406.143,629.7,408.3,588.433Z" transform="translate(-206.853 -75.401)" fill="#9aa5b1"/><path d="M767.884,459.866c-16.074-27.4-47.876-28.672-47.876-28.672s-30.989-4-50.868,37.726c-18.529,38.89-44.1,76.439-4.117,85.543l7.222-22.674,4.473,24.362a155.132,155.132,0,0,0,17.108.295c42.82-1.4,83.6.408,82.286-15.091C774.367,520.752,783.35,486.226,767.884,459.866Z" transform="translate(-206.853 -75.401)" fill="#2f2e41"/><path d="M655.842,679.3a61.232,61.232,0,0,1-1.949,8.464c-.956,2.712-2.432,5.22-3.307,7.96-2.787,8.734,1.077,18.472,7.247,25.213a40.722,40.722,0,0,0,19.887,11.911c5.566,1.412,11.354,1.615,17.091,1.812,15.885.543,32.178,1.029,47.229-4.12a81.724,81.724,0,0,0,13.722-6.288,10.289,10.289,0,0,0,3.56-2.828c1.148-1.648,1.295-3.786,1.285-5.8-.034-6.792-1.4-13.55-1.075-20.334.18-3.758.877-7.513.534-11.259a20.71,20.71,0,0,0-15.738-17.892c-4.27-.925-8.7-.421-13.046,0a329.778,329.778,0,0,1-33.951,1.531c-11.582-.075-23.093-1.858-34.617-2.044-3.408-.055-3.339,1-4.424,4.332a81.592,81.592,0,0,0-2.448,9.342Z" transform="translate(-206.853 -75.401)" fill="#302140"/><path d="M610.552,673.78a33.989,33.989,0,0,0-9.533-1.022,24.061,24.061,0,0,0-17.379,9.114,24.491,24.491,0,0,0-4.711,19.177,40.53,40.53,0,0,0,3.777,10.412c2.528,5.175,5.56,10.338,10.241,13.655a39.739,39.739,0,0,0,9.038,4.339l24.65,9.367c3.626,1.378,7.253,2.756,10.915,4.034a211.9,211.9,0,0,0,57.013,11.432c5.919.355,11.927.454,17.7-.9a5.749,5.749,0,0,0,3.625-1.976,6.3,6.3,0,0,0,.81-2.7L718.218,738a9.047,9.047,0,0,0-.129-4.515c-.7-1.8-2.437-2.933-4.1-3.9-16.206-9.388-35.128-14.568-48.769-27.453-3.211-3.033-5.9-7.842-9.8-9.9-4.424-2.337-9.635-3.67-14.208-5.823C631.217,681.7,621.387,676.293,610.552,673.78Z" transform="translate(-206.853 -75.401)" fill="#302140"/><path d="M635.162,688.22c8.713,2.754,45.5,21.832,51.8,28.493-.845.307-29.52-15.9-30.381-16.162-7.821-2.368-15.686-4.751-23.114-8.216-1.494-.7-9.707-3.973-9.335-5.875C624.555,684.314,633.615,687.731,635.162,688.22Z" transform="translate(-206.853 -75.401)" opacity="0.1"/><path d="M743.86,759.842a2.034,2.034,0,0,0,1.381-.41,2.166,2.166,0,0,0,.432-1.6l-.041-14.592c-4.16-2-8.813-2.64-13.381-3.256l-21.311-2.873c.49.066-3.332,9.258-2.746,10.486,1.033,2.163,8.926,4.08,11.153,5.1C727.091,756.245,735.138,760.148,743.86,759.842Z" transform="translate(-206.853 -75.401)" fill="#ffb8b8"/><path d="M677,743.187c-4.024.646-8.515,1.218-11.121,4.377-3.3,4.006-1.9,9.979-.321,14.942a6.453,6.453,0,0,0,1.371,2.719c1.076,1.07,2.724,1.227,4.233,1.324,3.67.234,7.575.418,10.781-1.4a47.252,47.252,0,0,0,4.188-3.14,26.739,26.739,0,0,1,7.7-3.551,77.282,77.282,0,0,1,15.456-3.213,23.851,23.851,0,0,0,6.089-1.083,6.774,6.774,0,0,0,4.288-4.2c.743-2.652-.785-5.355-2.251-7.681-1.826-2.9-3.759-5.947-6.481-8.08-3.971-3.111-5.935-.723-9.935,1.268a83.784,83.784,0,0,1-24,7.714Z" transform="translate(-206.853 -75.401)" fill="#ffceb8"/><path d="M666.481,746.842l-25.549-7.617a33.563,33.563,0,0,0-9.508-1.858c-3.24,0-6.63,1.074-8.732,3.562-1.981,2.345-2.548,5.551-3.042,8.591l-1.057,6.5a32.947,32.947,0,0,0-.592,9.988c.483,3.314,2.16,6.625,5.076,8.229,3.536,1.946,7.869,1,11.815.182A127.56,127.56,0,0,1,659.1,771.8c3.058-.037,6.266,0,8.968-1.443,3.212-1.717,5.134-5.348,5.464-9C674.039,755.806,672.2,748.548,666.481,746.842Z" transform="translate(-206.853 -75.401)" fill="#302140"/><path d="M753.9,740.2c3.312-.586,6.235-2.484,9.409-3.6,4.467-1.577,9.308-1.577,14.041-1.56,1.737.006,3.588.046,5.034,1.017,2.085,1.4,2.619,4.2,2.974,6.7l2.139,15.088c.4,2.838.8,5.752.175,8.548s-2.517,5.492-5.268,6.213c-3.341.876-6.616-1.277-9.771-2.691-7.884-3.534-17.049-2.631-25.27-5.273-1.526-.49-3.16-1.24-3.782-2.728a6.257,6.257,0,0,1-.294-2.607c.141-4.85-.873-11.472.574-16.108C745.165,739.034,750.206,740.2,753.9,740.2Z" transform="translate(-206.853 -75.401)" fill="#302140"/><path d="M807.971,667.707A44,44,0,0,1,823.6,666.63c4.178.464,8.483,1.637,11.534,4.554,3.713,3.55,4.906,9.041,5.006,14.2a44.614,44.614,0,0,1-9.56,28.335,25.589,25.589,0,0,1-5.466,5.307A35.847,35.847,0,0,1,818,722.484l-55.2,21.962c-14.523,5.778-29.1,11.572-44.245,15.381a3.436,3.436,0,0,1-4.64-1.7,115.664,115.664,0,0,1-12.1-22.324,2.017,2.017,0,0,1-.156-1.672,1.983,1.983,0,0,1,.815-.7L741.52,710.8a39.474,39.474,0,0,0,7.947-5.523,19.9,19.9,0,0,0,4.08-5.73c.809-1.7.885-5.729,1.919-6.989,1.012-1.234,4.475-1.332,6.074-1.818a54.834,54.834,0,0,0,6.612-2.521c8.734-3.941,16.512-9.668,24.885-14.282a63.544,63.544,0,0,1,14.934-6.236Z" transform="translate(-206.853 -75.401)" fill="#302140"/><path d="M785.835,684.606c-6.708,5.082-15.394,9.753-22.043,14.969-2.269,1.78-40.1,23.23-40.63,26.079,6.2,1.054,45.715-26.827,51.368-29.609s10.664-6.705,15.63-10.6c1.266-.992,6.629-3.976,3-5.085C791.11,679.737,787.346,683.59,785.835,684.606Z" transform="translate(-206.853 -75.401)" opacity="0.1"/><circle cx="38" cy="38" r="38" transform="translate(473.795 377.39)" fill="#ffceb8"/><path d="M734.647,522.792s-6,15,5,21-34,54-34,54l-20-58s17-6,14-22Z" transform="translate(-206.853 -75.401)" fill="#ffceb8"/><path d="M709.647,563.792l24.218-26.736,32.782,16.736-5,118-8,9s-34,30-86,5c0,0-18-15-17-38s-2-26-2-26l-1-81,49.371-9.688Z" transform="translate(-206.853 -75.401)" fill="#e1e7ed"/><path d="M598.6,691.031l-6.174,19.023S562.69,740.775,573.445,749.1s34.884-35.568,34.884-35.568l4.447-21.476Z" transform="translate(-206.853 -75.401)" fill="#ffceb8"/><path d="M655.647,543.792l-9-3s-14,4-16,18-17,85-17,85-6,3-2,8-20,50-20,50l19,9s38-40,38-44-1-8-1-12,1-4,0-7a32.17,32.17,0,0,1-1-8l7-16Z" transform="translate(-206.853 -75.401)" fill="#e1e7ed"/><path d="M553.925,381.823l-31.419-16.6-43.387,6.79L470.142,412l22.346-.867,6.242-14.692v14.449l10.311-.4,5.985-23.39,3.74,24.9,36.655-.755Z" fill="#2f2e41"/><path d="M538.057,714.482v57.68H361.877a57.682,57.682,0,0,1,57.675-57.68c16.525-5.15,35.625-6.79,56.345-6.25C495.447,708.732,516.437,711.182,538.057,714.482Z" transform="translate(-206.853 -75.401)" fill="#cbd2d9"/><path d="M306.037,684.178h82.847a5.244,5.244,0,0,1,5.244,5.244h0a5.243,5.243,0,0,1-5.244,5.244H306.037Z" fill="#9aa5b1"/><path d="M527.238,665.12l22.207-26.92a5.829,5.829,0,0,1,10.865.931l8.757,30.918Z" transform="translate(-206.853 -75.401)" fill="#3e4c59"/><path d="M500.3,678.829l8.39-33.872a5.829,5.829,0,0,1,10.2-3.857l21.261,24.1Z" transform="translate(-206.853 -75.401)" fill="#616e7c"/><path d="M155.024,696.762H171.8v35.656A16.78,16.78,0,0,1,155.021,749.2h0Z" fill="#cbd2d9"/><path d="M302.891,686.275h82.847a5.244,5.244,0,0,1,5.243,5.243h0a5.244,5.244,0,0,1-5.243,5.244H302.891Z" fill="#cbd2d9"/><path d="M538.057,714.482v57.36a56.645,56.645,0,0,1-62.16-63.61C495.447,708.732,516.437,711.182,538.057,714.482Z" transform="translate(-206.853 -75.401)" fill="#9aa5b1" opacity="0.999"/><circle cx="56.63" cy="56.63" r="56.63" transform="translate(274.576 583.502)" fill="#cbd2d9"/><ellipse cx="6.292" cy="14.682" rx="6.292" ry="14.682" transform="translate(379.446 629.645)" fill="#616e7c"/><ellipse cx="1.573" cy="3.67" rx="1.573" ry="3.67" transform="translate(368.959 625.45)" fill="#9aa5b1"/><ellipse cx="1.573" cy="3.67" rx="1.573" ry="3.67" transform="translate(380.495 618.109)" fill="#9aa5b1"/><path d="M533.307,658.273s-3.147-5.475-3.147-8.815" transform="translate(-206.853 -75.401)" fill="#3f3d56"/><path d="M534.692,654.732s1.715-6.078,4.1-8.413" transform="translate(-206.853 -75.401)" fill="#3f3d56"/></svg>