<svg xmlns="http://www.w3.org/2000/svg" width="39.03" height="48" viewBox="0 0 39.03 48"><g transform="translate(-9.46 -5.473)"><path d="M42.191,7.461h0a.433.433,0,0,1,.433-.441h2.311a.727.727,0,0,1,.719.727h0a.719.719,0,0,1-.719.719H43.784a.433.433,0,0,0-.433.433h0a.433.433,0,0,1-.441.433H40.6a.719.719,0,0,1-.719-.719h0a.719.719,0,0,1,.719-.744h1.16A.433.433,0,0,0,42.191,7.461Z" transform="translate(-4.086 -0.208)" fill="#d9ebf4"/><path d="M47.068,11.251h0A.251.251,0,0,0,46.817,11H45.476a.424.424,0,0,0-.416.424h0a.416.416,0,0,0,.416.416h.675a.251.251,0,0,1,.251.251h0a.251.251,0,0,0,.251.251h1.342a.407.407,0,0,0,.416-.416h0a.416.416,0,0,0-.416-.424h-.675a.251.251,0,0,1-.251-.251Z" transform="translate(-4.782 -0.742)" fill="#d9ebf4"/><circle cx="0.606" cy="0.606" r="0.606" transform="translate(38.833 16.75)" fill="#d9ebf4"/><path d="M43.7,12.959a.58.58,0,1,1-.167-.416.58.58,0,0,1,.167.416Z" transform="translate(-4.443 -0.926)" fill="#d9ebf4"/><path d="M40.71,14.275a.935.935,0,1,1-.935-.935A.935.935,0,0,1,40.71,14.275Z" transform="translate(-3.946 -1.057)" fill="#d9ebf4"/><path d="M39.486,6a.3.3,0,1,1-.3-.3A.3.3,0,0,1,39.486,6Z" transform="translate(-3.952 -0.031)" fill="#d9ebf4"/><path d="M50.524,14.362a.372.372,0,1,1-.372-.372.364.364,0,0,1,.372.372Z" transform="translate(-5.416 -1.144)" fill="#d9ebf4"/><path d="M47.816,19.91a.978.978,0,1,1-.97-.97A.978.978,0,0,1,47.816,19.91Z" transform="translate(-4.889 -1.809)" fill="#d9ebf4"/><path d="M51.635,11.338A.338.338,0,1,1,51.3,11,.338.338,0,0,1,51.635,11.338Z" transform="translate(-5.574 -0.742)" fill="#d9ebf4"/><path d="M48.121,58.759H44.71a.866.866,0,0,1-.649-.294L39.2,52.984a.866.866,0,0,1-.1-1.022l4.043-6.778a.866.866,0,0,1,1.489.866L40.91,52.292,45.1,57.01h3.021a.866.866,0,0,1,0,1.731Z" transform="translate(-3.965 -5.286)" fill="#40321d"/><path d="M41.056,57.876a.865.865,0,0,1-.338-1.662l1.273-.537a.866.866,0,1,1,.675,1.593l-1.264.537a.8.8,0,0,1-.346.069Z" transform="translate(-4.128 -6.732)" fill="#40321d"/><path d="M40.512,58.731h-3.4a.866.866,0,0,1-.649-.294L31.6,52.957a.866.866,0,0,1-.1-1.022l4.051-6.778a.866.866,0,1,1,1.48.866l-3.714,6.242,4.19,4.718h3.013a.866.866,0,0,1,0,1.731Z" transform="translate(-2.943 -5.258)" fill="#40321d"/><path d="M33.456,57.878a.866.866,0,0,1-.338-1.662l1.273-.537a.865.865,0,1,1,.675,1.593l-1.255.537a.866.866,0,0,1-.355.069Z" transform="translate(-3.107 -6.734)" fill="#40321d"/><path d="M18.269,42.92l-7.1,7.1a5.021,5.021,0,0,0,7.1-7.1Z" transform="translate(-0.23 -5.03)" fill="#40321d"/><path d="M29.545,48.7l-6.752,6.744a.467.467,0,0,1-.693,0,5.021,5.021,0,0,1,7.445-6.726Z" transform="translate(-1.542 -5.606)" fill="#40321d"/><path d="M14.585,52.22a5.852,5.852,0,0,1-4.164-1.731.866.866,0,0,1,0-1.221l7.1-7.107a.866.866,0,0,1,.615-.251h0a.866.866,0,0,1,.615.251,5.887,5.887,0,0,1-4.164,10.051Zm-2.268-2.4a4.155,4.155,0,0,0,5.748-5.748Z" transform="translate(-0.095 -4.894)" fill="#40321d"/><path d="M22.45,49.693l-6.008,6.06a4.242,4.242,0,0,1-5.982,0h0l9-9Z" transform="translate(-0.134 -5.544)" fill="#5e4a2b"/><path d="M18.7,51.02l2.987-2.987L20.314,46.7,16.8,50.215h0a1.091,1.091,0,0,0,1.9.805Z" transform="translate(-0.985 -5.538)" fill="#725a30"/><path d="M15.624,51.13,10.43,56.324h0a4.251,4.251,0,0,0,1.662,1l1.948-1.982a5.445,5.445,0,0,0,1.584-3.835Z" transform="translate(-0.13 -6.133)" fill="#725a30"/><path d="M13.321,57.665a5.047,5.047,0,0,1-3.6-1.489.847.847,0,0,1,0-1.221l9-8.994a.866.866,0,0,1,1.221,0l2.969,2.978a.866.866,0,0,1,0,1.229l-6,6.008a5.047,5.047,0,0,1-3.593,1.489Zm-1.662-2.182a3.463,3.463,0,0,0,4.06-.537l5.4-5.4-1.731-1.731Z" transform="translate(0 -5.404)" fill="#40321d"/><path d="M42.843,15.26,15.73,42.373A19.173,19.173,0,1,0,42.845,15.258Z" transform="translate(-0.842 -1.314)" fill="#725a30"/><path d="M47.873,25.589A19.158,19.158,0,0,1,18.085,41.4L15.73,43.759A19.158,19.158,0,0,0,47.873,25.58Z" transform="translate(-0.842 -2.701)" fill="#5e4a2b"/><path d="M29.15,48.714a19.98,19.98,0,0,1-14.189-5.861.867.867,0,0,1,0-1.221L42.092,14.511a.866.866,0,0,1,.615-.251h0a.866.866,0,0,1,.615.251,20.032,20.032,0,0,1-14.171,34.2ZM16.831,42.23A18.309,18.309,0,0,0,42.663,16.364Z" transform="translate(-0.705 -1.18)" fill="#40321d"/><path d="M48.316,10.9a5.359,5.359,0,0,0-5.93-4.389,5.523,5.523,0,0,0-4.657,4.6L35.08,26.052h0a2.242,2.242,0,0,0,3.168,0h0a2.233,2.233,0,0,0,3.16,0h0a2.233,2.233,0,0,0,3.16,0h0a2.242,2.242,0,0,0,3.168,0h0a2.233,2.233,0,0,0,3.16,0h0Z" transform="translate(-3.441 -0.134)" fill="#e2dcd3"/><path d="M42.89,16.19a1.2,1.2,0,0,0,2.407,0Z" transform="translate(-4.49 -1.44)" fill="#041256"/><path d="M51.43,28.572l-.32-1.809H48.677a2.64,2.64,0,0,1-1.861-.77h0a2.6,2.6,0,0,0-1.853-.762H38.28L40.1,29.2a2.216,2.216,0,0,0,1.731-.632h0a2.233,2.233,0,0,0,3.16,0h0a2.242,2.242,0,0,0,3.168,0h0a2.233,2.233,0,0,0,3.16,0Z" transform="translate(-3.871 -2.654)" fill="#d1cbc1"/><path d="M39.7,12.253A5.532,5.532,0,0,1,44.36,7.648a5.3,5.3,0,0,1,2.285.225,5.35,5.35,0,0,0-4.259-1.359,5.523,5.523,0,0,0-4.657,4.6L35.08,26.052h0a2.242,2.242,0,0,0,2.069.6Z" transform="translate(-3.441 -0.135)" fill="#f4f0ea"/><path d="M49.282,27.433A3.073,3.073,0,0,1,47.689,27,3.177,3.177,0,0,1,44.5,27a3.194,3.194,0,0,1-3.194,0,3.177,3.177,0,0,1-3.186,0,3.168,3.168,0,0,1-3.783-.467.866.866,0,0,1-.242-.77l2.6-14.933a6.406,6.406,0,0,1,5.454-5.307,6.242,6.242,0,0,1,6.925,5.09h0l2.675,15.149a.866.866,0,0,1-.234.77A3.108,3.108,0,0,1,49.282,27.433Zm-1.6-2.381a.909.909,0,0,1,.632.251,1.394,1.394,0,0,0,1.61.242l-2.6-14.63a4.51,4.51,0,0,0-4.978-3.679,4.675,4.675,0,0,0-3.9,3.887L35.89,25.546a1.394,1.394,0,0,0,1.584-.242.926.926,0,0,1,1.247,0,1.4,1.4,0,0,0,1.939,0,.944.944,0,0,1,1.255,0,1.4,1.4,0,0,0,1.939,0,.926.926,0,0,1,1.247,0,1.4,1.4,0,0,0,1.939,0A.866.866,0,0,1,47.68,25.052Z" transform="translate(-3.307)" fill="#40321d"/><path d="M28.969,28.992,16.59,41.372a17.244,17.244,0,0,0,24.386,0c.234-.242.467-.485.693-.736C48.975,32.412,36.752,21.21,28.969,28.992Z" transform="translate(-0.958 -2.806)" fill="#aa9b87"/><path d="M29.223,28.993,18.48,39.736a17.227,17.227,0,0,0,22.646-1.5c.242-.242.476-.485.7-.736a8.657,8.657,0,0,0,2.121-4.19C42.555,27.538,34.764,23.452,29.223,28.993Z" transform="translate(-1.212 -2.806)" fill="#c1b5a3"/><path d="M29.374,28.993,19.6,38.766a17.236,17.236,0,0,0,21.642-2.207c.242-.242.476-.485.7-.736a8.986,8.986,0,0,0,1.9-3.272C42.013,27.192,34.663,23.7,29.374,28.993Z" transform="translate(-1.362 -2.807)" fill="#d1cbc1"/><path d="M16.59,41.544a15.583,15.583,0,0,0,1.221,1.125l.173.147a11.053,11.053,0,0,0,1.2.866l.251.164c.407.26.822.511,1.247.736l.26.13a14.169,14.169,0,0,0,1.324.615l.173.069c.416.164.866.312,1.264.441l.277.087a13.255,13.255,0,0,0,1.316.32l.381.078c.433.078.866.139,1.29.182l.424.043c.433,0,.866.061,1.3.061h.372a7.915,7.915,0,0,0,1.108-.052h.381a17.531,17.531,0,0,1-2.831-.528,5.765,5.765,0,0,1-2.407-9.635l6.536-6.536a1.258,1.258,0,1,0-1.645-1.9c-.2.173-.39.346-.58.537Z" transform="translate(-0.958 -2.978)" fill="#c1b5a3"/><path d="M25.553,36.345l6.536-6.536a1.255,1.255,0,0,0-.952-2.13,9.618,9.618,0,0,0-1.913,1.489L18.48,39.912a17.115,17.115,0,0,0,5.861,2.9,5.826,5.826,0,0,1,1.212-6.467Z" transform="translate(-1.212 -2.983)" fill="#d1cbc1"/><path d="M25.7,36.345l6.536-6.536a1.255,1.255,0,0,0-.952-2.13,9.618,9.618,0,0,0-1.913,1.489L19.6,38.942a17.1,17.1,0,0,0,4.432,2.078A5.783,5.783,0,0,1,25.7,36.345Z" transform="translate(-1.362 -2.983)" fill="#e2dcd3"/><path d="M35.491,26.519a5,5,0,0,0-4.051,4.848h0A10.388,10.388,0,0,0,41.828,41.755h.667c.216,0,.3-.251.45-.4s.467-.485.693-.736C49.654,33.9,42.538,25.186,35.491,26.519Z" transform="translate(-2.952 -2.809)" fill="#93826f"/><path d="M43.574,37.5a8.657,8.657,0,0,0,2.121-4.19A8.57,8.57,0,0,0,44.63,30.8l-.043-.069-.26-.39-.078-.113-.268-.338c0-.052-.078-.1-.113-.139l-.26-.3-.164-.182-.26-.242c-.139-.139-.286-.268-.433-.4l-.069-.061-.364-.338-.087-.061-.441-.312-.121-.078c-.156-.1-.32-.2-.485-.294h0a8.466,8.466,0,0,0-5.653-.978,5,5,0,0,0-4.051,4.848h0a10.388,10.388,0,0,0,7.2,9.955,16.941,16.941,0,0,0,4.19-3.073C43.115,38,43.348,37.755,43.574,37.5Z" transform="translate(-2.958 -2.808)" fill="#aa9b87"/><path d="M43.574,35.824a8.986,8.986,0,0,0,1.9-3.272,9.081,9.081,0,0,0-1.2-2.294l-.061-.078-.26-.329c0-.052-.078-.1-.113-.139s-.164-.2-.251-.286l-.164-.173-.234-.242-.364-.364-.13-.113-.372-.294-.113-.087-.407-.277-.13-.1c-.156-.1-.32-.2-.485-.286h0a8.371,8.371,0,0,0-5.653-.987,5,5,0,0,0-4.051,4.848h0a10.388,10.388,0,0,0,5.35,9.1,17.184,17.184,0,0,0,6.06-3.93C43.115,36.318,43.349,36.076,43.574,35.824Z" transform="translate(-2.958 -2.808)" fill="#c1b5a3"/><path d="M31.44,31.545h0v.606l2.355-2.363a1.247,1.247,0,0,0-.537-2.078,4.952,4.952,0,0,0-1.818,3.835Z" transform="translate(-2.952 -2.987)" fill="#d1cbc1"/><path d="M40.833,42.106a.866.866,0,0,1-.606-1.48c.225-.225.45-.459.658-.693,3.35-3.766,2.147-7.956-.528-10.553a7.494,7.494,0,0,0-10.908.069L17.07,41.855a.866.866,0,0,1-1.229-1.221L28.22,28.255a9.3,9.3,0,0,1,13.323-.1,8.98,8.98,0,0,1,.641,12.933c-.242.26-.485.519-.736.77A.866.866,0,0,1,40.833,42.106Z" transform="translate(-0.823 -2.675)" fill="#40321d"/><path d="M16.59,43.564A17.357,17.357,0,0,0,22.269,47.1a16.794,16.794,0,0,0,6.51,1.047,16.621,16.621,0,0,0,11.583-5.194.867.867,0,1,1,1.264,1.186h0a17.989,17.989,0,0,1-5.956,3.722,17.7,17.7,0,0,1-6.891,1.151A17.435,17.435,0,0,1,16.59,43.564Z" transform="translate(-0.958 -4.998)" fill="#40321d"/><path d="M41.229,13.827a.519.519,0,0,0-.372.641.528.528,0,0,0,.632.381.537.537,0,0,0,.381-.641A.528.528,0,0,0,41.229,13.827Z" transform="translate(-4.215 -1.12)" fill="#041256"/><path d="M46.938,13.827a.511.511,0,1,0,.641.381A.528.528,0,0,0,46.938,13.827Z" transform="translate(-4.981 -1.12)" fill="#041256"/><path d="M44.66,16.453l.935-.268v-.078L44.2,15.293a.338.338,0,0,0-.338,0l-1.394.814v.078l.935.268a.589.589,0,0,1,.346.26l.208.312a.078.078,0,0,0,.13,0l.208-.312A.641.641,0,0,1,44.66,16.453Z" transform="translate(-4.434 -1.313)" fill="#c18627"/><path d="M44.444,15.292a.3.3,0,0,0-.164-.052v1.818a.078.078,0,0,0,.061,0l.208-.312a.641.641,0,0,1,.346-.26l.935-.268V16.14Z" transform="translate(-4.677 -1.312)" fill="#9e6b20"/><path d="M42.467,16.236c-.061.1.1.069.156.1h.242l.485.1c.364,0,.649.528.684.606,0-.078.312-.6.675-.606l.485-.1h.242c.061,0,.216,0,.156-.1s0,.1,0,.1l-.113.043-.234.1-.459.164a.58.58,0,0,0-.355.225l-.13.2-.069.1a.208.208,0,0,1-.173.13.225.225,0,0,1-.182-.13l-.087-.1-.13-.173a.589.589,0,0,0-.355-.225l-.467-.164-.225-.1-.121-.043S42.415,16.253,42.467,16.236Z" transform="translate(-4.431 -1.442)" fill="#041256"/></g></svg>