<svg xmlns="http://www.w3.org/2000/svg" width="37.852" height="48" viewBox="0 0 37.852 48"><g transform="translate(-8.272 -3.758)"><path d="M42.122,7.448h0a.42.42,0,0,1,.42-.428h2.242a.705.705,0,0,1,.7.705h0a.7.7,0,0,1-.7.7H43.667a.42.42,0,0,0-.42.42h0a.42.42,0,0,1-.428.42H40.577a.7.7,0,0,1-.7-.7h0a.7.7,0,0,1,.7-.722H41.7A.42.42,0,0,0,42.122,7.448Z" transform="translate(-6.071 -0.523)" fill="#d9ebf4"/><path d="M47.008,11.244h0A.244.244,0,0,0,46.765,11h-1.3a.411.411,0,0,0-.4.411h0a.4.4,0,0,0,.4.4h.655a.244.244,0,0,1,.244.244h0a.244.244,0,0,0,.244.244h1.3a.395.395,0,0,0,.4-.4h0a.4.4,0,0,0-.4-.411h-.655a.244.244,0,0,1-.244-.244Z" transform="translate(-6.902 -1.161)" fill="#d9ebf4"/><circle cx="0.588" cy="0.588" r="0.588" transform="translate(36.756 16.137)" fill="#d9ebf4"/><path d="M43.665,12.941a.563.563,0,1,1-.162-.4A.563.563,0,0,1,43.665,12.941Z" transform="translate(-6.498 -1.38)" fill="#d9ebf4"/><path d="M40.654,14.247a.907.907,0,1,1-.907-.907A.907.907,0,0,1,40.654,14.247Z" transform="translate(-5.905 -1.536)" fill="#d9ebf4"/><path d="M39.468,5.994a.294.294,0,1,1-.294-.294A.294.294,0,0,1,39.468,5.994Z" transform="translate(-5.911 -0.311)" fill="#d9ebf4"/><path d="M50.5,14.351a.361.361,0,1,1-.361-.361.353.353,0,0,1,.361.361Z" transform="translate(-7.658 -1.64)" fill="#d9ebf4"/><path d="M47.758,19.88a.949.949,0,1,1-.94-.94A.949.949,0,0,1,47.758,19.88Z" transform="translate(-7.03 -2.433)" fill="#d9ebf4"/><path d="M51.615,11.327A.327.327,0,1,1,51.287,11a.327.327,0,0,1,.327.327Z" transform="translate(-7.847 -1.161)" fill="#d9ebf4"/><path d="M50.987,58.341H47.678a.84.84,0,0,1-.621-.286L42.329,52.74a.84.84,0,0,1-.092-.991l3.921-6.575a.84.84,0,0,1,1.444.84l-3.611,6.054,4.064,4.576h2.931a.84.84,0,1,1,0,1.679Z" transform="translate(-6.43 -6.583)" fill="#40121f"/><path d="M44.178,57.808a.84.84,0,0,1-.336-1.612l1.234-.521a.84.84,0,1,1,.655,1.545l-1.226.521A.764.764,0,0,1,44.178,57.808Z" transform="translate(-6.625 -8.309)" fill="#40121f"/><path d="M42.967,58.341h-3.3a.84.84,0,0,1-.63-.286L34.309,52.74a.84.84,0,0,1-.092-.991l3.921-6.575a.84.84,0,0,1,1.444.84l-3.611,6.054,4.073,4.576h2.922a.84.84,0,0,1,0,1.679Z" transform="translate(-5.145 -6.583)" fill="#40121f"/><path d="M36.16,57.81a.84.84,0,0,1-.327-1.612l1.226-.521a.841.841,0,0,1,.663,1.545l-1.234.521a.764.764,0,0,1-.327.067Z" transform="translate(-5.341 -8.311)" fill="#40121f"/><path d="M18.056,42.92,11.17,49.806a4.87,4.87,0,0,0,6.886-6.886Z" transform="translate(-1.47 -6.277)" fill="#a52858"/><path d="M14.452,51.91a5.676,5.676,0,0,1-4.039-1.679.84.84,0,0,1,0-1.184L17.3,42.153a.84.84,0,0,1,1.192,0A5.71,5.71,0,0,1,14.452,51.9Zm-2.2-2.326a4.031,4.031,0,0,0,5.584-5.576Z" transform="translate(-1.309 -6.114)" fill="#40121f"/><path d="M22.09,49.605l-5.828,5.878a4.115,4.115,0,0,1-5.8,0h0l8.733-8.733Z" transform="translate(-1.356 -6.891)" fill="#3ac181"/><path d="M18.647,50.89l2.9-2.9L20.209,46.7,16.8,50.109h0a1.058,1.058,0,0,0,1.847.781Z" transform="translate(-2.372 -6.883)" fill="#82e8b5"/><path d="M15.468,51.13,10.43,56.168h0a4.123,4.123,0,0,0,1.612.974l1.889-1.923a5.282,5.282,0,0,0,1.537-3.72Z" transform="translate(-1.351 -7.593)" fill="#82e8b5"/><path d="M13.207,57.315a4.87,4.87,0,0,1-3.493-1.453.84.84,0,0,1,0-1.184l8.733-8.725a.84.84,0,0,1,1.184,0l2.88,2.889a.84.84,0,0,1,0,1.192l-5.819,5.828a4.862,4.862,0,0,1-3.485,1.453ZM11.594,55.19a3.359,3.359,0,0,0,3.938-.521l5.24-5.24L19.093,47.75Z" transform="translate(-1.197 -6.724)" fill="#40121f"/><path d="M37.867,4.828a3.888,3.888,0,0,0-4.249,2.225L31.989,10.58a.663.663,0,0,0,.277.84l6.441,3.619,2.25-9.64Z" transform="translate(-4.798 -0.161)" fill="#041256"/><path d="M34.928,8.119a3.115,3.115,0,0,1,3.359-1.78l2.318.428L40.924,5.4l-3.057-.571a3.888,3.888,0,0,0-4.249,2.225L31.989,10.58a.663.663,0,0,0,.277.84l.915.512Z" transform="translate(-4.798 -0.161)" fill="#1b2b66"/><path d="M38.545,15.717a.84.84,0,0,1-.411-.109l-6.441-3.6a1.5,1.5,0,0,1-.638-1.931l1.612-3.535a4.736,4.736,0,0,1,5.164-2.7l3.115.571a.841.841,0,0,1-.3,1.654l-3.115-.571A3.031,3.031,0,0,0,34.17,7.236l-1.528,3.359,6.3,3.527a.84.84,0,0,1-.395,1.6Z" transform="translate(-4.636 0)" fill="#041256"/><path d="M42.03,15.26l-26.3,26.3a18.6,18.6,0,1,0,26.3-26.3Z" transform="translate(-2.201 -1.843)" fill="#cc3a5d"/><path d="M28.716,47.68a19.381,19.381,0,0,1-13.763-5.685.84.84,0,0,1,0-1.184L41.27,14.5a.84.84,0,0,1,1.192,0A19.431,19.431,0,0,1,28.716,47.68ZM16.767,41.39A17.76,17.76,0,0,0,41.824,16.3Z" transform="translate(-2.037 -1.682)" fill="#40121f"/><path d="M51.317,26.765,39.67,24.649V5l4.593.789a8.506,8.506,0,0,1,7.054,8.4Z" transform="translate(-6.038 -0.199)" fill="#cc3a5d"/><path d="M39.67,5V21.2h.092a8.811,8.811,0,0,0,8.523-9.077A9.422,9.422,0,0,0,46.43,6.47a8.573,8.573,0,0,0-2.166-.68Z" transform="translate(-6.038 -0.199)" fill="#af3155"/><path d="M44.263,5.789,39.67,5V7.091l3.745.638a8.5,8.5,0,0,1,7.045,8.4V26.614l.84.151V14.17a8.507,8.507,0,0,0-7.039-8.381Z" transform="translate(-6.038 -0.199)" fill="#ea658b"/><path d="M44.263,5.789,39.67,5V15.077a8.229,8.229,0,0,0,1.377.126,7.5,7.5,0,0,0,7.5-7.264,8.464,8.464,0,0,0-4.283-2.15Z" transform="translate(-6.038 -0.199)" fill="#f4eab8"/><path d="M48.092,10.223A7.39,7.39,0,0,0,48.546,7.9,8.8,8.8,0,0,0,46.665,6.57h-.059a7.281,7.281,0,0,0-1.024-.42L45.4,6.092a7.692,7.692,0,0,0-1.092-.277L39.67,5V7.091l3.745.638a8.5,8.5,0,0,1,4.677,2.494Z" transform="translate(-6.038 -0.199)" fill="#fffae6"/><path d="M51.157,27.443a.84.84,0,0,1-.84-.84v-12.6A7.633,7.633,0,0,0,43.96,6.45l-3.611-.621v14.4a.84.84,0,0,1-1.679,0V4.837A.84.84,0,0,1,39.652,4l4.593.84A9.3,9.3,0,0,1,52,14.074v12.6a.84.84,0,0,1-.84.773Z" transform="translate(-5.878 -0.036)" fill="#40121f"/><path d="M28.6,28.914,16.59,40.922a16.727,16.727,0,0,0,23.655,0c.227-.235.453-.47.672-.714C48,32.231,36.147,21.365,28.6,28.914Z" transform="translate(-2.339 -3.624)" fill="#f74160"/><path d="M28.9,28.914,18.48,39.335a16.71,16.71,0,0,0,21.967-1.453c.235-.235.462-.47.68-.714A8.4,8.4,0,0,0,43.184,33.1C41.833,27.5,34.275,23.54,28.9,28.914Z" transform="translate(-2.641 -3.624)" fill="#2baaaa"/><path d="M29.08,28.914l-9.48,9.48a16.719,16.719,0,0,0,20.993-2.141c.235-.235.462-.47.68-.714a8.716,8.716,0,0,0,1.839-3.174C41.34,27.168,34.211,23.783,29.08,28.914Z" transform="translate(-2.821 -3.624)" fill="#eaae57"/><path d="M16.59,41.126a15.115,15.115,0,0,0,1.184,1.092l.168.143a10.722,10.722,0,0,0,1.167.84l.244.16c.395.252.8.5,1.209.714l.252.126a13.743,13.743,0,0,0,1.285.6l.168.067c.4.16.84.3,1.226.428l.269.084a12.857,12.857,0,0,0,1.276.311l.369.076c.42.076.84.134,1.251.176l.411.042c.42,0,.84.059,1.26.059h.361a7.678,7.678,0,0,0,1.075-.05h.369a17,17,0,0,1-2.746-.512,5.593,5.593,0,0,1-2.334-9.346l6.34-6.34a1.223,1.223,0,0,0-1.6-1.847c-.185.168-.369.336-.554.521Z" transform="translate(-2.339 -3.828)" fill="#ff7b88"/><path d="M25.34,36.085l6.34-6.34a1.218,1.218,0,0,0-.924-2.066A9.329,9.329,0,0,0,28.9,29.124L18.48,39.545a16.6,16.6,0,0,0,5.685,2.813,5.651,5.651,0,0,1,1.176-6.273Z" transform="translate(-2.641 -3.834)" fill="#3ececa"/><path d="M25.52,36.085l6.34-6.34a1.218,1.218,0,0,0-.924-2.066,9.329,9.329,0,0,0-1.856,1.444L19.6,38.6a16.584,16.584,0,0,0,4.3,2.015,5.609,5.609,0,0,1,1.621-4.534Z" transform="translate(-2.821 -3.834)" fill="#ffca85"/><path d="M35.37,26.515a4.845,4.845,0,0,0-3.93,4.7h0A10.077,10.077,0,0,0,41.517,41.294h.647c.21,0,.294-.244.437-.386s.453-.47.672-.714C49.108,33.678,42.205,25.222,35.37,26.515Z" transform="translate(-4.719 -3.626)" fill="#b24634"/><path d="M43.211,37.171a8.4,8.4,0,0,0,2.057-4.064,8.313,8.313,0,0,0-1.033-2.435l-.042-.067-.252-.378-.076-.109-.26-.327c0-.05-.076-.092-.109-.134l-.252-.294-.16-.176-.252-.235c-.134-.134-.277-.26-.42-.386l-.067-.059-.353-.327-.084-.059-.428-.3-.118-.076c-.151-.1-.311-.193-.47-.286h0a8.212,8.212,0,0,0-5.483-.949,4.845,4.845,0,0,0-3.93,4.7h0a10.077,10.077,0,0,0,6.986,9.657,16.433,16.433,0,0,0,4.064-2.981C42.766,37.649,42.992,37.414,43.211,37.171Z" transform="translate(-4.725 -3.626)" fill="#d6573a"/><path d="M43.211,35.541a8.716,8.716,0,0,0,1.839-3.174,8.809,8.809,0,0,0-1.167-2.225l-.059-.076-.252-.319c0-.05-.076-.092-.109-.134s-.16-.193-.244-.277l-.16-.168-.227-.235-.353-.353-.126-.109-.361-.286-.109-.084-.395-.269-.126-.092c-.151-.092-.311-.193-.47-.277h0a8.12,8.12,0,0,0-5.483-.957,4.845,4.845,0,0,0-3.93,4.7h0a10.077,10.077,0,0,0,5.189,8.825,16.668,16.668,0,0,0,5.878-3.812C42.766,36.02,42.993,35.785,43.211,35.541Z" transform="translate(-4.725 -3.626)" fill="#ea6a47"/><path d="M31.44,31.43h0v.588l2.284-2.292A1.209,1.209,0,0,0,33.2,27.71a4.8,4.8,0,0,0-1.763,3.72Z" transform="translate(-4.719 -3.839)" fill="#eaae57"/><path d="M40.076,41.6a.84.84,0,0,1-.588-1.436c.218-.218.437-.445.638-.672,3.25-3.653,2.083-7.717-.512-10.236a7.269,7.269,0,0,0-10.58.067L17.026,41.361a.84.84,0,0,1-1.192-1.184L27.841,28.169a9.023,9.023,0,0,1,12.923-.1,8.711,8.711,0,0,1,.621,12.545c-.235.252-.47.5-.714.747A.84.84,0,0,1,40.076,41.6Z" transform="translate(-2.178 -3.467)" fill="#40121f"/><path d="M16.59,43.537A16.836,16.836,0,0,0,22.1,46.972a16.291,16.291,0,0,0,6.315,1.016,16.123,16.123,0,0,0,11.235-5.038.841.841,0,0,1,1.226,1.15h0A17.449,17.449,0,0,1,35.1,47.711a17.172,17.172,0,0,1-6.684,1.117,16.912,16.912,0,0,1-11.823-5.29Z" transform="translate(-2.339 -6.239)" fill="#40121f"/><path d="M32.26,36.55a9.909,9.909,0,0,0,3.98,4.316A9.413,9.413,0,0,0,41.7,42.134a.842.842,0,1,1,.126,1.679H41.7a10.748,10.748,0,0,1-5.937-2.25,10.387,10.387,0,0,1-3.5-5.013Z" transform="translate(-4.85 -5.256)" fill="#40121f"/><path d="M43.586,10.3a.512.512,0,0,0-.369.621.5.5,0,1,0,.369-.621Z" transform="translate(-6.604 -1.046)" fill="#041256"/><path d="M44.633,11.917c0,.244-.428,0-.966,0s-.957.21-.957,0,.428-.437.957-.437S44.633,11.69,44.633,11.917Z" transform="translate(-6.525 -1.238)" fill="#fffae6"/></g></svg>