<svg xmlns="http://www.w3.org/2000/svg" width="50" height="43.309" viewBox="0 0 50 43.309"><path d="M41.8,14.962h0a.462.462,0,0,1,.462-.462H44.73a.777.777,0,0,1,.767.777h0a.767.767,0,0,1-.767.767H43.5a.472.472,0,0,0-.472.462h0a.462.462,0,0,1-.462.462H40.1a.767.767,0,0,1-.767-.767h0a.777.777,0,0,1,.767-.777h1.239A.462.462,0,0,0,41.8,14.962Z" transform="translate(-7.607 -12.226)" fill="#d9ebf4"/><path d="M46.656,18.718h0a.268.268,0,0,0-.268-.268H44.964a.453.453,0,0,0-.444.453h0a.453.453,0,0,0,.444.444h.721a.268.268,0,0,1,.268.268h0a.268.268,0,0,0,.268.268h1.424a.444.444,0,0,0,.444-.444h0a.444.444,0,0,0-.444-.481h-.721A.268.268,0,0,1,46.656,18.718Z" transform="translate(-7.998 -12.524)" fill="#d9ebf4"/><path d="M44.124,26.6a.647.647,0,1,1-.638-.647A.647.647,0,0,1,44.124,26.6Z" transform="translate(-7.871 -13.089)" fill="#d9ebf4"/><path d="M43.229,20.439a.619.619,0,1,1-.619-.619.619.619,0,0,1,.619.619Z" transform="translate(-7.807 -12.627)" fill="#d9ebf4"/><circle cx="0.999" cy="0.999" r="0.999" transform="translate(30.725 8.089)" fill="#d9ebf4"/><path d="M38.947,13.474a.324.324,0,1,1-.324-.324A.324.324,0,0,1,38.947,13.474Z" transform="translate(-7.529 -12.125)" fill="#d9ebf4"/><circle cx="0.398" cy="0.398" r="0.398" transform="translate(40.877 8.69)" fill="#d9ebf4"/><path d="M47.4,27.426a1.045,1.045,0,1,1-1.036-1.036A1.045,1.045,0,0,1,47.4,27.426Z" transform="translate(-8.058 -13.123)" fill="#d9ebf4"/><path d="M51.132,18.806a.361.361,0,1,1-.159-.36A.361.361,0,0,1,51.132,18.806Z" transform="translate(-8.443 -12.519)" fill="#d9ebf4"/><path d="M9.15,27.552a1.322,1.322,0,1,0,1.322-1.322A1.322,1.322,0,0,0,9.15,27.552Z" transform="translate(-5.332 -13.111)" fill="#d9ebf4"/><path d="M23.475,39.419H15.228a9.246,9.246,0,0,1,0-18.409,1.655,1.655,0,0,1,0,3.31,5.9,5.9,0,0,0,0,11.789h8.248a1.655,1.655,0,1,1,0,3.31Z" transform="translate(-5.159 -12.717)" fill="#f2d68b"/><path d="M16.3,37.639a5.9,5.9,0,0,1-5.2-3.125,5.89,5.89,0,0,1,4.142-10.078A1.655,1.655,0,0,0,16.9,22.78c0-.046,0-.083,0-.129a1.563,1.563,0,0,0-.592-.111A9.246,9.246,0,0,0,7.06,31.786,9.07,9.07,0,0,0,8.4,36.548a9.154,9.154,0,0,0,6.805,3.033h8.248a1.655,1.655,0,0,0,1.655-1.655V37.8a1.563,1.563,0,0,0-.592-.111Z" transform="translate(-5.174 -12.832)" fill="#dd8b31"/><path d="M23.4,40.268H15.156a10.171,10.171,0,0,1,0-20.258,2.58,2.58,0,1,1,0,5.159,4.974,4.974,0,0,0,0,9.94H23.4a2.58,2.58,0,1,1,0,5.159ZM15.156,21.85a8.322,8.322,0,0,0,0,16.56H23.4a.73.73,0,1,0,0-1.461H15.156a6.824,6.824,0,0,1,0-13.638.73.73,0,1,0,0-1.461Z" transform="translate(-5.087 -12.642)" fill="#aa681f"/><path d="M37.553,19.734a6.731,6.731,0,0,0,5.89,3.31,6.74,6.74,0,0,0-5.085-10,1.2,1.2,0,0,0-1.257.74,6.74,6.74,0,0,0,.453,5.945Z" transform="translate(-7.402 -12.116)" fill="#f7b45c"/><path d="M38.8,21.456a6.74,6.74,0,0,0,5.862,3.31A6.731,6.731,0,0,0,39.618,14.8a1.2,1.2,0,0,0-1.257.74A6.713,6.713,0,0,0,38.8,21.456Z" transform="translate(-7.497 -12.248)" fill="#dd8b31"/><path d="M43.294,23.894a7.73,7.73,0,0,1-6.62-3.763h0a7.674,7.674,0,0,1-.509-6.759A2.117,2.117,0,0,1,38.4,12.059a7.591,7.591,0,0,1,5.659,3.7,7.693,7.693,0,0,1,.083,7.656.925.925,0,0,1-.8.472Zm-5.021-4.706a5.844,5.844,0,0,0,4.5,2.839,5.816,5.816,0,0,0-4.623-8.137.277.277,0,0,0-.287.166,5.8,5.8,0,0,0,.388,5.132Z" transform="translate(-7.326 -12.041)" fill="#aa681f"/><path d="M56.451,19.734a6.731,6.731,0,0,1-5.862,3.31,6.731,6.731,0,0,1,5.048-10,1.2,1.2,0,0,1,1.257.74,6.713,6.713,0,0,1-.444,5.945Z" transform="translate(-8.39 -12.116)" fill="#f7b45c"/><path d="M55.232,21.456a6.74,6.74,0,0,1-5.862,3.31A6.731,6.731,0,0,1,54.419,14.8a1.2,1.2,0,0,1,1.257.74A6.768,6.768,0,0,1,55.232,21.456Z" transform="translate(-8.299 -12.248)" fill="#dd8b31"/><path d="M50.585,23.894h0a.925.925,0,0,1-.8-.472,7.721,7.721,0,0,1,.074-7.656,7.628,7.628,0,0,1,5.668-3.7,2.1,2.1,0,0,1,2.228,1.313,7.61,7.61,0,0,1-.509,6.759,7.7,7.7,0,0,1-6.666,3.754Zm5.159-10.041h0a5.816,5.816,0,0,0-4.623,8.137,5.844,5.844,0,0,0,4.512-2.839h0a5.8,5.8,0,0,0,.388-5.132A.287.287,0,0,0,55.745,13.853Z" transform="translate(-8.322 -12.042)" fill="#aa681f"/><path d="M19.857,40.256v3.366a1.96,1.96,0,0,1-1.627,1.932l-2.6.435A3.236,3.236,0,0,0,13,49.688L14.55,54.7a1.581,1.581,0,0,0,1.563,1.331h3.421a1.211,1.211,0,0,0,1.211-1.2h0a1.6,1.6,0,0,0-1.6-1.6h0a.582.582,0,0,1-.573-.527l-.546-1.461a.749.749,0,0,1,.73-.814h1.674A11.1,11.1,0,0,0,30.906,39.406V33.59l-6.361,1.1A5.649,5.649,0,0,0,19.857,40.256Z" transform="translate(-5.619 -13.665)" fill="#aa681f"/><path d="M51.892,42.337,51.624,31.75l-23.6,2.432-.518,9.986,15.552,2.339a6.471,6.471,0,0,0,.74,0,2.376,2.376,0,0,1,2.293,1.849l2.589,5.973a1.849,1.849,0,0,0,1.849,1.424H52.8a1.442,1.442,0,0,0,1.442-1.442v-.564a1.22,1.22,0,0,0-.925-1.184h0a1.137,1.137,0,0,1-.925-1.073Z" transform="translate(-6.716 -13.527)" fill="#915b1e"/><path d="M43.461,39,43.35,29.75,19.708,34.2,18.58,46.43l16.162.092a4.837,4.837,0,0,0,.73,0,2.386,2.386,0,0,1,2.3,1.849l2.58,5.973a1.849,1.849,0,0,0,1.8,1.415h2.265a1.442,1.442,0,0,0,1.442-1.442v-.564a1.193,1.193,0,0,0-.925-1.174h0a1.147,1.147,0,0,1-.925-1.082Z" transform="translate(-6.043 -13.376)" fill="#f7b45c"/><path d="M23.14,44.889l-2.08,2.7,13.869.074a4.835,4.835,0,0,0,.73,0,2.386,2.386,0,0,1,2.3,1.849l.647,2.663h.925l-1.322-4.688a3.6,3.6,0,0,0-3.458-2.607Z" transform="translate(-6.23 -14.517)" fill="#dd8b31"/><path d="M19.959,36.076,43.4,31.7l-.028-1.8L19.728,34.32l-.518,9.986.324.046Z" transform="translate(-6.09 -13.387)" fill="#f2d68b"/><path d="M44.347,56.611H42.082A2.774,2.774,0,0,1,39.4,54.568l-2.552-5.908-.055-.148a1.452,1.452,0,0,0-1.405-1.1h-.139a5.068,5.068,0,0,1-.647,0L18.5,47.319a.921.921,0,0,1-.915-1.008l1.128-12.27a.925.925,0,0,1,.749-.823L43.108,28.8a.9.9,0,0,1,1.082.888l.111,9.246a.925.925,0,0,1-1.849,0l-.083-8.1L20.483,34.91l-.925,10.531,15.154.083h.139a3.7,3.7,0,0,0,.453,0h.148a3.3,3.3,0,0,1,3.162,2.432l2.515,5.991a.924.924,0,0,1,.046.148.925.925,0,0,0,.925.712h2.265a.518.518,0,0,0,.518-.518v-.564a.268.268,0,0,0-.222-.268,2.053,2.053,0,0,1-1.646-1.96l-.453-9.745a.925.925,0,0,1,1.849,0l.435,9.708a.222.222,0,0,0,.166.213,2.117,2.117,0,0,1,1.7,2.08v.564A2.367,2.367,0,0,1,44.347,56.611Z" transform="translate(-5.967 -13.303)" fill="#aa681f"/><path d="M41.093,21v8.691L30.7,31.661a10.435,10.435,0,0,0,10.171,10.7,10.435,10.435,0,0,0,10.171-10.7A10.457,10.457,0,0,0,41.093,21Z" transform="translate(-6.956 -12.716)" fill="#f7b45c"/><path d="M40.224,32.4a1.341,1.341,0,0,0,.925-2h0L30.7,32.369a11.1,11.1,0,0,0,.157,1.849" transform="translate(-6.956 -13.425)" fill="#f2d68b"/><path d="M51.833,31.708A10.67,10.67,0,0,0,45.065,21.63l-3.125.629v7.212l.351.878.758,2.607c1.433,4.891,8.719,3.976,8.775-1.119A.564.564,0,0,0,51.833,31.708Z" transform="translate(-7.804 -12.764)" fill="#dd8b31"/><path d="M44.613,43.163,44.53,38.41l1.849,4.355a.944.944,0,0,1-1.729.758,1.017,1.017,0,0,1-.037-.361Z" transform="translate(-7.999 -14.029)" fill="#aa681f"/><path d="M12.913,40.154v3.384a1.969,1.969,0,0,1-1.627,1.942l-2.607.5A3.236,3.236,0,0,0,6,49.678L7.55,54.726a1.581,1.581,0,0,0,1.572,1.341h3.44a1.211,1.211,0,0,0,1.211-1.211h0a1.6,1.6,0,0,0-1.609-1.6h0a.583.583,0,0,1-.573-.527l-.546-1.5a.74.74,0,0,1,.73-.814h1.683a11.1,11.1,0,0,0,10.531-11.1V33.46L17.6,34.56a5.686,5.686,0,0,0-4.688,5.594Z" transform="translate(-5.091 -13.656)" fill="#f7b45c"/><path d="M12.913,42.68v1.553a1.969,1.969,0,0,1-1.627,1.942l-2.607.5A3.236,3.236,0,0,0,6,50.373L7.55,55.421a1.581,1.581,0,0,0,1.572,1.341h.49L7.9,50.5a1.849,1.849,0,0,1,1.535-2.145l3.329-.573a2.709,2.709,0,0,0,2.247-2.663v-1.96a.481.481,0,0,0-.49-.481Z" transform="translate(-5.091 -14.351)" fill="#f2d68b"/><path d="M18.2,34.56a5.686,5.686,0,0,0-4.716,5.594v.684h1.609a.481.481,0,0,0,.49-.481h0A4.124,4.124,0,0,1,19,36.289l3.948-.684a1.979,1.979,0,0,0,1.637-1.942v-.2Z" transform="translate(-5.686 -13.411)" fill="#f2d68b"/><path d="M21.421,46.788a10.541,10.541,0,0,0,3.7-7.018,11.484,11.484,0,0,1-2.395,8.322h0a.929.929,0,0,1-1.461-1.147A1.054,1.054,0,0,1,21.421,46.788Z" transform="translate(-6.23 -14.131)" fill="#aa681f"/><path d="M12.519,57.434H9.079A2.515,2.515,0,0,1,6.6,55.391l-1.535-5v-.129A4.189,4.189,0,0,1,8.45,45.525l2.607-.453a1.036,1.036,0,0,0,.86-1.026V40.625a.925.925,0,1,1,1.849,0v3.384a2.885,2.885,0,0,1-2.395,2.848l-2.607.453a2.349,2.349,0,0,0-1.914,2.607L8.386,54.9a.287.287,0,0,1,0,.12.666.666,0,0,0,.666.564h3.44a.287.287,0,0,0,.287-.287.684.684,0,0,0-.684-.675,1.489,1.489,0,0,1-1.47-1.22L10.133,52a1.128,1.128,0,0,1-.055-.24,1.637,1.637,0,0,1,.472-1.267,1.674,1.674,0,0,1,1.22-.555h1.674A10.171,10.171,0,0,0,20.258,46.8.925.925,0,0,1,21.6,48.077a12.02,12.02,0,0,1-8.09,3.7H12.066l.37,1A2.543,2.543,0,0,1,14.7,55.289a2.136,2.136,0,0,1-2.182,2.145Z" transform="translate(-5.02 -14.126)" fill="#aa681f"/><path d="M1.4,0a4.753,4.753,0,0,0,.564,1.969,1.045,1.045,0,1,1-1.9.129l.046-.129A5.825,5.825,0,0,1,1.4,0Z" transform="matrix(0.951, 0.309, -0.309, 0.951, 7.782, 22.761)" fill="#aa681f"/><path d="M18.5,35.4a.928.928,0,1,1-.157-1.849l7.3-1.239a.938.938,0,0,1,.314,1.849l-7.3,1.239Z" transform="translate(-5.961 -13.568)" fill="#aa681f"/><path d="M18.382,35.486a5.159,5.159,0,0,0-4.512,2.709,5.816,5.816,0,0,1,1.4-2.774,6.25,6.25,0,0,1,2.774-1.785H18.1a.94.94,0,0,1,.564,1.794,1.165,1.165,0,0,1-.277.055Z" transform="translate(-5.688 -13.666)" fill="#aa681f"/><path d="M30.617,32.51a.929.929,0,0,1-.176-1.849l9.644-1.849V20.924a.919.919,0,0,1,.98-.925,11.306,11.306,0,0,1,10.79,11.613.925.925,0,1,1-1.849,0,9.542,9.542,0,0,0-8.044-9.69v7.693a.925.925,0,0,1-.749.925l-10.43,1.951Z" transform="translate(-6.873 -12.641)" fill="#aa681f"/><path d="M45.6,42.443a10.078,10.078,0,0,0,4.373-4.253,10.494,10.494,0,0,0,1.211-5.742.928.928,0,1,1,1.849-.148v.148a11.844,11.844,0,0,1-2.284,6.241A10.522,10.522,0,0,1,45.6,42.443Z" transform="translate(-8.08 -13.504)" fill="#aa681f"/><path d="M53.13,20.974H50.116A3.162,3.162,0,0,1,47,17.83V15.75h3.384A4.013,4.013,0,0,1,54.4,19.763h0a1.22,1.22,0,0,1-1.267,1.211Z" transform="translate(-8.185 -12.321)" fill="#d9ebf4"/><path d="M54.313,24.742V20.73a4.752,4.752,0,0,0-2.358-4.124h0a10.42,10.42,0,0,0-10.439,0h0A4.762,4.762,0,0,0,39.14,20.73v4.013a3.477,3.477,0,0,0,1.72,3.014h0a11.743,11.743,0,0,0,11.724,0h0A3.477,3.477,0,0,0,54.313,24.742Z" transform="translate(-7.593 -12.279)" fill="#f7b45c"/><path d="M41.479,26.3V22.276a4.753,4.753,0,0,1,2.386-4.124,10.439,10.439,0,0,1,9.246-.592,4.623,4.623,0,0,0-1.165-.925,10.42,10.42,0,0,0-10.439,0h0A4.762,4.762,0,0,0,39.13,20.76v4.013a3.477,3.477,0,0,0,1.729,2.987,11.1,11.1,0,0,0,1.368.675A3.477,3.477,0,0,1,41.479,26.3Z" transform="translate(-7.592 -12.282)" fill="#f2d68b"/><path d="M52.5,28.606a.925.925,0,0,1-.462-1.729,2.561,2.561,0,0,0,1.276-2.21V20.654a3.856,3.856,0,0,0-1.923-3.329,9.551,9.551,0,0,0-9.514,0,3.856,3.856,0,0,0-1.914,3.329v4.013a2.561,2.561,0,0,0,1.276,2.21.928.928,0,1,1-.925,1.609,4.42,4.42,0,0,1-2.2-3.819V20.654a5.723,5.723,0,0,1,2.839-4.928,11.391,11.391,0,0,1,11.363,0,5.714,5.714,0,0,1,2.848,4.928v4.013a4.438,4.438,0,0,1-2.2,3.819.925.925,0,0,1-.462.12Z" transform="translate(-7.515 -12.204)" fill="#aa681f"/><path d="M46.83,30.26a11.2,11.2,0,0,0,5.862-2.367.934.934,0,1,1,1.165,1.461.666.666,0,0,1-.222.129h0a12.1,12.1,0,0,1-6.805.777Z" transform="translate(-8.172 -13.221)" fill="#aa681f"/><path d="M41.366,27.893A10.984,10.984,0,0,0,46.3,30.26a12.186,12.186,0,0,1-5.862-.758h0a.938.938,0,0,1,.684-1.748A1.184,1.184,0,0,1,41.366,27.893Z" transform="translate(-7.646 -13.221)" fill="#aa681f"/><path d="M48.105,24.193c0,.342-.435.61-.925.61s-.971-.268-.971-.61.435-.333.971-.333S48.105,23.86,48.105,24.193Z" transform="translate(-8.126 -12.932)" fill="#aa681f"/></svg>