<svg xmlns="http://www.w3.org/2000/svg" width="50" height="48.576" viewBox="0 0 50 48.576"><g transform="translate(-1.996 -3.476)"><path d="M47.7,7.885,48.2,5.911a1.361,1.361,0,0,1,.8-.927l1.225-.5a.664.664,0,0,1,.893.766l-.63,2.825a1.276,1.276,0,0,1-1.072.97l-1.863.272" transform="translate(-6.796 -0.143)" fill="#6f3c2b"/><path d="M53.749,11.28,58.615,12.4a1.276,1.276,0,0,1,.97,1.472l-.2,1.1a3.139,3.139,0,0,1-2.85,2.552L53,17.848" transform="translate(-7.61 -1.164)" fill="#6f3c2b"/><path d="M17.722,35.176v3.259a1.889,1.889,0,0,1-1.574,1.872L13.6,40.74a3.139,3.139,0,0,0-2.552,3.59l1.5,9.359a1.548,1.548,0,0,0,1.523,1.3h3.31a1.174,1.174,0,0,0,1.174-1.174h0A1.548,1.548,0,0,0,17,52.269h0a.553.553,0,0,1-.553-.51l-.536-5.9a.732.732,0,0,1,.715-.791h1.617A10.7,10.7,0,0,0,28.45,34.385V28.71l-6.185,1.1A5.479,5.479,0,0,0,17.722,35.176Z" transform="translate(-1.344 -3.765)" fill="#6f3c2b"/><path d="M8.521,34.348A5.7,5.7,0,0,1,3,28.469a2.008,2.008,0,0,1,4.007.128,1.732,1.732,0,0,0,1.948,1.753l12.694-2.033a2.008,2.008,0,0,1,.638,3.956L9.6,34.28A6.644,6.644,0,0,1,8.521,34.348Z" transform="translate(-0.149 -3.456)" fill="#eaad83"/><path d="M23.631,31.349,10.937,33.382a5.768,5.768,0,0,1-1.081.068,5.7,5.7,0,0,1-5.513-5.871A1.948,1.948,0,0,1,4.7,26.55,2,2,0,0,0,3,28.456a5.7,5.7,0,0,0,5.522,5.879A6.645,6.645,0,0,0,9.6,34.267L22.3,32.233a2.008,2.008,0,0,0,1.353-.851Z" transform="translate(-0.149 -3.443)" fill="#ffcdab"/><path d="M8.542,35.035h-.2A6.6,6.6,0,0,1,4.22,33.4,6.526,6.526,0,0,1,2,28.3a2.856,2.856,0,0,1,5.709.187.852.852,0,0,0,.97.859l12.694-2.033a2.856,2.856,0,1,1,.9,5.641l-12.685,2a6.2,6.2,0,0,1-1.046.085ZM4.858,27.216a1.132,1.132,0,0,0-.791.315,1.157,1.157,0,0,0-.366.808,4.867,4.867,0,0,0,4.7,4.994h0a4.764,4.764,0,0,0,.919-.06L22.01,31.24a1.15,1.15,0,1,0-.366-2.272L8.951,31.036a2.552,2.552,0,0,1-2.944-2.552,1.157,1.157,0,0,0-1.115-1.191Z" transform="translate(0 -3.291)" fill="#6f3c2b"/><path d="M49.885,33.234,49.536,23.16,26.913,28.588,26.42,38.27l15.068,2.263a3.889,3.889,0,0,0,.706,0,2.306,2.306,0,0,1,2.229,1.753l2.5,10.278a1.812,1.812,0,0,0,1.753,1.37h2.2a1.387,1.387,0,0,0,1.4-1.4v-.553a1.166,1.166,0,0,0-.927-1.14h0a1.1,1.1,0,0,1-.851-1.038Z" transform="translate(-3.644 -2.937)" fill="#4d3229"/><path d="M41.078,33.633l-.1-8.933L18.064,28.954,17,40.84l15.663.094a5.018,5.018,0,0,0,.715,0,2.331,2.331,0,0,1,2.229,1.761l2.467,10.337a1.8,1.8,0,0,0,1.753,1.378h2.187a1.4,1.4,0,0,0,1.4-1.4v-.545a1.157,1.157,0,0,0-.893-1.183h0a1.089,1.089,0,0,1-.851-1.046Z" transform="translate(-2.238 -3.167)" fill="#995c47"/><path d="M21.586,40.6l-2.016,2.62,13.443.077a5.019,5.019,0,0,0,.715,0,2.331,2.331,0,0,1,2.229,1.761l.621,2.552h.851l-1.285-4.535A3.48,3.48,0,0,0,32.8,40.52Z" transform="translate(-2.622 -5.527)" fill="#844a3a"/><path d="M46.19,56.51a1.089,1.089,0,0,0,.851,1.046,1.14,1.14,0,0,1,.638.374,1.183,1.183,0,0,0,.068-.391V57a1.157,1.157,0,0,0-.868-1.14,1.123,1.123,0,0,1-.689-.485Z" transform="translate(-6.593 -7.742)" fill="#844a3a"/><path d="M18.392,30.781,41.1,26.536,41.074,24.8,18.162,29.08l-.5,9.674.315.051Z" transform="translate(-2.337 -3.181)" fill="#c18b5d"/><path d="M41.865,55.074H39.679a2.646,2.646,0,0,1-2.552-2.025L34.591,42.771a1.455,1.455,0,0,0-1.4-1.106h-.17a5.2,5.2,0,0,1-.63,0l-15.536-.119a.846.846,0,0,1-.842-.927L17.1,28.759A.851.851,0,0,1,17.788,28l22.921-4.254a.845.845,0,0,1,1,.825l.1,8.925a.851.851,0,0,1-.851.851.893.893,0,0,1-.851-.851l-.085-7.921-21.27,3.982-.944,10.295,14.736.085h.119a4,4,0,0,0,.451,0h.145a3.173,3.173,0,0,1,3.046,2.408l2.5,10.269a.953.953,0,0,0,.927.732h2.127a.553.553,0,0,0,.553-.553v-.545a.315.315,0,0,0-.255-.306,1.948,1.948,0,0,1-1.557-1.855l-.425-13.894a.851.851,0,1,1,1.7-.051l.425,13.894a.255.255,0,0,0,.2.238,2.016,2.016,0,0,1,1.617,1.974v.545a2.255,2.255,0,0,1-2.255,2.28Z" transform="translate(-2.09 -3.022)" fill="#6f3c2b"/><path d="M39.8,15.42l-2.672,9-7.4,1.387a10.1,10.1,0,0,0,9.827,10.363c5.428,0,9.827-4.662,9.827-10.388A10.073,10.073,0,0,0,39.8,15.42Z" transform="translate(-4.138 -1.782)" fill="#995c47"/><path d="M51.651,26.43a10.363,10.363,0,0,1-4.509,6.441,4,4,0,0,0-1.931,3.4v.953a10.354,10.354,0,0,0,6.483-9.8C51.693,27.085,51.676,26.753,51.651,26.43Z" transform="translate(-6.447 -3.425)" fill="#844a3a"/><path d="M39.8,25.36,29.73,27.266a11.358,11.358,0,0,0,.153,1.8l9.053-1.77a1.3,1.3,0,0,0,.851-1.931Z" transform="translate(-4.138 -3.265)" fill="#c18b5d"/><path d="M35.754,25.343l3-.476a2.867,2.867,0,0,0,2.433-2.68,37.052,37.052,0,0,1,.681-6.177l2.008-7.836L51.587,9.6A2.11,2.11,0,0,0,50.1,8.531L41.624,7l-2.008,7.836c-.613,2.042-2.484,8.346-2.484,8.346l-7.4,1.387a10.354,10.354,0,0,0,6.551,9.767,9.359,9.359,0,0,1-3.293-4.365,3.471,3.471,0,0,1,2.765-4.628Z" transform="translate(-4.138 -0.526)" fill="#c18b5d"/><path d="M43.548,35.881a.851.851,0,0,1-.383-1.608,9.606,9.606,0,0,0,5.215-8.644,9.257,9.257,0,0,0-8.108-9.469L37.788,24.48a.851.851,0,0,1-.655.6l-7.4,1.387a.865.865,0,0,1-.315-1.7l6.892-1.293L38.86,15a.851.851,0,0,1,.851-.613A10.926,10.926,0,0,1,50.124,25.6a11.316,11.316,0,0,1-6.16,10.167A.851.851,0,0,1,43.548,35.881Z" transform="translate(-3.985 -1.628)" fill="#6f3c2b"/><path d="M44.426,38.383l-.136-4.6,1.8,4.254a.865.865,0,1,1-1.659.349Z" transform="translate(-6.31 -4.521)" fill="#6f3c2b"/><path d="M10.42,35.062v3.284a1.914,1.914,0,0,1-1.582,1.88l-2.552.434a3.148,3.148,0,0,0-2.552,3.6l1.506,9.35a1.548,1.548,0,0,0,1.531,1.3H10.1a1.174,1.174,0,0,0,1.174-1.183h0A1.548,1.548,0,0,0,9.723,52.18h0a.562.562,0,0,1-.562-.51l-.536-5.956a.732.732,0,0,1,.715-.791h1.625a10.746,10.746,0,0,0,10.21-10.737V28.57l-6.16,1.072a5.5,5.5,0,0,0-4.594,5.42Z" transform="translate(-0.253 -3.744)" fill="#c18b5d"/><path d="M10.42,38.28v1.514a1.914,1.914,0,0,1-1.582,1.88l-2.552.434a3.148,3.148,0,0,0-2.552,3.6l1.506,9.35a1.548,1.548,0,0,0,1.531,1.3h.476l-1.7-10.524a1.829,1.829,0,0,1,1.489-2.084l3.233-.553a2.629,2.629,0,0,0,2.17-2.552v-1.9a.468.468,0,0,0-.468-.468Z" transform="translate(-0.253 -5.193)" fill="#eaad83"/><path d="M16.194,29.645a5.5,5.5,0,0,0-4.594,5.42v.681h1.557a.468.468,0,0,0,.468-.468h0a4.007,4.007,0,0,1,3.318-3.948l3.828-.655a1.906,1.906,0,0,0,1.582-1.889v-.2Z" transform="translate(-1.433 -3.747)" fill="#eaad83"/><path d="M19.947,42.056a10.261,10.261,0,0,0,3.582-6.806,11.06,11.06,0,0,1-2.357,8.006h0a.857.857,0,1,1-1.344-1.063Z" transform="translate(-2.633 -4.741)" fill="#6f3c2b"/><path d="M9.948,56.785H6.622a2.391,2.391,0,0,1-2.365-2.016L2.75,45.41a4.007,4.007,0,0,1,3.267-4.6l2.552-.434a1.055,1.055,0,0,0,.851-1.038V36.051a.851.851,0,0,1,1.7,0v3.284a2.748,2.748,0,0,1-2.289,2.714l-2.552.434A2.314,2.314,0,0,0,4.4,45.112l1.506,9.359a.689.689,0,0,0,.689.587H9.923a.332.332,0,0,0,.323-.332.7.7,0,0,0-.7-.7,1.412,1.412,0,0,1-1.412-1.285l-.527-5.956a1.548,1.548,0,0,1,.451-1.149,1.591,1.591,0,0,1,1.149-.519h1.625a9.878,9.878,0,0,0,6.585-3.071.851.851,0,1,1,1.225,1.174,11.562,11.562,0,0,1-7.81,3.582H9.31l.5,5.539a2.408,2.408,0,0,1,2.136,2.391,2.033,2.033,0,0,1-2,2.05Z" transform="translate(-0.104 -4.733)" fill="#6f3c2b"/><path d="M11.774,34a4.679,4.679,0,0,0,.51,1.906.961.961,0,0,1-.417,1.285.936.936,0,0,1-1.276-.408.97.97,0,0,1-.051-.766v-.111A5.547,5.547,0,0,1,11.774,34Z" transform="translate(-1.266 -4.554)" fill="#6f3c2b"/><path d="M16.849,30.321a.852.852,0,0,1-.153-1.693l7.079-1.2a.862.862,0,0,1,.281,1.7l-7.079,1.2Z" transform="translate(-2.087 -3.572)" fill="#6f3c2b"/><path d="M16.365,30.525A5.028,5.028,0,0,0,12,33.231a5.59,5.59,0,0,1,1.37-2.646,6.151,6.151,0,0,1,2.706-1.7h.051a.864.864,0,1,1,.51,1.651A1.012,1.012,0,0,1,16.365,30.525Z" transform="translate(-1.492 -3.785)" fill="#6f3c2b"/><path d="M51.79,8.531,43.316,7,41.07,15.729l10.005,9.495v-8.67h0a2.927,2.927,0,0,0,2.493-2.969l-.077-3.242A1.94,1.94,0,0,0,51.79,8.531Z" transform="translate(-5.83 -0.526)" fill="#995c47"/><path d="M41.308,14.793l-.238.936.851.774a1.029,1.029,0,0,0,1.7-.485h0l.7-2.731A5.632,5.632,0,0,1,50.8,9.144l2.552.468a1.889,1.889,0,0,0-.562-.664h0a2.178,2.178,0,0,0-.34-.187l-.2-.06a2.552,2.552,0,0,0-.468-.145L43.316,7l-2.008,7.836Z" transform="translate(-5.83 -0.526)" fill="#c18b5d"/><path d="M50.872,25.924a.851.851,0,0,1-.851-.851V16.4a.851.851,0,0,1,.723-.851,2.076,2.076,0,0,0,1.77-2.11l-.077-3.191c0-.493-.391-.851-1.029-1L43.751,7.827l-2.357,8.806a.851.851,0,1,1-1.642-.425L42.3,6.6a.851.851,0,0,1,.961-.6l8.508,1.565a2.808,2.808,0,0,1,2.4,2.629l.077,3.242a3.778,3.778,0,0,1-2.527,3.624v8.015A.851.851,0,0,1,50.872,25.924Z" transform="translate(-5.626 -0.374)" fill="#6f3c2b"/><path d="M42.8,9.416l.715-2.85A1.957,1.957,0,0,1,44.674,5.23l1.778-.723a.953.953,0,0,1,1.293,1.106l-.987,4.075a1.855,1.855,0,0,1-1.531,1.4l-2.7.4" transform="translate(-6.047 -0.143)" fill="#eaad83"/><path d="M42.081,12.2a.655.655,0,0,1-.213,0,.851.851,0,0,1-.613-1.029L42.5,6.244a2.825,2.825,0,0,1,1.7-1.906l1.778-.732A1.812,1.812,0,0,1,48.419,5.7l-.978,4.084a2.7,2.7,0,0,1-2.246,2.042l-2.689.391a.647.647,0,0,1-.255,0Zm4.543-7.062h0l-1.778.723a1.089,1.089,0,0,0-.655.749l-.944,3.735,1.7-.255a1,1,0,0,0,.851-.757l.978-4.075a.085.085,0,0,0,0-.1.077.077,0,0,0-.153-.017Z" transform="translate(-5.853)" fill="#6f3c2b"/><path d="M52.057,18.936l-1.506-.2.5-.23-3.4,3.174,2.433-3.99a.451.451,0,0,1,.315-.213h.179l1.506-.213a.859.859,0,1,1,.238,1.7Z" transform="translate(-6.811 -2.057)" fill="#6f3c2b"/></g></svg>