<svg xmlns="http://www.w3.org/2000/svg" width="34.794" height="48" viewBox="0 0 34.794 48"><g transform="translate(-10.33 -4.327)"><path d="M42.145,7.453h0a.424.424,0,0,1,.424-.433h2.265a.712.712,0,0,1,.7.712h0a.7.7,0,0,1-.7.7H43.705a.424.424,0,0,0-.424.424h0a.424.424,0,0,1-.433.424H40.584a.7.7,0,0,1-.7-.7h0a.7.7,0,0,1,.7-.729H41.72A.424.424,0,0,0,42.145,7.453Z" transform="translate(-4.487 -0.409)" fill="#d9ebf4"/><path d="M47.028,11.246h0A.246.246,0,0,0,46.782,11H45.467a.416.416,0,0,0-.407.416h0a.407.407,0,0,0,.407.407h.662a.246.246,0,0,1,.246.246h0a.246.246,0,0,0,.246.246h1.315a.4.4,0,0,0,.407-.407h0a.407.407,0,0,0-.407-.416h-.662a.246.246,0,0,1-.246-.246Z" transform="translate(-5.273 -1.013)" fill="#d9ebf4"/><path d="M43.677,12.947a.568.568,0,1,1-.163-.407A.568.568,0,0,1,43.677,12.947Z" transform="translate(-4.891 -1.221)" fill="#d9ebf4"/><path d="M40.672,14.256a.916.916,0,1,1-.916-.916A.916.916,0,0,1,40.672,14.256Z" transform="translate(-4.329 -1.369)" fill="#d9ebf4"/><path d="M39.474,6a.3.3,0,1,1-.3-.3A.3.3,0,0,1,39.474,6Z" transform="translate(-4.335 -0.208)" fill="#d9ebf4"/><path d="M34.88,22.6V11.092A1.866,1.866,0,0,1,36.415,9.26l10.5-1.883A.925.925,0,0,1,47.848,8.8c-1.349,1.993-4.054,4.987-8.27,5.259a1.51,1.51,0,0,0-1.442,1.34l-.7,6.87" transform="translate(-3.728 -0.461)" fill="#c9b5bd"/><path d="M37.941,20.539l.534-5.089a1.51,1.51,0,0,1,1.442-1.34c4.241-.271,6.921-3.265,8.27-5.259a.916.916,0,0,0-.509-1.391.916.916,0,0,1-.153.45c-1.349,1.993-4.063,4.987-8.27,5.25a1.527,1.527,0,0,0-1.442,1.34l-.7,6.87" transform="translate(-4.066 -0.476)" fill="#e2d3d9"/><path d="M34.728,23.3a.848.848,0,0,1-.848-.848V10.941a2.7,2.7,0,0,1,2.231-2.663L46.619,6.4A1.773,1.773,0,0,1,48.4,9.126c-1.34,1.976-4.241,5.335-8.914,5.632a.662.662,0,0,0-.662.577l-.6,5.64a.853.853,0,0,1-1.7-.178l.594-5.64a2.375,2.375,0,0,1,2.231-2.095C43.312,12.841,45.856,9.9,47,8.176c0-.127-.068-.119-.085-.11L36.408,9.94a1.018,1.018,0,0,0-.848,1v11.51a.848.848,0,0,1-.831.848Z" transform="translate(-3.576 -0.31)" fill="#715661"/><path d="M40.767,54.608l-2.68-.382a.848.848,0,0,1-.679-1.187A7.294,7.294,0,1,0,24.77,54.124a1.7,1.7,0,0,0-.848,1.6A1.773,1.773,0,0,0,25.729,57.3h17.09v-.348a2.375,2.375,0,0,0-2.053-2.349Z" transform="translate(-1.998 -5.826)" fill="#715661"/><path d="M38.26,45.864H41.2A4.665,4.665,0,0,0,44.5,44.5l2.18-2.18a1.094,1.094,0,0,0-.517-1.849,2.816,2.816,0,0,0-2.273.509,1.442,1.442,0,0,1-1.145.229l-2.629-.534" transform="translate(-4.241 -5.479)" fill="#af8e9c"/><path d="M38.26,45.735c.763-.187,1.527-.3,2.29-.416a5.606,5.606,0,0,0,2.027-.492,4.58,4.58,0,0,0,1.544-1.213c.517-.56,1.052-1.111,1.586-1.7l.382-.373a.246.246,0,0,0,.068-.119.288.288,0,0,0,0-.28.271.271,0,0,0-.1-.093,2.239,2.239,0,0,0-.416-.068,2.392,2.392,0,0,0-.848.093,2.333,2.333,0,0,0-.433.178c-.051,0-.17.1-.3.161a1.535,1.535,0,0,1-.382.119,1.824,1.824,0,0,1-.772,0,4.385,4.385,0,0,1-.6-.178c-.721-.271-1.45-.526-2.154-.848.78,0,1.552,0,2.324.051a1.4,1.4,0,0,0,.848-.076l.144-.093.187-.153a3.324,3.324,0,0,1,.577-.305,3.045,3.045,0,0,1,1.374-.365,3.511,3.511,0,0,1,.729.042,1.84,1.84,0,0,1,.848.441,1.942,1.942,0,0,1,.568,1.824,1.976,1.976,0,0,1-.466.848l-.424.433c-.543.534-1.086,1.069-1.645,1.586a5.174,5.174,0,0,1-2.222,1.315,4.733,4.733,0,0,1-1.281.2,10.067,10.067,0,0,1-1.128-.1C39.787,46.032,39.023,45.922,38.26,45.735Z" transform="translate(-4.241 -5.351)" fill="#715661"/><path d="M21.36,41.81s9.024-8.439,8.312-18.66H40.7a1.493,1.493,0,0,1,1.459,1.569,6.209,6.209,0,0,1-4.317,5.734S44.371,52.878,27.051,51.36" transform="translate(-1.675 -2.858)" fill="#c9b5bd"/><path d="M30.325,24.994l-.653-1.874c.712,10.246-8.312,18.66-8.312,18.66l.941,1.595C23.837,41.839,30.961,34.138,30.325,24.994Z" transform="translate(-1.675 -2.853)" fill="#afe2dd"/><path d="M45.81,25.5a1.5,1.5,0,0,1,.059-.517" transform="translate(-5.387 -3.136)" fill="#afe2dd"/><path d="M41.179,36.21h.3a35.241,35.241,0,0,0-1.052-5.776,6.209,6.209,0,0,0,4.343-5.717,1.493,1.493,0,0,0-1.493-1.578H41.187a1.493,1.493,0,0,1,1.493,1.578,6.2,6.2,0,0,1-3.571,5.428.975.975,0,0,0-.534,1.111c.17.721.424,1.866.628,3.257a2,2,0,0,0,1.976,1.7Z" transform="translate(-4.285 -2.857)" fill="#e2d3d9"/><path d="M43.724,23.12H41.51v.127c0,.967,1.2,1.747,2.689,1.747a3.935,3.935,0,0,0,1.018-.136,1.043,1.043,0,0,1,0-.161,1.493,1.493,0,0,0-1.493-1.578Z" transform="translate(-4.734 -2.853)" fill="#af8094"/><path d="M43.153,24.718a.848.848,0,0,0,0,.153,4.241,4.241,0,0,0,1.069.144,3.936,3.936,0,0,0,1.018-.136,1.044,1.044,0,0,1,0-.161,1.476,1.476,0,0,0-1.069-1.51,1.391,1.391,0,0,0-.424-.068H41.66a1.493,1.493,0,0,1,1.493,1.578Z" transform="translate(-4.757 -2.857)" fill="#b78fa2"/><path d="M38.08,41.371c.051,5.581-1.6,11.942-9.33,12.468,10.577.611,11.806-8.083,11.314-14.419h0A1.976,1.976,0,0,0,38.08,41.371Z" transform="translate(-2.797 -5.328)" fill="#e2d3d9"/><path d="M40.664,43.968c-.543-.848-1.484-2.248-1.484-2.248l-4.639.916L35.956,45.5a3.257,3.257,0,0,0,1.272,1.391,4.716,4.716,0,0,0,2.349.636h.729a16.768,16.768,0,0,0,.636-3.257,1.594,1.594,0,0,1-.28-.305Z" transform="translate(-3.676 -5.678)" fill="#af8e9c"/><path d="M28.529,52.111a12.935,12.935,0,0,1-1.7-.076.852.852,0,0,1,.153-1.7c3.952.348,6.887-.6,8.7-2.816,4.487-5.471,1.23-16.9,1.2-16.963a.848.848,0,0,1,.543-1.043,5.343,5.343,0,0,0,3.74-5,.585.585,0,0,0-.161-.45.67.67,0,0,0-.483-.212H30.4c.2,10.034-8.244,18.066-8.651,18.414a.849.849,0,0,1-1.162-1.238c.093-.085,8.728-8.3,8.049-18.006a.856.856,0,0,1,.848-.908H40.505a2.332,2.332,0,0,1,1.7.755,2.256,2.256,0,0,1,.611,1.7,7.04,7.04,0,0,1-4.105,6.217c.7,2.782,2.68,12.468-1.7,17.811C35.069,50.932,32.227,52.111,28.529,52.111Z" transform="translate(-1.516 -2.702)" fill="#715661"/><path d="M19.32,47.855a3.978,3.978,0,1,1-1.162-2.827A3.995,3.995,0,0,1,19.32,47.855Z" transform="translate(-0.152 -6.003)" fill="#c9b5bd"/><path d="M12.68,49.114a3.969,3.969,0,0,1,6-3.444,3.986,3.986,0,1,0-5.369,5.589A4.02,4.02,0,0,1,12.68,49.114Z" transform="translate(-0.153 -5.998)" fill="#e2d3d9"/><path d="M15.181,52.536A4.843,4.843,0,1,1,20.016,47.7a4.843,4.843,0,0,1-4.835,4.835Zm0-7.981A3.147,3.147,0,1,0,18.32,47.7a3.147,3.147,0,0,0-3.138-3.147Z" transform="translate(0 -5.849)" fill="#715661"/><path d="M31.281,55.252l-3.452-.483a6.4,6.4,0,1,0-10.619.068,1.476,1.476,0,0,0-.763,1.289,1.493,1.493,0,0,0,1.493,1.5H33.045v-.305a2.1,2.1,0,0,0-1.764-2.07Z" transform="translate(-0.875 -6.148)" fill="#d3c1c8"/><path d="M31.72,57.015,34.5,57.4a2.146,2.146,0,0,0-.848-.322l-1.79-.254a1.45,1.45,0,0,1-.144.2Z" transform="translate(-3.248 -7.97)" fill="#afe2dd"/><path d="M17.958,56.549a1.484,1.484,0,0,1,.764-1.3,6.4,6.4,0,0,1,5.284-10.017,6.71,6.71,0,0,1,.933.068,6.522,6.522,0,0,0-2.485-.492,6.4,6.4,0,0,0-5.284,10.025,1.476,1.476,0,0,0-.763,1.289,1.493,1.493,0,0,0,1.493,1.5h.509A1.493,1.493,0,0,1,17.958,56.549Z" transform="translate(-0.868 -6.147)" fill="#afe2dd"/><path d="M19.048,46.7a.848.848,0,0,1-.5-1.535,7.226,7.226,0,0,1,4.241-1.357h1.06a.848.848,0,1,1,0,1.7H22.78a5.539,5.539,0,0,0-3.24,1.009.848.848,0,0,1-.492.187Z" transform="translate(-1.195 -5.995)" fill="#715661"/><path d="M32.891,59.468H17.752a2.349,2.349,0,0,1-2.341-2.349,2.324,2.324,0,0,1,.517-1.459,7.175,7.175,0,0,1-.848-3.452.848.848,0,1,1,1.7,0,5.5,5.5,0,0,0,.967,3.138.854.854,0,0,1-.28,1.221.611.611,0,0,0-.331.551.645.645,0,0,0,.645.653H31.941A1.264,1.264,0,0,0,31,57.085L27.548,56.6a.845.845,0,0,1,.187-1.679l3.452.483a2.952,2.952,0,0,1,2.544,2.909v.305a.848.848,0,0,1-.84.848Z" transform="translate(-0.721 -7.141)" fill="#715661"/><path d="M29,54.9A8.482,8.482,0,0,0,30.112,53.8a3.834,3.834,0,0,0,.67-1.442,4.241,4.241,0,0,1,.119,1.747,9.567,9.567,0,0,1-.483,1.7.9.9,0,0,1-1.7-.577A.924.924,0,0,1,29,54.9Z" transform="translate(-2.785 -7.293)" fill="#715661"/><path d="M32.8,57.684h-.11l-5.869-.746a.847.847,0,1,1,.221-1.679l5.869.746a.85.85,0,1,1-.11,1.7Z" transform="translate(-2.392 -7.732)" fill="#715661"/><path d="M31.16,22.294V9.478a2.078,2.078,0,0,1,1.7-2.044L44.595,5.348a1.026,1.026,0,0,1,1.018,1.578c-1.51,2.222-4.529,5.555-9.211,5.852A1.7,1.7,0,0,0,34.79,14.27L34.01,21.9" transform="translate(-3.163 -0.153)" fill="#c9b5bd"/><path d="M32.02,10.758a2.078,2.078,0,0,1,1.7-2.044l11.73-2.086a.848.848,0,0,1,.322,0A1.026,1.026,0,0,0,44.6,5.347L32.876,7.434a2.078,2.078,0,0,0-1.7,2.044V22.293l.848-.11Z" transform="translate(-3.166 -0.152)" fill="#afe2dd"/><path d="M34.574,19.985l.594-5.708a1.7,1.7,0,0,1,1.612-1.493c4.682-.3,7.7-3.63,9.211-5.852a1.026,1.026,0,0,0-.577-1.552.958.958,0,0,1-.17.5c-1.5,2.222-4.521,5.555-9.2,5.852a1.7,1.7,0,0,0-1.612,1.493l-.78,7.633" transform="translate(-3.541 -0.16)" fill="#e2d3d9"/><path d="M31.008,22.989a.848.848,0,0,1-.848-.848V9.325A2.909,2.909,0,0,1,32.569,6.45l11.7-2.095a1.874,1.874,0,0,1,1.908.848,1.841,1.841,0,0,1,0,2.061C44.7,9.452,41.449,13.2,36.318,13.49a.848.848,0,0,0-.848.738L34.808,20.5a.853.853,0,0,1-1.7-.178l.662-6.276a2.544,2.544,0,0,1,2.4-2.248c4.4-.28,7.252-3.562,8.558-5.488a.161.161,0,0,0,0-.187.17.17,0,0,0-.187-.085L32.866,8.121a1.221,1.221,0,0,0-1.009,1.2V22.141A.848.848,0,0,1,31.008,22.989Z" transform="translate(-3.011)" fill="#715661"/><path d="M33.9,41.735l2.078,2.078a4.665,4.665,0,0,0,3.3,1.366h3.079a1.094,1.094,0,0,0,.941-1.7,2.8,2.8,0,0,0-1.968-1.247,1.45,1.45,0,0,1-.967-.636L38.879,39.36" transform="translate(-3.579 -5.319)" fill="#c9b5bd"/><path d="M33.9,41.741a21.224,21.224,0,0,1,1.908,1.323A5.852,5.852,0,0,0,37.59,44.15a4.665,4.665,0,0,0,1.951.229c.763,0,1.527-.042,2.29-.051h.534a.356.356,0,0,0,.136,0,.373.373,0,0,0,.17-.229.229.229,0,0,0,0-.144,1.755,1.755,0,0,0-.237-.339,2.409,2.409,0,0,0-.662-.534,2.6,2.6,0,0,0-.424-.17,1.474,1.474,0,0,1-.331-.1,1.747,1.747,0,0,1-.356-.178,2.1,2.1,0,0,1-.551-.543,4.614,4.614,0,0,1-.3-.551c-.322-.7-.653-1.4-.916-2.137a23.147,23.147,0,0,1,1.612,1.7c.271.331.433.5.679.568h.4a4.724,4.724,0,0,1,.67.144,3.215,3.215,0,0,1,1.238.721,4.105,4.105,0,0,1,.475.543,1.849,1.849,0,0,1,.322.95,1.883,1.883,0,0,1-.891,1.7,1.815,1.815,0,0,1-.95.3H39.557a5.276,5.276,0,0,1-2.5-.636,4.962,4.962,0,0,1-1.043-.772,9.151,9.151,0,0,1-.772-.933A19.556,19.556,0,0,1,33.9,41.741Z" transform="translate(-3.579 -5.325)" fill="#715661"/><path d="M38.849,33.768a.9.9,0,0,1-.356-.076.848.848,0,0,1-.424-1.094l.2-.407a2.612,2.612,0,0,1,1.493-1.357l1.17-.416a.848.848,0,1,1,.568,1.595l-1.17.416a.95.95,0,0,0-.526.483l-.187.407A.848.848,0,0,1,38.849,33.768Z" transform="translate(-4.202 -3.951)" fill="#715661"/></g></svg>