<svg xmlns="http://www.w3.org/2000/svg" width="50" height="34.235" viewBox="0 0 50 34.235"><g transform="translate(-3.841 -19.914)"><path d="M52.489,44.785h0l-1.923,1.923a2.256,2.256,0,0,1-3.191,0L32.679,32a8.323,8.323,0,0,0-2.606-1.753,2.157,2.157,0,0,0-2.993,2h0a13.6,13.6,0,0,0,3.982,9.608l5.608,5.608a9.294,9.294,0,0,0,13.149,0Z" transform="translate(-2.657 -3.65)" fill="#d9ebf4"/><path d="M22.531,58.8H16.985a1.2,1.2,0,0,1-1.2-1.2V52.814a3.964,3.964,0,0,1,3.964-3.964h0a3.973,3.973,0,0,1,3.973,3.964V57.6a1.2,1.2,0,0,1-1.2,1.2Z" transform="translate(-1.514 -5.549)" fill="#122920"/><path d="M47.051,58.8H41.505a1.2,1.2,0,0,1-1.2-1.2V52.814a3.964,3.964,0,0,1,3.964-3.964h0a3.973,3.973,0,0,1,3.973,3.964V57.6a1.2,1.2,0,0,1-1.2,1.2Z" transform="translate(-3.996 -5.549)" fill="#122920"/><ellipse cx="18.416" cy="5.995" rx="18.416" ry="5.995" transform="translate(7.131 39.364)" fill="#d3c879"/><path d="M44.673,48.322c0,3.308-8.251,5.986-18.416,5.986S7.84,51.6,7.84,48.322,16.073,42.3,26.256,42.3,44.673,44.978,44.673,48.322Z" transform="translate(-0.709 -4.887)" fill="#c6a063"/><path d="M26.155,57.259c-9.365,0-19.315-2.418-19.315-6.894s9.95-6.885,19.315-6.885S45.47,45.889,45.47,50.365,35.521,57.259,26.155,57.259Zm0-11.981c-10.857,0-17.518,2.966-17.518,5.087s6.66,5.1,17.518,5.1,17.518-2.966,17.518-5.1S37,45.278,26.155,45.278Z" transform="translate(-0.608 -5.006)" fill="#122920"/><path d="M25.261,26.16A18.461,18.461,0,0,0,6.8,44.612H43.714A18.452,18.452,0,0,0,25.261,26.16Z" transform="translate(-0.604 -3.253)" fill="#4d8970"/><path d="M26.048,26.21a17.76,17.76,0,0,1,3.5,1.609c7.5,4.368,4.152,15.936-4.494,15.936H6.85v.9H43.719A18.434,18.434,0,0,0,26.048,26.21Z" transform="translate(-0.609 -3.258)" fill="#457f69"/><path d="M35.63,29.36a18.452,18.452,0,0,0-6.75-2.822h-.207c-.431-.081-.9-.153-1.321-.2h-.4c-.557-.054-1.123-.09-1.69-.09a10.6,10.6,0,0,0-1.69.09,4.494,4.494,0,0,0-.485.054c-.422.045-.845.117-1.267.189l-.422.081c-.512.108-1.016.234-1.519.386l-.458.162c-.351.117-.692.234-1.025.377l-.611.252c-.36.162-.719.342-1.07.521s-.485.261-.728.4-.521.306-.782.476-.5.342-.746.521l-.44.333c-.27.2-.53.4-.782.629l-.081.072a17.922,17.922,0,0,0-1.681,1.618l-.054.054c-.27.306-.53.629-.782.962h0a18.281,18.281,0,0,0-1.986,3.263h0a18.371,18.371,0,0,0-1.8,7.882H8.891a18.335,18.335,0,0,1,1-4.88,1.285,1.285,0,0,1,1.8-.683A11.9,11.9,0,0,0,29.051,28.461,9.654,9.654,0,0,0,29,27.436,18.344,18.344,0,0,1,35.63,29.36Z" transform="translate(-0.61 -3.262)" fill="#64a382"/><path d="M10.06,37.631h0a18.776,18.776,0,0,1,1.977-3.263h.045c.252-.333.512-.647.782-.962l.045-.054a19.037,19.037,0,0,1,1.708-1.7l.081-.072c.261-.225.521-.431.782-.629l.449-.333c.243-.18.485-.36.746-.521s.521-.324.782-.476.476-.279.728-.4.7-.36,1.07-.521l.6-.252c.342-.144.683-.261,1.034-.377l.458-.162c.494-.153,1.007-.279,1.519-.386l.422-.081c.413-.072.836-.144,1.267-.189a4.3,4.3,0,0,1,.476-.054c.557-.054,1.123-.09,1.69-.09a10.707,10.707,0,0,1,1.7.09h.4c.449.045.9.117,1.321.2h.207a18.291,18.291,0,0,1,5.231,1.9h.054a18.452,18.452,0,0,0-6.75-2.822h-.207c-.431-.081-.9-.153-1.321-.2h-.4c-.557-.054-1.123-.09-1.69-.09a10.6,10.6,0,0,0-1.69.09,4.493,4.493,0,0,0-.485.054c-.422.045-.845.117-1.267.189l-.422.081c-.512.108-1.016.234-1.519.386l-.458.162c-.351.117-.692.234-1.025.377l-.611.252c-.36.162-.719.342-1.07.521s-.485.261-.728.4-.521.306-.782.476-.5.342-.746.521l-.44.333c-.27.2-.53.4-.782.629l-.081.072a17.922,17.922,0,0,0-1.681,1.681l-.054.054c-.27.306-.53.629-.782.962h0a18.282,18.282,0,0,0-1.986,3.263h0a18.371,18.371,0,0,0-1.8,7.882H8.3a18.237,18.237,0,0,1,1.762-6.939Z" transform="translate(-0.61 -3.255)" fill="#7fbf9c"/><rect width="39.817" height="4.925" rx="1.54" transform="translate(4.74 41.359)" fill="#2f685e"/><path d="M44.521,46.69H13.62v.584a1.186,1.186,0,0,0,1.186,1.177H45.86v-.377A1.384,1.384,0,0,0,44.521,46.69Z" transform="translate(-1.294 -5.331)" fill="#4d8c6d"/><path d="M12.038,46.69H6.564A1.384,1.384,0,0,0,5.18,48.074v2.157a1.384,1.384,0,0,0,1.384,1.384h.53v-1.8a1.393,1.393,0,0,1,1.393-1.393h2.364a1.186,1.186,0,0,0,1.186-1.177Z" transform="translate(-0.44 -5.331)" fill="#4d8c6d"/><path d="M43.612,47.488H6.7a.9.9,0,1,1,0-1.8H43.612a.9.9,0,0,1,0,1.8Z" transform="translate(-0.503 -5.23)" fill="#3f7a63"/><path d="M46.573,45.483H46.5A18.353,18.353,0,0,0,42.978,34.76,10.7,10.7,0,0,0,33.9,45.177a10.21,10.21,0,0,0,1.447,5.231H46.573a1.384,1.384,0,0,0,1.384-1.384V46.867a1.384,1.384,0,0,0-1.384-1.384Z" transform="translate(-3.347 -4.123)" fill="#123951"/><path d="M40.695,37.8V35.49A10.579,10.579,0,0,0,33.9,45.251a10.21,10.21,0,0,0,1.447,5.231h.9a10.174,10.174,0,0,1-.548-3.227,10.435,10.435,0,0,1,4.494-8.548,1.1,1.1,0,0,0,.5-.908Z" transform="translate(-3.347 -4.197)" fill="#1c565e"/><path d="M46.635,51.2H35.409a.9.9,0,1,1,0-1.8H46.635a.485.485,0,0,0,.485-.485V46.758a.485.485,0,0,0-.485-.485.962.962,0,0,1-.971-.9,17.457,17.457,0,0,0-3.291-10.2.9.9,0,1,1,1.458-1.041,19.189,19.189,0,0,1,3.6,10.507A2.283,2.283,0,0,1,48.9,46.758v2.157A2.283,2.283,0,0,1,46.635,51.2Z" transform="translate(-3.409 -4.015)" fill="#041256"/><path d="M43.145,35.544A10.408,10.408,0,0,0,36.853,38.5a10.067,10.067,0,0,0-2.975,6.57,10.57,10.57,0,0,1,2.3-7.19,11.765,11.765,0,0,1,6.651-4.143h0a.92.92,0,1,1,.4,1.8Z" transform="translate(-3.343 -4.018)" fill="#122920"/><path d="M43.612,45.409a.9.9,0,0,1-.9-.9,17.562,17.562,0,0,0-35.116,0,.9.9,0,1,1-1.8,0,19.358,19.358,0,1,1,38.716,0,.9.9,0,0,1-.9.9Z" transform="translate(-0.503 -3.151)" fill="#122920"/><path d="M43.565,52.413H6.463A2.283,2.283,0,0,1,4.18,50.13V47.973A2.283,2.283,0,0,1,6.463,45.69a.9.9,0,0,1,0,1.8.485.485,0,0,0-.485.485V50.13a.485.485,0,0,0,.485.485h37.1a.485.485,0,0,0,.485-.485V47.973a.485.485,0,0,0-.485-.485.9.9,0,1,1,0-1.8,2.283,2.283,0,0,1,2.283,2.283V50.13a2.283,2.283,0,0,1-2.283,2.283Z" transform="translate(-0.339 -5.23)" fill="#122920"/><path d="M13.705,58.8H8.15A1.2,1.2,0,0,1,7,57.6V52.814a3.964,3.964,0,0,1,3.964-3.964h0a3.973,3.973,0,0,1,3.973,3.964V57.6a1.2,1.2,0,0,1-1.231,1.2Z" transform="translate(-0.624 -5.549)" fill="#848952"/><path d="M9.238,58.3V53.477a3.973,3.973,0,0,1,3.946-3.964A3.964,3.964,0,0,0,7,52.812V57.6a1.2,1.2,0,0,0,1.186,1.2H9.355A1.142,1.142,0,0,1,9.238,58.3Z" transform="translate(-0.624 -5.548)" fill="#9ea072"/><path d="M10.247,59.256H9.24V57.943a.5.5,0,0,1,.5-.5h0a.5.5,0,0,1,.5.5Z" transform="translate(-0.851 -6.419)" fill="#9ea072"/><path d="M11.817,59.256H10.81V57.943a.5.5,0,0,1,.5-.5h0a.5.5,0,0,1,.5.5Z" transform="translate(-1.01 -6.419)" fill="#9ea072"/><path d="M13.4,59.256H12.38V57.943a.5.5,0,0,1,.5-.5h0a.512.512,0,0,1,.512.5Z" transform="translate(-1.169 -6.419)" fill="#9ea072"/><path d="M32.777,59.256H31.77V57.943a.5.5,0,0,1,.5-.5h0a.5.5,0,0,1,.5.5Z" transform="translate(-3.131 -6.419)" fill="#9ea072"/><path d="M34.347,59.256H33.34V57.943a.5.5,0,0,1,.5-.5h0a.5.5,0,0,1,.5.5Z" transform="translate(-3.29 -6.419)" fill="#9ea072"/><path d="M35.89,59.256h-.98V57.943a.512.512,0,0,1,.512-.5h0a.5.5,0,0,1,.467.5Z" transform="translate(-3.449 -6.419)" fill="#9ea072"/><path d="M8.312,57.6V52.814a3.964,3.964,0,0,1,3.308-3.9,4.306,4.306,0,0,0-.692-.063A3.964,3.964,0,0,0,7,52.814V57.6a1.2,1.2,0,0,0,1.186,1.2H9.355A1.177,1.177,0,0,1,8.312,57.6Z" transform="translate(-0.624 -5.549)" fill="#84d8cc"/><path d="M13.6,59.62H8.049A2.094,2.094,0,0,1,6,57.526V52.735a4.871,4.871,0,0,1,9.734,0v4.791A2.1,2.1,0,0,1,13.6,59.62Zm-2.777-9.95A3.065,3.065,0,0,0,7.8,52.735v4.791a.288.288,0,0,0,.288.3H13.64a.3.3,0,0,0,.3-.3V52.735a3.074,3.074,0,0,0-3.11-3.065Z" transform="translate(-0.523 -5.471)" fill="#122920"/><path d="M35.071,58.8H29.525a1.2,1.2,0,0,1-1.2-1.2V52.814a3.973,3.973,0,0,1,3.964-3.964h0a3.973,3.973,0,0,1,3.973,3.964V57.6A1.2,1.2,0,0,1,35.071,58.8Z" transform="translate(-2.783 -5.549)" fill="#848952"/><path d="M29.624,57.6V52.814a3.964,3.964,0,0,1,3.317-3.9,3.757,3.757,0,0,0-.647-.063h0a3.973,3.973,0,0,0-3.964,3.964V57.6a1.2,1.2,0,0,0,1.2,1.2H30.82a1.2,1.2,0,0,1-1.2-1.2Z" transform="translate(-2.783 -5.549)" fill="#84d8cc"/><path d="M32.639,48.85a3.99,3.99,0,0,0-.9.1,3.973,3.973,0,0,1,3.092,3.865V57.6a1.2,1.2,0,0,1-1.2,1.2h1.753a1.2,1.2,0,0,0,1.2-1.2V52.814A3.973,3.973,0,0,0,32.639,48.85Z" transform="translate(-3.128 -5.549)" fill="#9ea072"/><path d="M32.777,59.256H31.77V57.943a.5.5,0,0,1,.5-.5h0a.5.5,0,0,1,.5.5Z" transform="translate(-3.131 -6.419)" fill="#9ea072"/><path d="M34.347,59.256H33.34V57.943a.5.5,0,0,1,.5-.5h0a.5.5,0,0,1,.5.5Z" transform="translate(-3.29 -6.419)" fill="#9ea072"/><path d="M35.89,59.256h-.98V57.943a.512.512,0,0,1,.512-.5h0a.5.5,0,0,1,.467.5Z" transform="translate(-3.449 -6.419)" fill="#9ea072"/><path d="M34.97,59.62H29.424a2.094,2.094,0,0,1-2.094-2.094V52.735a4.871,4.871,0,0,1,9.734,0v4.791A2.094,2.094,0,0,1,34.97,59.62Zm-2.777-9.95a3.065,3.065,0,0,0-3.065,3.065v4.791a.3.3,0,0,0,.3.3H34.97a.3.3,0,0,0,.3-.3V52.735A3.074,3.074,0,0,0,32.192,49.67Z" transform="translate(-2.682 -5.471)" fill="#122920"/><path d="M50.009,23.83a6.7,6.7,0,0,0-6.7,6.7v8.817a1.339,1.339,0,0,1-.7,1.177A4.665,4.665,0,0,0,44.868,49.3H48.3a4.494,4.494,0,0,0,4.539-4.539V38.471a2.013,2.013,0,0,1,2.085-1.959,2.058,2.058,0,0,0,2-2.049v-4.71A5.932,5.932,0,0,0,51,23.83Z" transform="translate(-3.978 -3.017)" fill="#848952"/><path d="M54.457,35.25H49.621a1.735,1.735,0,0,0-1.735,1.393,1.672,1.672,0,0,0,1.645,1.977h2.31a7.3,7.3,0,0,0,2.966-.737,2.157,2.157,0,0,1,.9-.2,2.148,2.148,0,0,0,.674-.144Z" transform="translate(-4.76 -4.173)" fill="#70724c"/><path d="M41.381,47.1a4.674,4.674,0,0,1,2.229-5.528,1.321,1.321,0,0,0,.7-1.177V31.579a6.705,6.705,0,0,1,6.714-6.7h.989A5.905,5.905,0,0,1,55.726,26.2,5.914,5.914,0,0,0,51,23.84H50.01a6.7,6.7,0,0,0-6.7,6.7v8.817a1.339,1.339,0,0,1-.7,1.177,4.674,4.674,0,0,0-2.247,5.528,4.377,4.377,0,0,0,1.618,2.283,4.242,4.242,0,0,1-.6-1.24Z" transform="translate(-3.979 -3.018)" fill="#82d1c6"/><path d="M51.666,23.83H50.031a5.932,5.932,0,0,1,5.3,5.9v4.692a2.049,2.049,0,0,1-2,2.049,2.013,2.013,0,0,0-2.085,1.959v6.292a4.494,4.494,0,0,1-4.494,4.539h2.265a4.494,4.494,0,0,0,4.539-4.539V38.426a2.013,2.013,0,0,1,2.085-1.959,2.058,2.058,0,0,0,2-2.049V29.753a5.932,5.932,0,0,0-5.977-5.923Z" transform="translate(-4.647 -3.017)" fill="#9ea072"/><path d="M53.868,37.773a2.121,2.121,0,0,0-1.8.9h.171a7.3,7.3,0,0,0,2.966-.737h0l.4-.09h.1a2.454,2.454,0,0,1,.449,0h0L56.5,37.8a2.22,2.22,0,0,0,.324-.1L55.764,36.47a2.031,2.031,0,0,1-1.9,1.3Z" transform="translate(-5.186 -4.297)" fill="#848952"/><path d="M53.29,26.409a.9.9,0,1,0,.9-.9A.9.9,0,0,0,53.29,26.409Z" transform="translate(-5.309 -3.187)" fill="#9ea072"/><path d="M54.87,27.334a.584.584,0,1,0,.584-.584A.584.584,0,0,0,54.87,27.334Z" transform="translate(-5.469 -3.313)" fill="#9ea072"/><path d="M51.77,28.167a.126.126,0,0,0,.126.126.123.123,0,1,0-.126-.126Z" transform="translate(-5.155 -3.444)" fill="#9ea072"/><path d="M48.2,50.1H44.767a5.564,5.564,0,0,1-2.7-10.462.458.458,0,0,0,.234-.4V30.425A7.6,7.6,0,0,1,49.9,22.83h.989a6.831,6.831,0,0,1,6.831,6.822v4.692a2.966,2.966,0,0,1-2.885,2.948,1.132,1.132,0,0,0-1.2,1.061v6.292A5.438,5.438,0,0,1,48.2,50.1Zm1.708-25.472a5.8,5.8,0,0,0-5.8,5.8v8.817a2.22,2.22,0,0,1-1.177,1.968,3.766,3.766,0,0,0,1.8,7.091h3.433a3.649,3.649,0,0,0,3.64-3.64V38.37a2.921,2.921,0,0,1,2.966-2.858,1.159,1.159,0,0,0,1.123-1.15v-4.71a5.033,5.033,0,0,0-5.033-5.024Z" transform="translate(-3.878 -2.916)" fill="#122920"/><path d="M52.462,30.558a.561.561,0,0,0,.279,1.088.575.575,0,0,0,.4-.683.557.557,0,0,0-.683-.4Z" transform="translate(-5.183 -3.696)" fill="#122920"/><path d="M52.66,35.389l1.294-.225a2.831,2.831,0,0,1,1.438.1,3.407,3.407,0,0,1,.683.306,1.8,1.8,0,0,0,.476.153,1.645,1.645,0,0,0,.467,0l.566-.072a.907.907,0,0,1,.243,1.8.782.782,0,0,1-.324,0h0l-.315-.072a3.775,3.775,0,0,1-.4-.1,3.6,3.6,0,0,1-.764-.333,3.775,3.775,0,0,1-.629-.5,3.245,3.245,0,0,0-.386-.4,2.238,2.238,0,0,0-1.043-.449Z" transform="translate(-5.245 -4.159)" fill="#122920"/><circle cx="1.672" cy="1.672" r="1.672" transform="translate(17.017 30.466)" fill="#4d8970"/><path d="M26.431,33.1a.44.44,0,1,1-.44-.431.44.44,0,0,1,.44.431Z" transform="translate(-2.502 -3.912)" fill="#4d8970"/><path d="M25.463,34.867a.3.3,0,1,1-.3-.3.3.3,0,0,1,.3.3Z" transform="translate(-2.433 -4.104)" fill="#4d8970"/><circle cx="0.171" cy="0.171" r="0.171" transform="translate(13.503 31.814)" fill="#4d8970"/><circle cx="0.458" cy="0.458" r="0.458" transform="translate(20.612 26.844)" fill="#4d8970"/><path d="M53.43,28.608a.288.288,0,1,0,.288-.288A.288.288,0,0,0,53.43,28.608Z" transform="translate(-5.323 -3.472)" fill="#9ea072"/></g></svg>