<svg xmlns="http://www.w3.org/2000/svg" width="94.706" height="28" viewBox="0 0 94.706 28"><path d="M6.415-4.6A3.712,3.712,0,0,1,10.35-7.837,3.447,3.447,0,0,1,14.058-4.6Zm10.67,5.676A2.451,2.451,0,0,0,13.755.81a4.764,4.764,0,0,1-3.065.838C8.837,1.649,6.6.772,6.339-1.285H17.728a1.644,1.644,0,0,0,1.627-1.638c0-5.6-4.011-9.333-9.043-9.333A8.9,8.9,0,0,0,1.08-3.075a9,9,0,0,0,9.232,9.3A11.075,11.075,0,0,0,16.4,4.62,2.317,2.317,0,0,0,17.085,1.077Zm14.87,4.229a2.677,2.677,0,0,0,3.481.229,2.338,2.338,0,0,0,.151-3.467L29.76-4.066,33.885-8.1a2.385,2.385,0,0,0-.341-3.39,2.5,2.5,0,0,0-3.405.3L26.015-7V-19.418a2.514,2.514,0,0,0-2.649-2.362,2.59,2.59,0,0,0-2.649,2.362V3.706a2.59,2.59,0,0,0,2.649,2.362,2.514,2.514,0,0,0,2.649-2.362V-1.132Zm13.508.914a9.014,9.014,0,0,0,9.308-9.3c0-5.6-4.162-9.181-9.308-9.181a8.89,8.89,0,0,0-9.27,9.181A8.983,8.983,0,0,0,45.463,6.22Zm0-5.143A4,4,0,0,1,41.49-3.075a3.924,3.924,0,0,1,3.973-4.038,3.932,3.932,0,0,1,4.011,4.038A4.006,4.006,0,0,1,45.463,1.077ZM66.424-12.256c-1.816,0-3.67,1.143-4.654,4.457V-9.742A2.514,2.514,0,0,0,59.122-12.1a2.59,2.59,0,0,0-2.649,2.362V3.706a2.59,2.59,0,0,0,2.649,2.362A2.514,2.514,0,0,0,61.77,3.706V-.675c.076-4.457,1.059-6.743,4.011-6.743.341,0,.908.038,1.286.038a2.441,2.441,0,0,0,2.611-1.943C70.019-11.837,68.165-12.256,66.424-12.256Zm3.14-6.248a3.219,3.219,0,0,0,3.292,3.124A3.152,3.152,0,0,0,76.073-18.5a3.121,3.121,0,0,0-3.216-3.086A3.187,3.187,0,0,0,69.565-18.5Zm5.94,8.762A2.514,2.514,0,0,0,72.857-12.1a2.59,2.59,0,0,0-2.649,2.362V3.706a2.59,2.59,0,0,0,2.649,2.362,2.514,2.514,0,0,0,2.649-2.362ZM86.478,6.22a9.014,9.014,0,0,0,9.308-9.3c0-5.6-4.162-9.181-9.308-9.181a8.89,8.89,0,0,0-9.27,9.181A8.983,8.983,0,0,0,86.478,6.22Zm0-5.143a4,4,0,0,1-3.973-4.152,3.924,3.924,0,0,1,3.973-4.038,3.932,3.932,0,0,1,4.011,4.038A4.006,4.006,0,0,1,86.478,1.077Z" transform="translate(-1.08 21.78)" fill="#f5f1f8"/></svg>