<svg xmlns="http://www.w3.org/2000/svg" width="399.597" height="539.87" viewBox="0 0 399.597 539.87"><g transform="translate(-14 -30.791)"><g transform="translate(2.709 18)"><path d="M259.458,83.9c-.4,1.6-.9,3.1-1.3,4.7-.1.2-.1.5-.2.7-.2.4-.4.7-.8.6a.749.749,0,0,1-.7-.6c-.2-.4-.3-.8-.5-1.3a79.462,79.462,0,0,1-2.4-9.3c-.5-2.7-.6-2.7-3.3-2-3,.8-6,1.7-9.1,2.5a10.462,10.462,0,0,1-1.7.4c-.5.1-1,.2-1.3-.4-.3-.5,0-.9.3-1.2.2-.3.5-.6.7-.9,2-2.3,4-4.7,6.3-6.9a3.469,3.469,0,0,0,1-3.6,86.205,86.205,0,0,1-2.5-11.2,2.462,2.462,0,0,1-.1-1.2.776.776,0,0,1,1.2-.6,4.125,4.125,0,0,1,1.3,1c1,1.1,2,2.1,2.9,3.2,1.3,1.6,2.8,3.1,4.2,4.6.6.7.7.6,1.1-.1l4.8-8.1c.5-.8,1-1.6,1.6-2.4.3-.4.6-.8,1.2-.7.6.2.6.7.6,1.2,0,1.6-.2,3.1-.3,4.7-.2,2.3-.5,4.5-.8,6.8-.2,1.4-.1,1.7,1.3,2.1a49.14,49.14,0,0,0,6.6,1.7,7.274,7.274,0,0,1,2.1.6c1.2.5,1.3,1.2.2,1.9a35.018,35.018,0,0,1-4.9,2.9c-1.3.6-2.7,1.3-4,1.9a1.3,1.3,0,0,0-.9,1A82.712,82.712,0,0,0,259.458,83.9Zm7.2-15.8a30.785,30.785,0,0,1-4.9-1.3,1.886,1.886,0,0,1-1.5-2.3,11.022,11.022,0,0,1,.2-1.8c.3-2.8.6-5.7.9-8.5,0-.2.2-.6-.1-.6-.3-.1-.4.3-.5.5-.4.7-.8,1.3-1.2,2-1.5,2.5-2.9,5-4.4,7.4-.7,1.1-1.4,1.2-2.3.3-1.5-1.6-3.1-3.2-4.5-4.9-.8-1-1.7-2-2.6-3-.1-.1-.3-.4-.5-.3-.3.1-.1.4-.1.7.2,1,.3,2,.5,3,.6,2.5,1.2,5.1,1.8,7.6a4.134,4.134,0,0,1-1.2,4.3c-1.9,1.9-3.6,3.9-5.4,5.8-.3.3-.6.7-.9,1a.367.367,0,0,0-.1.3h.3a6.468,6.468,0,0,0,1.3-.4c2.7-.8,5.5-1.5,8.2-2.3a15.525,15.525,0,0,1,2.1-.4,1.842,1.842,0,0,1,2.2,1.4,22.916,22.916,0,0,1,.7,2.8c.5,2.4,1.1,4.7,1.8,7.1.1.2.1.5.2.7a.349.349,0,0,0,.1.2c.2.1.2-.1.3-.2l.3-.9c.9-2.8,1.7-5.6,2.6-8.4a10.435,10.435,0,0,0,.8-2.5,1.292,1.292,0,0,1,.9-1.2c1.4-.7,2.8-1.4,4.3-2a33.023,33.023,0,0,0,4.1-2.3c.2-.1.4-.2.3-.4,0-.1-.3-.2-.4-.2A19.75,19.75,0,0,0,266.658,68.1Z" transform="translate(69.549 252.584)" fill="#43285a"/><path d="M251.025,54.731c-.243-.97-.546-1.88-.788-2.85-.061-.121-.061-.3-.121-.424-.121-.243-.243-.424-.485-.364a.454.454,0,0,0-.424.364c-.121.243-.182.485-.3.788a48.183,48.183,0,0,0-1.455,5.639c-.3,1.637-.364,1.637-2,1.213-1.819-.485-3.638-1.031-5.518-1.516a6.344,6.344,0,0,0-1.031-.243c-.3-.061-.606-.121-.788.243-.182.3,0,.546.182.728.121.182.3.364.424.546,1.213,1.395,2.426,2.85,3.82,4.184a2.1,2.1,0,0,1,.606,2.183,52.274,52.274,0,0,0-1.516,6.791,1.493,1.493,0,0,0-.061.728.471.471,0,0,0,.728.364,2.5,2.5,0,0,0,.788-.606c.606-.667,1.213-1.273,1.758-1.94.788-.97,1.7-1.88,2.547-2.789.364-.424.424-.364.667.061l2.911,4.912c.3.485.606.97.97,1.455.182.243.364.485.728.424.364-.121.364-.424.364-.728,0-.97-.121-1.88-.182-2.85-.121-1.395-.3-2.729-.485-4.123-.121-.849-.061-1.031.788-1.273a29.8,29.8,0,0,1,4-1.031,4.411,4.411,0,0,0,1.273-.364c.728-.3.788-.728.121-1.152a21.234,21.234,0,0,0-2.971-1.759c-.788-.364-1.637-.788-2.426-1.152a.791.791,0,0,1-.546-.606A50.153,50.153,0,0,1,251.025,54.731Zm4.366,9.581a18.667,18.667,0,0,0-2.971.788,1.144,1.144,0,0,0-.91,1.395,6.682,6.682,0,0,0,.121,1.091c.182,1.7.364,3.456.546,5.154,0,.121.121.364-.061.364-.182.061-.243-.182-.3-.3-.243-.424-.485-.788-.728-1.213-.91-1.516-1.758-3.032-2.668-4.487-.424-.667-.849-.728-1.395-.182-.91.97-1.88,1.94-2.729,2.971-.485.606-1.031,1.213-1.577,1.819-.061.061-.182.243-.3.182-.182-.061-.061-.243-.061-.424.121-.606.182-1.213.3-1.819.364-1.516.728-3.093,1.091-4.609a2.507,2.507,0,0,0-.728-2.607c-1.152-1.152-2.183-2.365-3.274-3.517-.182-.182-.364-.424-.546-.606a.223.223,0,0,1-.061-.182h.182a3.922,3.922,0,0,1,.788.243c1.637.485,3.335.91,4.972,1.395a9.415,9.415,0,0,0,1.273.243,1.117,1.117,0,0,0,1.334-.849,13.9,13.9,0,0,0,.424-1.7c.3-1.455.667-2.85,1.091-4.305.061-.121.061-.3.121-.424a.212.212,0,0,1,.061-.121c.121-.061.121.061.182.121l.182.546c.546,1.7,1.031,3.4,1.577,5.094a6.327,6.327,0,0,1,.485,1.516.783.783,0,0,0,.546.728c.849.424,1.7.849,2.607,1.213a20.024,20.024,0,0,1,2.486,1.395c.121.061.243.121.182.243,0,.061-.182.121-.243.121A11.976,11.976,0,0,1,255.391,64.312Z" transform="translate(-208.512 -38.289)" fill="#43285a"/><path d="M264.258,112.245c-.7,1.5-1.4,3-2.1,4.4a2.108,2.108,0,0,0,.2,2.6c.9,1.1,1.6,2.3,2.4,3.5a3.129,3.129,0,0,1,.5,1c.3.7,0,1.2-.8,1.3a2.437,2.437,0,0,1-1.2,0c-1.3-.1-2.6-.1-3.9-.3a1,1,0,0,0-1.3.8c-.4,1-.9,1.9-1.3,2.8a2.092,2.092,0,0,1-.4.6.874.874,0,0,1-.9.5c-.4-.1-.5-.5-.6-.9a14.768,14.768,0,0,1-.1-2.1c-.1-2.1-.1-2.1-2.2-2.4-1.8-.2-3.5-.4-5.3-.6a5.02,5.02,0,0,1-1.2-.2c-.8-.2-1-.8-.5-1.5a5.241,5.241,0,0,1,1.1-1c1.8-1.3,3.8-2.4,5.7-3.5,1.8-1.1,1.6-.5,1.4-2.6-.2-2-.3-3.9-.5-5.9v-.6c0-.4,0-.8.4-1a.778.778,0,0,1,1,.4c.6.8,1.2,1.7,1.8,2.5.7,1,1.4,2,2.1,3.1.3.4.5.4.9.2,1-.6,2-1.2,3-1.7.2-.1.5-.3.7-.4.4-.2.8-.4,1.2-.1A1.986,1.986,0,0,1,264.258,112.245Zm-8.2,11.2c1.2.3,1.5.2,2.1-1,.3-.6.6-1.2.9-1.9,1.1-2.3,1.1-2.3-.4-4.5,0-.1-.1-.1-.1-.2a.487.487,0,0,0-.8-.2c-.8.5-1.6.9-2.4,1.3a.755.755,0,0,0-.4.7c.2,1.7.3,3.4.5,5.2C255.558,123.145,255.658,123.445,256.058,123.445Zm-8.6-1c.5,0,.9.1,1.4.1,1.6.2,3.3.4,4.9.6.4,0,.7,0,.6-.5-.1-1.4-.3-2.9-.4-4.3,0-.4-.3-.4-.6-.3a59.523,59.523,0,0,0-6,3.6c-.1.1-.3.2-.3.4C246.958,122.445,247.258,122.345,247.458,122.445Zm11.7.6c-.1.3-.2.6.3.6,1.4.1,2.7.2,4.1.2.4,0,.5-.2.3-.5-.8-1.2-1.6-2.5-2.5-3.7-.2-.3-.4-.2-.6.1C260.158,120.945,259.658,122.045,259.158,123.045Zm-4.2-7.3c.2,0,.3-.1.4-.1.6-.3,1.2-.6,1.7-.9.5-.2.4-.5.2-.9-.8-1.1-1.6-2.3-2.4-3.5-.1-.1-.2-.3-.4-.2-.1,0-.1.2-.1.3.1,1.6.3,3.2.4,4.8C254.858,115.445,254.858,115.645,254.958,115.745Zm7.5-2.1c.1-.3.2-.5,0-.6a.367.367,0,0,0-.3.1c-.5.3-.9.5-1.4.8-1.6.9-1.6.5-.5,2.3.1.1.1.2.2.3.2.2.4.3.6-.1C261.558,115.545,262.058,114.545,262.458,113.645Zm-5.7,11.7c.1-.2.3-.5,0-.6a1.1,1.1,0,0,0-.8,0c-.3,0-.2.3-.2.5.1.5-.1,1.1.3,1.5A6.111,6.111,0,0,0,256.758,125.345Z" transform="translate(-169.737 176.973)" fill="#43285a"/><path d="M247.136,165.647a1.149,1.149,0,0,1,.6-.9,17.683,17.683,0,0,1,2.2-1.6,1.479,1.479,0,0,0,.6-1.8l-.9-3a5.852,5.852,0,0,1-.2-1.3c0-.7.6-.9,1.1-.5a2.337,2.337,0,0,1,.7.7,18.844,18.844,0,0,0,2.6,2.2c.5.3.8.3,1-.2.6-1.3,1.3-2.5,1.9-3.7a3,3,0,0,1,.4-.8.625.625,0,0,1,1.1.2,3.4,3.4,0,0,1,.1,1c.1,1.5.1,3.1.2,4.6a1.335,1.335,0,0,0,.9,1.4c1,.4,2,.9,3,1.4a5.3,5.3,0,0,1,1,.6c.4.3.3.6,0,.9a1.676,1.676,0,0,1-1.2.3,29.623,29.623,0,0,1-3.1.3,1.172,1.172,0,0,0-1.1.9c-.4,1.5-.9,3-1.4,4.5-.1.3-.2.5-.3.8a.792.792,0,0,1-.8.5.634.634,0,0,1-.6-.5,18.285,18.285,0,0,1-.8-2.5c-.2-.7-.4-1.4-.6-2-.4-1.2-.4-1.2-1.6-1.2a22.754,22.754,0,0,0-2.6.2,7.719,7.719,0,0,1-1.5.2C247.436,166.147,247.136,166.047,247.136,165.647Z" transform="translate(-73.915 226.225)" fill="#43285a"/><path d="M250.915,203.417a17.685,17.685,0,0,1,2.2,1.6c.7.5,1.2,1.4,2,1.2.7-.2.9-1.2,1.3-1.8s.8-1.3,1.2-1.9c.2-.3.4-.5.8-.4a.838.838,0,0,1,.6.8c0,1.1-.1,2.2-.2,3.3,0,.4-.1.8-.1,1.2-.1,1.3-.1,1.3,1.2,1.4,1.1.1,2.2.1,3.3.1.5,0,1,0,1.2.6s-.2,1-.6,1.3a19.052,19.052,0,0,1-4.1,2.6,3.073,3.073,0,0,0-1.9,2.1,14.194,14.194,0,0,1-1,2.9c-.2.5-.3,1.3-1,1.2s-.6-.8-.7-1.3l-.6-3.3c-.2-1.1-.2-1.2-1.3-.8-1.3.4-2.6,1-4,1.4-.3.1-.7.3-1.1.4s-.9.4-1.2-.1c-.4-.5,0-.9.3-1.3l.6-.6a20.573,20.573,0,0,1,3-2.9,1.581,1.581,0,0,0,.5-2l-1.5-3.9a2.958,2.958,0,0,1-.2-1A.921.921,0,0,1,250.915,203.417Zm-1.3,10.6c0,.2.1.3.2.2.3-.1.5-.2.8-.3,1-.3,1.9-.7,2.9-1,1.5-.4,1.9-.1,2.1,1.3a15.527,15.527,0,0,0,.4,2.1c0,.2,0,.5.3.5.2,0,.2-.2.2-.4a18.285,18.285,0,0,0,.8-2.5,1.589,1.589,0,0,1,1-1.1,29.3,29.3,0,0,0,3.9-2.1c.1-.1.3-.2.2-.4,0-.1-.3-.1-.4-.1h-1.1c-.7-.1-1.5-.1-2.2-.2-1.1-.2-1.3-.5-1.3-1.6,0-.4.1-.7.1-1.1.1-.6.1-1.1.2-1.7,0-.2,0-.4-.2-.5l-.3.3-.9,1.5c-.8,1.1-1.2,1.2-2.3.4-.8-.6-1.5-1.1-2.3-1.7a.367.367,0,0,0-.3-.1c-.2.1-.1.3,0,.4.4,1.1.8,2.2,1.2,3.4a1.853,1.853,0,0,1-.6,2.4c-.7.6-1.4,1.3-2.2,2C249.815,213.817,249.715,213.917,249.615,214.017Z" transform="translate(86.829 222.801)" fill="#43285a"/><path d="M249.76,302.389a30.964,30.964,0,0,1,3.447.53c1.326.265,1.458.265,1.989-1.061.53-1.193,1.061-2.254,1.591-3.447.265-.53.53-1.061,1.193-.928a1.275,1.275,0,0,1,1.061,1.193,35.734,35.734,0,0,1,.53,3.712c.265,1.591.265,1.458,1.856,1.591a32.5,32.5,0,0,1,3.58.265,1.291,1.291,0,0,1,1.458.928,1.176,1.176,0,0,1-.8,1.326l-3.978,3.182a1.449,1.449,0,0,0-.53,1.591c.265,1.061.4,2.254.663,3.447.133.53.133,1.326-.53,1.591a1.449,1.449,0,0,1-1.591-.53c-.4-.4-.8-.928-1.193-1.326-1.458-1.458-.928-1.591-2.917-.265-.928.663-1.989,1.193-2.917,1.856-.663.4-1.458.928-2.254.265s-.4-1.591,0-2.387c.53-1.458,1.193-2.784,1.724-4.243.53-1.326.53-1.326-.53-2.387-.8-.928-1.591-1.724-2.519-2.652-.4-.4-.8-.8-.53-1.458C248.434,302.522,248.832,302.389,249.76,302.389Zm9.148,6.364c-.133-.8-.265-1.458-.4-2.254-.265-1.193-.265-1.061-1.856-1.326a1.258,1.258,0,0,0-1.591.928c-.928,2.254-.928,1.591.53,3.182.265.265.4.53.663.663.4.4.663,1.061,1.326.53C258.245,310.079,259.041,309.814,258.908,308.753Zm-5.171.928c-.133,0-.265.133-.4.265-.53,1.193-1.061,2.519-1.591,3.712,0,.133.133.265.133.4.133,0,.265,0,.265-.133,1.061-.663,2.121-1.326,3.182-2.121.133-.133.265-.265.265-.4C255.461,311.272,254,309.681,253.737,309.681Zm8.088-4.11h-1.193c-.53,0-.663.265-.53.8s-.133,1.458.53,1.724c.53.265.928-.53,1.458-.928a.13.13,0,0,0,.133-.133c.4-.4,1.326-.663,1.193-1.193C263.151,305.306,262.223,305.7,261.825,305.571Zm-3.845-2.652c-.133-1.458-.265-1.989-.4-1.856-.663.265-.663,1.061-.928,1.591-.133.265-.4.663,0,.8a1,1,0,0,0,1.061.133C258.113,303.45,257.98,303.052,257.98,302.919Zm-5.038,3.315h.133a1.822,1.822,0,0,0,.663-1.061c.133-.53-.4-.4-.663-.53a5.638,5.638,0,0,0-1.458-.265c-.265,0-.4,0-.4.265A18.842,18.842,0,0,0,252.942,306.234Zm6.629,6.231c-.265-.265.133-.928-.663-.928a.57.57,0,0,0-.53.53,1.4,1.4,0,0,0,.8.928C259.571,313.128,259.571,312.73,259.571,312.465Z" transform="translate(-54.695 4.266)" fill="#43285a"/><path d="M261.1,301.178a23.355,23.355,0,0,0-2.6.4c-1,.2-1.1.2-1.5-.8-.4-.9-.8-1.7-1.2-2.6-.2-.4-.4-.8-.9-.7a.962.962,0,0,0-.8.9,26.954,26.954,0,0,0-.4,2.8c-.2,1.2-.2,1.1-1.4,1.2a24.518,24.518,0,0,0-2.7.2.973.973,0,0,0-1.1.7.887.887,0,0,0,.6,1l3,2.4a1.093,1.093,0,0,1,.4,1.2c-.2.8-.3,1.7-.5,2.6-.1.4-.1,1,.4,1.2a1.093,1.093,0,0,0,1.2-.4c.3-.3.6-.7.9-1,1.1-1.1.7-1.2,2.2-.2.7.5,1.5.9,2.2,1.4.5.3,1.1.7,1.7.2s.3-1.2,0-1.8c-.4-1.1-.9-2.1-1.3-3.2-.4-1-.4-1,.4-1.8.6-.7,1.2-1.3,1.9-2,.3-.3.6-.6.4-1.1C262.1,301.278,261.8,301.178,261.1,301.178Zm-6.9,4.8c.1-.6.2-1.1.3-1.7.2-.9.2-.8,1.4-1a.949.949,0,0,1,1.2.7c.7,1.7.7,1.2-.4,2.4-.2.2-.3.4-.5.5-.3.3-.5.8-1,.4C254.7,306.978,254.1,306.778,254.2,305.978Zm3.9.7c.1,0,.2.1.3.2.4.9.8,1.9,1.2,2.8,0,.1-.1.2-.1.3-.1,0-.2,0-.2-.1-.8-.5-1.6-1-2.4-1.6-.1-.1-.2-.2-.2-.3C256.8,307.878,257.9,306.678,258.1,306.678Zm-6.1-3.1h.9c.4,0,.5.2.4.6s.1,1.1-.4,1.3c-.4.2-.7-.4-1.1-.7a.1.1,0,0,1-.1-.1c-.3-.3-1-.5-.9-.9C251,303.378,251.7,303.678,252,303.578Zm2.9-2c.1-1.1.2-1.5.3-1.4.5.2.5.8.7,1.2.1.2.3.5,0,.6a.755.755,0,0,1-.8.1C254.8,301.978,254.9,301.678,254.9,301.578Zm3.8,2.5h-.1a1.374,1.374,0,0,1-.5-.8c-.1-.4.3-.3.5-.4a4.253,4.253,0,0,1,1.1-.2c.2,0,.3,0,.3.2A14.208,14.208,0,0,1,258.7,304.078Zm-5,4.7c.2-.2-.1-.7.5-.7a.43.43,0,0,1,.4.4,1.057,1.057,0,0,1-.6.7C253.7,309.278,253.7,308.978,253.7,308.778Z" transform="translate(0.305 79.574)" fill="#43285a"/><path d="M257.885,260.629a10.713,10.713,0,0,1,.6,2.7c.1.7.1,1.4.2,2.1,0,.3-.1.7-.4.8-.4.2-.7,0-1-.3a28.961,28.961,0,0,1-1.9-2.9c-.8-1.1-.8-1.2-2.1-.7-1,.4-1.9.8-2.8,1.2-.3.1-.6.3-.9.4a.765.765,0,0,1-.9-.2.75.75,0,0,1,0-.9,3.039,3.039,0,0,0,.5-.7c.6-.9,1.2-1.8,1.8-2.6a1.2,1.2,0,0,0,.1-1.5c-.6-.9-1.1-1.8-1.6-2.6-.2-.3-.3-.6-.5-.9a.75.75,0,0,1,0-.9.765.765,0,0,1,.9-.2,4.235,4.235,0,0,1,1.4.6l2.1,1.2c.7.4.8.4,1-.4.2-1,.4-2.1.6-3.2.1-.5,0-1.2.7-1.3.8-.1.9.6,1.1,1.1.4,1.1.8,2.3,1.1,3.4.3.8.3.8,1.1.6.7-.1,1.4-.3,2.1-.4.4-.1.9-.1,1.1.3s-.1.8-.4,1.1c-1.2,1.1-2.3,2.1-3.5,3.2C258.085,259.929,257.785,260.129,257.885,260.629Zm.4-3.7a1.206,1.206,0,0,1-1.2-.8l-.6-1.8c-.1-.2-.1-.7-.4-.6-.3,0-.2.4-.3.6-.1.5-.2,1-.3,1.4-.4,1.2-.9,1.4-2,.8-.7-.4-1.4-.8-2-1.1a.494.494,0,0,0-.3-.1c-.2.1,0,.3.1.4.4.7.8,1.4,1.2,2a1.958,1.958,0,0,1-.1,2.2l-.9,1.2c-.1.2-.4.4-.3.6.2.3.4,0,.7-.1.6-.2,1.2-.5,1.8-.7a1.862,1.862,0,0,1,2.5.9c.3.4.6.9.9,1.3.1.1.2.2.3.2.2,0,.2-.3.1-.4-.2-.7-.3-1.5-.5-2.2a1.463,1.463,0,0,1,.6-1.9,11.981,11.981,0,0,0,1.2-1.1c.4-.4,1.1-.6,1-1.2A11.318,11.318,0,0,0,258.285,256.929Z" transform="translate(76.343 -25.111)" fill="#43285a"/><path d="M261.013,257.9a14.3,14.3,0,0,0,.8-3.6c.133-.934.133-1.868.267-2.8,0-.4-.133-.934-.534-1.068-.534-.267-.934,0-1.335.4a38.646,38.646,0,0,0-2.536,3.87c-1.068,1.468-1.068,1.6-2.8.934-1.335-.534-2.536-1.068-3.737-1.6-.4-.133-.8-.4-1.2-.534a1.02,1.02,0,0,0-1.2.267,1,1,0,0,0,0,1.2,4.055,4.055,0,0,1,.667.934c.8,1.2,1.6,2.4,2.4,3.47a1.6,1.6,0,0,1,.133,2c-.8,1.2-1.468,2.4-2.135,3.47-.267.4-.4.8-.667,1.2a1,1,0,0,0,0,1.2,1.021,1.021,0,0,0,1.2.267,5.652,5.652,0,0,0,1.868-.8l2.8-1.6c.934-.534,1.068-.534,1.335.534.267,1.335.534,2.8.8,4.271.133.667,0,1.6.934,1.735,1.068.133,1.2-.8,1.468-1.468.534-1.468,1.068-3.069,1.468-4.538.4-1.068.4-1.068,1.468-.8.934.133,1.868.4,2.8.534.534.133,1.2.133,1.468-.4s-.133-1.068-.534-1.468c-1.6-1.468-3.069-2.8-4.671-4.271C261.28,258.835,260.88,258.568,261.013,257.9Zm.534,4.938a1.609,1.609,0,0,0-1.6,1.068l-.8,2.4c-.133.267-.133.934-.534.8-.4,0-.267-.534-.4-.8-.133-.667-.267-1.335-.4-1.868-.534-1.6-1.2-1.868-2.669-1.068-.934.534-1.868,1.068-2.669,1.468a.659.659,0,0,1-.4.133c-.267-.133,0-.4.133-.534.534-.934,1.068-1.868,1.6-2.669a2.613,2.613,0,0,0-.133-2.936l-1.2-1.6c-.133-.267-.534-.534-.4-.8.267-.4.534,0,.934.133.8.267,1.6.667,2.4.934,1.6.534,2.4.133,3.336-1.2.4-.534.8-1.2,1.2-1.735.133-.133.267-.267.4-.267.267,0,.267.4.133.534-.267.934-.4,2-.667,2.936a1.953,1.953,0,0,0,.8,2.536,16,16,0,0,1,1.6,1.468c.534.534,1.468.8,1.335,1.6A15.108,15.108,0,0,1,261.547,262.838Z" transform="translate(144.049 123.273)" fill="#43285a"/><path d="M256.238,268.513a18.9,18.9,0,0,0-1.059,4.765c-.177,1.235-.177,2.471-.353,3.706,0,.529.176,1.235.706,1.412.706.353,1.235,0,1.765-.529a51.113,51.113,0,0,0,3.353-5.118c1.412-1.941,1.412-2.118,3.706-1.235,1.765.706,3.353,1.412,4.941,2.118.529.176,1.059.529,1.588.706a1.349,1.349,0,0,0,1.588-.353,1.323,1.323,0,0,0,0-1.588,5.362,5.362,0,0,1-.882-1.235c-1.059-1.588-2.118-3.176-3.176-4.588a2.118,2.118,0,0,1-.176-2.647c1.059-1.588,1.941-3.176,2.824-4.588.353-.529.529-1.059.882-1.588a1.323,1.323,0,0,0,0-1.588,1.35,1.35,0,0,0-1.588-.353,7.473,7.473,0,0,0-2.471,1.059l-3.706,2.118c-1.235.706-1.412.706-1.765-.706-.353-1.765-.706-3.706-1.059-5.647-.176-.882,0-2.118-1.235-2.294-1.412-.176-1.588,1.059-1.941,1.941-.706,1.941-1.412,4.059-1.941,6-.529,1.412-.529,1.412-1.941,1.059-1.235-.176-2.471-.529-3.706-.706-.706-.176-1.588-.176-1.941.529s.177,1.412.706,1.941c2.118,1.941,4.059,3.706,6.176,5.647C255.885,267.278,256.414,267.631,256.238,268.513Zm-.706-6.529a2.128,2.128,0,0,0,2.118-1.412l1.059-3.176c.176-.353.176-1.235.706-1.059.529,0,.353.706.529,1.059.176.882.353,1.765.529,2.471.706,2.118,1.588,2.471,3.529,1.412,1.235-.706,2.471-1.412,3.529-1.941a.871.871,0,0,1,.529-.176c.353.176,0,.529-.176.706-.706,1.235-1.412,2.471-2.118,3.529a3.455,3.455,0,0,0,.176,3.882l1.588,2.118c.176.353.706.706.529,1.059-.353.529-.706,0-1.235-.176-1.059-.353-2.118-.882-3.176-1.235-2.118-.706-3.176-.176-4.412,1.588-.529.706-1.059,1.588-1.588,2.294-.177.176-.353.353-.529.353-.353,0-.353-.529-.176-.706.353-1.235.529-2.647.882-3.882a2.582,2.582,0,0,0-1.059-3.353,21.142,21.142,0,0,1-2.118-1.941c-.706-.706-1.941-1.059-1.765-2.118A19.972,19.972,0,0,1,255.532,261.983Z" transform="translate(-167.956 119.834)" fill="#43285a"/><path d="M246.018,54.731c.243-.97.546-1.88.788-2.85.061-.121.061-.3.121-.424.121-.243.243-.424.485-.364a.454.454,0,0,1,.424.364c.121.243.182.485.3.788a48.183,48.183,0,0,1,1.455,5.639c.3,1.637.364,1.637,2,1.213,1.819-.485,3.638-1.031,5.518-1.516a6.344,6.344,0,0,1,1.031-.243c.3-.061.606-.121.788.243.182.3,0,.546-.182.728-.121.182-.3.364-.424.546-1.213,1.395-2.426,2.85-3.82,4.184a2.1,2.1,0,0,0-.606,2.183,52.274,52.274,0,0,1,1.516,6.791,1.493,1.493,0,0,1,.061.728.471.471,0,0,1-.728.364,2.5,2.5,0,0,1-.788-.606c-.606-.667-1.213-1.273-1.758-1.94-.788-.97-1.7-1.88-2.547-2.789-.364-.424-.424-.364-.667.061l-2.911,4.912c-.3.485-.606.97-.97,1.455-.182.243-.364.485-.728.424-.364-.121-.364-.424-.364-.728,0-.97.121-1.88.182-2.85.121-1.395.3-2.729.485-4.123.121-.849.061-1.031-.788-1.273a29.8,29.8,0,0,0-4-1.031,4.411,4.411,0,0,1-1.273-.364c-.728-.3-.788-.728-.121-1.152a21.234,21.234,0,0,1,2.971-1.759c.788-.364,1.637-.788,2.426-1.152a.791.791,0,0,0,.546-.606A50.153,50.153,0,0,0,246.018,54.731Zm-4.366,9.581a18.667,18.667,0,0,1,2.971.788,1.144,1.144,0,0,1,.91,1.395,6.682,6.682,0,0,1-.121,1.091c-.182,1.7-.364,3.456-.546,5.154,0,.121-.121.364.061.364.182.061.243-.182.3-.3.243-.424.485-.788.728-1.213.91-1.516,1.758-3.032,2.668-4.487.424-.667.849-.728,1.395-.182.91.97,1.88,1.94,2.729,2.971.485.606,1.031,1.213,1.577,1.819.061.061.182.243.3.182.182-.061.061-.243.061-.424-.121-.606-.182-1.213-.3-1.819-.364-1.516-.728-3.093-1.091-4.609a2.507,2.507,0,0,1,.728-2.607c1.152-1.152,2.183-2.365,3.274-3.517.182-.182.364-.424.546-.606a.223.223,0,0,0,.061-.182h-.182a3.922,3.922,0,0,0-.788.243c-1.637.485-3.335.91-4.972,1.395a9.415,9.415,0,0,1-1.273.243,1.117,1.117,0,0,1-1.334-.849,13.9,13.9,0,0,1-.424-1.7c-.3-1.455-.667-2.85-1.091-4.305-.061-.121-.061-.3-.121-.424a.212.212,0,0,0-.061-.121c-.121-.061-.121.061-.182.121l-.182.546c-.546,1.7-1.031,3.4-1.577,5.094a6.327,6.327,0,0,0-.485,1.516.783.783,0,0,1-.546.728c-.849.424-1.7.849-2.607,1.213a20.024,20.024,0,0,0-2.486,1.395c-.121.061-.243.121-.182.243,0,.061.182.121.243.121A11.976,11.976,0,0,0,241.652,64.312Z" transform="matrix(0.53, 0.848, -0.848, 0.53, 44.012, 150.318)" fill="#43285a"/><path d="M246.4,112.245c.7,1.5,1.4,3,2.1,4.4a2.108,2.108,0,0,1-.2,2.6c-.9,1.1-1.6,2.3-2.4,3.5a3.129,3.129,0,0,0-.5,1c-.3.7,0,1.2.8,1.3a2.437,2.437,0,0,0,1.2,0c1.3-.1,2.6-.1,3.9-.3a1,1,0,0,1,1.3.8c.4,1,.9,1.9,1.3,2.8a2.092,2.092,0,0,0,.4.6.874.874,0,0,0,.9.5c.4-.1.5-.5.6-.9a14.768,14.768,0,0,0,.1-2.1c.1-2.1.1-2.1,2.2-2.4,1.8-.2,3.5-.4,5.3-.6a5.02,5.02,0,0,0,1.2-.2c.8-.2,1-.8.5-1.5a5.241,5.241,0,0,0-1.1-1c-1.8-1.3-3.8-2.4-5.7-3.5-1.8-1.1-1.6-.5-1.4-2.6.2-2,.3-3.9.5-5.9v-.6c0-.4,0-.8-.4-1a.778.778,0,0,0-1,.4c-.6.8-1.2,1.7-1.8,2.5-.7,1-1.4,2-2.1,3.1-.3.4-.5.4-.9.2-1-.6-2-1.2-3-1.7-.2-.1-.5-.3-.7-.4-.4-.2-.8-.4-1.2-.1A1.986,1.986,0,0,0,246.4,112.245Zm8.2,11.2c-1.2.3-1.5.2-2.1-1-.3-.6-.6-1.2-.9-1.9-1.1-2.3-1.1-2.3.4-4.5,0-.1.1-.1.1-.2a.487.487,0,0,1,.8-.2c.8.5,1.6.9,2.4,1.3a.755.755,0,0,1,.4.7c-.2,1.7-.3,3.4-.5,5.2C255.1,123.145,255,123.445,254.6,123.445Zm8.6-1c-.5,0-.9.1-1.4.1-1.6.2-3.3.4-4.9.6-.4,0-.7,0-.6-.5.1-1.4.3-2.9.4-4.3,0-.4.3-.4.6-.3a59.523,59.523,0,0,1,6,3.6c.1.1.3.2.3.4C263.7,122.445,263.4,122.345,263.2,122.445Zm-11.7.6c.1.3.2.6-.3.6-1.4.1-2.7.2-4.1.2-.4,0-.5-.2-.3-.5.8-1.2,1.6-2.5,2.5-3.7.2-.3.4-.2.6.1C250.5,120.945,251,122.045,251.5,123.045Zm4.2-7.3c-.2,0-.3-.1-.4-.1-.6-.3-1.2-.6-1.7-.9-.5-.2-.4-.5-.2-.9.8-1.1,1.6-2.3,2.4-3.5.1-.1.2-.3.4-.2.1,0,.1.2.1.3-.1,1.6-.3,3.2-.4,4.8C255.8,115.445,255.8,115.645,255.7,115.745Zm-7.5-2.1c-.1-.3-.2-.5,0-.6a.367.367,0,0,1,.3.1c.5.3.9.5,1.4.8,1.6.9,1.6.5.5,2.3-.1.1-.1.2-.2.3-.2.2-.4.3-.6-.1C249.1,115.545,248.6,114.545,248.2,113.645Zm5.7,11.7c-.1-.2-.3-.5,0-.6a1.1,1.1,0,0,1,.8,0c.3,0,.2.3.2.5-.1.5.1,1.1-.3,1.5A6.111,6.111,0,0,1,253.9,125.345Z" transform="matrix(0.53, 0.848, -0.848, 0.53, 81.484, 214.556)" fill="#43285a"/><path d="M265.212,302.389a30.964,30.964,0,0,0-3.447.53c-1.326.265-1.458.265-1.989-1.061-.53-1.193-1.061-2.254-1.591-3.447-.265-.53-.53-1.061-1.193-.928a1.275,1.275,0,0,0-1.061,1.193,35.734,35.734,0,0,0-.53,3.712c-.265,1.591-.265,1.458-1.856,1.591a32.5,32.5,0,0,0-3.58.265,1.291,1.291,0,0,0-1.458.928,1.176,1.176,0,0,0,.8,1.326l3.978,3.182a1.449,1.449,0,0,1,.53,1.591c-.265,1.061-.4,2.254-.663,3.447-.133.53-.133,1.326.53,1.591a1.449,1.449,0,0,0,1.591-.53c.4-.4.8-.928,1.193-1.326,1.458-1.458.928-1.591,2.917-.265.928.663,1.989,1.193,2.917,1.856.663.4,1.458.928,2.254.265s.4-1.591,0-2.387c-.53-1.458-1.193-2.784-1.724-4.243-.53-1.326-.53-1.326.53-2.387.8-.928,1.591-1.724,2.519-2.652.4-.4.8-.8.53-1.458C266.538,302.522,266.14,302.389,265.212,302.389Zm-9.148,6.364c.133-.8.265-1.458.4-2.254.265-1.193.265-1.061,1.856-1.326a1.258,1.258,0,0,1,1.591.928c.928,2.254.928,1.591-.53,3.182-.265.265-.4.53-.663.663-.4.4-.663,1.061-1.326.53C256.726,310.079,255.931,309.814,256.064,308.753Zm5.171.928c.133,0,.265.133.4.265.53,1.193,1.061,2.519,1.591,3.712,0,.133-.133.265-.133.4-.133,0-.265,0-.265-.133-1.061-.663-2.121-1.326-3.182-2.121-.133-.133-.265-.265-.265-.4C259.511,311.272,260.969,309.681,261.234,309.681Zm-8.088-4.11h1.193c.53,0,.663.265.53.8s.133,1.458-.53,1.724c-.53.265-.928-.53-1.458-.928a.13.13,0,0,1-.133-.133c-.4-.4-1.326-.663-1.193-1.193C251.821,305.306,252.749,305.7,253.147,305.571Zm3.845-2.652c.133-1.458.265-1.989.4-1.856.663.265.663,1.061.928,1.591.133.265.4.663,0,.8a1,1,0,0,1-1.061.133C256.859,303.45,256.992,303.052,256.992,302.919Zm5.038,3.315H261.9a1.822,1.822,0,0,1-.663-1.061c-.133-.53.4-.4.663-.53a5.638,5.638,0,0,1,1.458-.265c.265,0,.4,0,.4.265A18.842,18.842,0,0,1,262.03,306.234Zm-6.629,6.231c.265-.265-.133-.928.663-.928a.57.57,0,0,1,.53.53,1.4,1.4,0,0,1-.8.928C255.4,313.128,255.4,312.73,255.4,312.465Z" transform="matrix(0.53, 0.848, -0.848, 0.53, 164.7, 21.816)" fill="#43285a"/><path d="M252.9,260.629a10.713,10.713,0,0,0-.6,2.7c-.1.7-.1,1.4-.2,2.1,0,.3.1.7.4.8.4.2.7,0,1-.3a28.961,28.961,0,0,0,1.9-2.9c.8-1.1.8-1.2,2.1-.7,1,.4,1.9.8,2.8,1.2.3.1.6.3.9.4a.765.765,0,0,0,.9-.2.75.75,0,0,0,0-.9,3.039,3.039,0,0,1-.5-.7c-.6-.9-1.2-1.8-1.8-2.6a1.2,1.2,0,0,1-.1-1.5c.6-.9,1.1-1.8,1.6-2.6.2-.3.3-.6.5-.9a.75.75,0,0,0,0-.9.765.765,0,0,0-.9-.2,4.235,4.235,0,0,0-1.4.6l-2.1,1.2c-.7.4-.8.4-1-.4-.2-1-.4-2.1-.6-3.2-.1-.5,0-1.2-.7-1.3-.8-.1-.9.6-1.1,1.1-.4,1.1-.8,2.3-1.1,3.4-.3.8-.3.8-1.1.6-.7-.1-1.4-.3-2.1-.4-.4-.1-.9-.1-1.1.3s.1.8.4,1.1c1.2,1.1,2.3,2.1,3.5,3.2C252.7,259.929,253,260.129,252.9,260.629Zm-.4-3.7a1.206,1.206,0,0,0,1.2-.8l.6-1.8c.1-.2.1-.7.4-.6.3,0,.2.4.3.6.1.5.2,1,.3,1.4.4,1.2.9,1.4,2,.8.7-.4,1.4-.8,2-1.1a.494.494,0,0,1,.3-.1c.2.1,0,.3-.1.4-.4.7-.8,1.4-1.2,2a1.958,1.958,0,0,0,.1,2.2l.9,1.2c.1.2.4.4.3.6-.2.3-.4,0-.7-.1-.6-.2-1.2-.5-1.8-.7a1.862,1.862,0,0,0-2.5.9c-.3.4-.6.9-.9,1.3-.1.1-.2.2-.3.2-.2,0-.2-.3-.1-.4.2-.7.3-1.5.5-2.2a1.463,1.463,0,0,0-.6-1.9,11.981,11.981,0,0,1-1.2-1.1c-.4-.4-1.1-.6-1-1.2A11.318,11.318,0,0,1,252.5,256.929Z" transform="matrix(0.53, 0.848, -0.848, 0.53, 105.431, -90.729)" fill="#43285a"/><path d="M265.035,268.513a18.9,18.9,0,0,1,1.059,4.765c.177,1.235.177,2.471.353,3.706,0,.529-.176,1.235-.706,1.412-.706.353-1.235,0-1.765-.529a51.113,51.113,0,0,1-3.353-5.118c-1.412-1.941-1.412-2.118-3.706-1.235-1.765.706-3.353,1.412-4.941,2.118-.529.176-1.059.529-1.588.706a1.349,1.349,0,0,1-1.588-.353,1.323,1.323,0,0,1,0-1.588,5.362,5.362,0,0,0,.882-1.235c1.059-1.588,2.118-3.176,3.176-4.588a2.118,2.118,0,0,0,.176-2.647c-1.059-1.588-1.941-3.176-2.824-4.588-.353-.529-.529-1.059-.882-1.588a1.323,1.323,0,0,1,0-1.588,1.35,1.35,0,0,1,1.588-.353,7.473,7.473,0,0,1,2.471,1.059l3.706,2.118c1.235.706,1.412.706,1.765-.706.353-1.765.706-3.706,1.059-5.647.176-.882,0-2.118,1.235-2.294,1.412-.176,1.588,1.059,1.941,1.941.706,1.941,1.412,4.059,1.941,6,.529,1.412.529,1.412,1.941,1.059,1.235-.176,2.471-.529,3.706-.706.706-.176,1.588-.176,1.941.529s-.177,1.412-.706,1.941c-2.118,1.941-4.059,3.706-6.176,5.647C265.388,267.278,264.859,267.631,265.035,268.513Zm.706-6.529a2.128,2.128,0,0,1-2.118-1.412l-1.059-3.176c-.176-.353-.176-1.235-.706-1.059-.529,0-.353.706-.529,1.059-.176.882-.353,1.765-.529,2.471-.706,2.118-1.588,2.471-3.529,1.412-1.235-.706-2.471-1.412-3.529-1.941a.871.871,0,0,0-.529-.176c-.353.176,0,.529.176.706.706,1.235,1.412,2.471,2.118,3.529a3.455,3.455,0,0,1-.176,3.882l-1.588,2.118c-.176.353-.706.706-.529,1.059.353.529.706,0,1.235-.176,1.059-.353,2.118-.882,3.176-1.235,2.118-.706,3.176-.176,4.412,1.588.529.706,1.059,1.588,1.588,2.294.177.176.353.353.529.353.353,0,.353-.529.176-.706-.353-1.235-.529-2.647-.882-3.882a2.582,2.582,0,0,1,1.059-3.353,21.142,21.142,0,0,0,2.118-1.941c.706-.706,1.941-1.059,1.765-2.118A19.972,19.972,0,0,0,265.741,261.983Z" transform="matrix(0.53, 0.848, -0.848, 0.53, 123.372, 173.765)" fill="#43285a"/><path d="M251.2,57.1c.4-1.6.9-3.1,1.3-4.7.1-.2.1-.5.2-.7.2-.4.4-.7.8-.6a.749.749,0,0,1,.7.6c.2.4.3.8.5,1.3a79.462,79.462,0,0,1,2.4,9.3c.5,2.7.6,2.7,3.3,2,3-.8,6-1.7,9.1-2.5a10.462,10.462,0,0,1,1.7-.4c.5-.1,1-.2,1.3.4.3.5,0,.9-.3,1.2-.2.3-.5.6-.7.9-2,2.3-4,4.7-6.3,6.9a3.469,3.469,0,0,0-1,3.6,86.205,86.205,0,0,1,2.5,11.2,2.462,2.462,0,0,1,.1,1.2.776.776,0,0,1-1.2.6,4.125,4.125,0,0,1-1.3-1c-1-1.1-2-2.1-2.9-3.2-1.3-1.6-2.8-3.1-4.2-4.6-.6-.7-.7-.6-1.1.1l-4.8,8.1c-.5.8-1,1.6-1.6,2.4-.3.4-.6.8-1.2.7-.6-.2-.6-.7-.6-1.2,0-1.6.2-3.1.3-4.7.2-2.3.5-4.5.8-6.8.2-1.4.1-1.7-1.3-2.1a49.14,49.14,0,0,0-6.6-1.7,7.274,7.274,0,0,1-2.1-.6c-1.2-.5-1.3-1.2-.2-1.9a35.018,35.018,0,0,1,4.9-2.9c1.3-.6,2.7-1.3,4-1.9a1.3,1.3,0,0,0,.9-1A82.712,82.712,0,0,0,251.2,57.1ZM244,72.9a30.785,30.785,0,0,1,4.9,1.3,1.886,1.886,0,0,1,1.5,2.3,11.022,11.022,0,0,1-.2,1.8c-.3,2.8-.6,5.7-.9,8.5,0,.2-.2.6.1.6.3.1.4-.3.5-.5.4-.7.8-1.3,1.2-2,1.5-2.5,2.9-5,4.4-7.4.7-1.1,1.4-1.2,2.3-.3,1.5,1.6,3.1,3.2,4.5,4.9.8,1,1.7,2,2.6,3,.1.1.3.4.5.3.3-.1.1-.4.1-.7-.2-1-.3-2-.5-3-.6-2.5-1.2-5.1-1.8-7.6a4.134,4.134,0,0,1,1.2-4.3c1.9-1.9,3.6-3.9,5.4-5.8.3-.3.6-.7.9-1a.367.367,0,0,0,.1-.3h-.3a6.468,6.468,0,0,0-1.3.4c-2.7.8-5.5,1.5-8.2,2.3a15.525,15.525,0,0,1-2.1.4,1.842,1.842,0,0,1-2.2-1.4,22.916,22.916,0,0,1-.7-2.8c-.5-2.4-1.1-4.7-1.8-7.1-.1-.2-.1-.5-.2-.7a.349.349,0,0,0-.1-.2c-.2-.1-.2.1-.3.2l-.3.9c-.9,2.8-1.7,5.6-2.6,8.4a10.435,10.435,0,0,0-.8,2.5,1.292,1.292,0,0,1-.9,1.2c-1.4.7-2.8,1.4-4.3,2a33.023,33.023,0,0,0-4.1,2.3c-.2.1-.4.2-.3.4,0,.1.3.2.4.2A19.75,19.75,0,0,0,244,72.9Z" transform="translate(-111.02 60.579)" fill="#43285a"/><path d="M246.018,70.979c.243.97.546,1.88.788,2.85.061.121.061.3.121.424.121.243.243.424.485.364a.454.454,0,0,0,.424-.364c.121-.243.182-.485.3-.788a48.183,48.183,0,0,0,1.455-5.639c.3-1.637.364-1.637,2-1.213,1.819.485,3.638,1.031,5.518,1.516a6.344,6.344,0,0,0,1.031.243c.3.061.606.121.788-.243.182-.3,0-.546-.182-.728-.121-.182-.3-.364-.424-.546-1.213-1.395-2.426-2.85-3.82-4.184a2.1,2.1,0,0,1-.606-2.183,52.274,52.274,0,0,0,1.516-6.791,1.493,1.493,0,0,0,.061-.728.471.471,0,0,0-.728-.364,2.5,2.5,0,0,0-.788.606c-.606.667-1.213,1.273-1.758,1.94-.788.97-1.7,1.88-2.547,2.789-.364.424-.424.364-.667-.061l-2.911-4.912c-.3-.485-.606-.97-.97-1.455-.182-.243-.364-.485-.728-.424-.364.121-.364.424-.364.728,0,.97.121,1.88.182,2.85.121,1.395.3,2.729.485,4.123.121.849.061,1.031-.788,1.273a29.8,29.8,0,0,1-4,1.031,4.411,4.411,0,0,0-1.273.364c-.728.3-.788.728-.121,1.152a21.234,21.234,0,0,0,2.971,1.759c.788.364,1.637.788,2.426,1.152a.791.791,0,0,1,.546.606A50.153,50.153,0,0,1,246.018,70.979ZM241.652,61.4a18.667,18.667,0,0,0,2.971-.788,1.144,1.144,0,0,0,.91-1.395,6.682,6.682,0,0,0-.121-1.091c-.182-1.7-.364-3.456-.546-5.154,0-.121-.121-.364.061-.364.182-.061.243.182.3.3.243.424.485.788.728,1.213.91,1.516,1.758,3.032,2.668,4.487.424.667.849.728,1.395.182.91-.97,1.88-1.94,2.729-2.971.485-.606,1.031-1.213,1.577-1.819.061-.061.182-.243.3-.182.182.061.061.243.061.424-.121.606-.182,1.213-.3,1.819-.364,1.516-.728,3.093-1.091,4.609a2.507,2.507,0,0,0,.728,2.607c1.152,1.152,2.183,2.365,3.274,3.517.182.182.364.424.546.606a.223.223,0,0,1,.061.182h-.182a3.922,3.922,0,0,1-.788-.243c-1.637-.485-3.335-.91-4.972-1.395a9.415,9.415,0,0,0-1.273-.243,1.117,1.117,0,0,0-1.334.849,13.9,13.9,0,0,0-.424,1.7c-.3,1.455-.667,2.85-1.091,4.305-.061.121-.061.3-.121.424a.212.212,0,0,1-.061.121c-.121.061-.121-.061-.182-.121l-.182-.546c-.546-1.7-1.031-3.4-1.577-5.094a6.327,6.327,0,0,1-.485-1.516.783.783,0,0,0-.546-.728c-.849-.424-1.7-.849-2.607-1.213a20.024,20.024,0,0,1-2.486-1.395c-.121-.061-.243-.121-.182-.243,0-.061.182-.121.243-.121A11.976,11.976,0,0,1,241.652,61.4Z" transform="translate(113.931 -36.262)" fill="#43285a"/><path d="M246.4,124.3c.7-1.5,1.4-3,2.1-4.4a2.108,2.108,0,0,0-.2-2.6c-.9-1.1-1.6-2.3-2.4-3.5a3.129,3.129,0,0,1-.5-1c-.3-.7,0-1.2.8-1.3a2.437,2.437,0,0,1,1.2,0c1.3.1,2.6.1,3.9.3a1,1,0,0,0,1.3-.8c.4-1,.9-1.9,1.3-2.8a2.092,2.092,0,0,1,.4-.6.874.874,0,0,1,.9-.5c.4.1.5.5.6.9a14.768,14.768,0,0,1,.1,2.1c.1,2.1.1,2.1,2.2,2.4,1.8.2,3.5.4,5.3.6a5.02,5.02,0,0,1,1.2.2c.8.2,1,.8.5,1.5a5.241,5.241,0,0,1-1.1,1c-1.8,1.3-3.8,2.4-5.7,3.5-1.8,1.1-1.6.5-1.4,2.6.2,2,.3,3.9.5,5.9v.6c0,.4,0,.8-.4,1a.778.778,0,0,1-1-.4c-.6-.8-1.2-1.7-1.8-2.5-.7-1-1.4-2-2.1-3.1-.3-.4-.5-.4-.9-.2-1,.6-2,1.2-3,1.7-.2.1-.5.3-.7.4-.4.2-.8.4-1.2.1A1.986,1.986,0,0,1,246.4,124.3Zm8.2-11.2c-1.2-.3-1.5-.2-2.1,1-.3.6-.6,1.2-.9,1.9-1.1,2.3-1.1,2.3.4,4.5,0,.1.1.1.1.2a.487.487,0,0,0,.8.2c.8-.5,1.6-.9,2.4-1.3a.755.755,0,0,0,.4-.7c-.2-1.7-.3-3.4-.5-5.2C255.1,113.4,255,113.1,254.6,113.1Zm8.6,1c-.5,0-.9-.1-1.4-.1-1.6-.2-3.3-.4-4.9-.6-.4,0-.7,0-.6.5.1,1.4.3,2.9.4,4.3,0,.4.3.4.6.3a59.523,59.523,0,0,0,6-3.6c.1-.1.3-.2.3-.4C263.7,114.1,263.4,114.2,263.2,114.1Zm-11.7-.6c.1-.3.2-.6-.3-.6-1.4-.1-2.7-.2-4.1-.2-.4,0-.5.2-.3.5.8,1.2,1.6,2.5,2.5,3.7.2.3.4.2.6-.1C250.5,115.6,251,114.5,251.5,113.5Zm4.2,7.3c-.2,0-.3.1-.4.1-.6.3-1.2.6-1.7.9-.5.2-.4.5-.2.9.8,1.1,1.6,2.3,2.4,3.5.1.1.2.3.4.2.1,0,.1-.2.1-.3-.1-1.6-.3-3.2-.4-4.8C255.8,121.1,255.8,120.9,255.7,120.8Zm-7.5,2.1c-.1.3-.2.5,0,.6a.367.367,0,0,0,.3-.1c.5-.3.9-.5,1.4-.8,1.6-.9,1.6-.5.5-2.3-.1-.1-.1-.2-.2-.3-.2-.2-.4-.3-.6.1C249.1,121,248.6,122,248.2,122.9Zm5.7-11.7c-.1.2-.3.5,0,.6a1.1,1.1,0,0,0,.8,0c.3,0,.2-.3.2-.5-.1-.5.1-1.1-.3-1.5A6.111,6.111,0,0,0,253.9,111.2Z" transform="translate(128.265 50.64)" fill="#43285a"/><path d="M263.7,161a1.149,1.149,0,0,1-.6.9,17.683,17.683,0,0,1-2.2,1.6,1.479,1.479,0,0,0-.6,1.8l.9,3a5.852,5.852,0,0,1,.2,1.3c0,.7-.6.9-1.1.5a2.337,2.337,0,0,1-.7-.7,18.844,18.844,0,0,0-2.6-2.2c-.5-.3-.8-.3-1,.2-.6,1.3-1.3,2.5-1.9,3.7a3,3,0,0,1-.4.8.625.625,0,0,1-1.1-.2,3.4,3.4,0,0,1-.1-1c-.1-1.5-.1-3.1-.2-4.6a1.335,1.335,0,0,0-.9-1.4c-1-.4-2-.9-3-1.4a5.3,5.3,0,0,1-1-.6c-.4-.3-.3-.6,0-.9a1.676,1.676,0,0,1,1.2-.3,29.623,29.623,0,0,1,3.1-.3,1.172,1.172,0,0,0,1.1-.9c.4-1.5.9-3,1.4-4.5.1-.3.2-.5.3-.8a.792.792,0,0,1,.8-.5.634.634,0,0,1,.6.5,18.285,18.285,0,0,1,.8,2.5c.2.7.4,1.4.6,2,.4,1.2.4,1.2,1.6,1.2a22.754,22.754,0,0,0,2.6-.2,7.719,7.719,0,0,1,1.5-.2C263.4,160.5,263.7,160.6,263.7,161Z" transform="translate(32.265 -88.713)" fill="#43285a"/><path d="M260.3,218.3a17.685,17.685,0,0,1-2.2-1.6c-.7-.5-1.2-1.4-2-1.2-.7.2-.9,1.2-1.3,1.8s-.8,1.3-1.2,1.9c-.2.3-.4.5-.8.4a.838.838,0,0,1-.6-.8c0-1.1.1-2.2.2-3.3,0-.4.1-.8.1-1.2.1-1.3.1-1.3-1.2-1.4-1.1-.1-2.2-.1-3.3-.1-.5,0-1,0-1.2-.6s.2-1,.6-1.3a19.052,19.052,0,0,1,4.1-2.6,3.073,3.073,0,0,0,1.9-2.1,14.194,14.194,0,0,1,1-2.9c.2-.5.3-1.3,1-1.2s.6.8.7,1.3l.6,3.3c.2,1.1.2,1.2,1.3.8,1.3-.4,2.6-1,4-1.4.3-.1.7-.3,1.1-.4s.9-.4,1.2.1c.4.5,0,.9-.3,1.3l-.6.6a20.573,20.573,0,0,1-3,2.9,1.581,1.581,0,0,0-.5,2l1.5,3.9a2.958,2.958,0,0,1,.2,1A.921.921,0,0,1,260.3,218.3Zm1.3-10.6c0-.2-.1-.3-.2-.2-.3.1-.5.2-.8.3-1,.3-1.9.7-2.9,1-1.5.4-1.9.1-2.1-1.3a15.527,15.527,0,0,0-.4-2.1c0-.2,0-.5-.3-.5-.2,0-.2.2-.2.4a18.285,18.285,0,0,0-.8,2.5,1.589,1.589,0,0,1-1,1.1A29.3,29.3,0,0,0,249,211c-.1.1-.3.2-.2.4,0,.1.3.1.4.1h1.1c.7.1,1.5.1,2.2.2,1.1.2,1.3.5,1.3,1.6,0,.4-.1.7-.1,1.1-.1.6-.1,1.1-.2,1.7,0,.2,0,.4.2.5l.3-.3.9-1.5c.8-1.1,1.2-1.2,2.3-.4.8.6,1.5,1.1,2.3,1.7a.367.367,0,0,0,.3.1c.2-.1.1-.3,0-.4-.4-1.1-.8-2.2-1.2-3.4a1.853,1.853,0,0,1,.6-2.4c.7-.6,1.4-1.3,2.2-2C261.4,207.9,261.5,207.8,261.6,207.7Z" transform="translate(-128.857 -180.36)" fill="#43285a"/><path d="M265.212,311.7a30.964,30.964,0,0,1-3.447-.53c-1.326-.265-1.458-.265-1.989,1.061-.53,1.193-1.061,2.254-1.591,3.447-.265.53-.53,1.061-1.193.928a1.275,1.275,0,0,1-1.061-1.193,35.734,35.734,0,0,1-.53-3.712c-.265-1.591-.265-1.458-1.856-1.591a32.5,32.5,0,0,1-3.58-.265,1.291,1.291,0,0,1-1.458-.928,1.176,1.176,0,0,1,.8-1.326l3.978-3.182a1.449,1.449,0,0,0,.53-1.591c-.265-1.061-.4-2.254-.663-3.447-.133-.53-.133-1.326.53-1.591a1.449,1.449,0,0,1,1.591.53c.4.4.8.928,1.193,1.326,1.458,1.458.928,1.591,2.917.265.928-.663,1.989-1.193,2.917-1.856.663-.4,1.458-.928,2.254-.265s.4,1.591,0,2.387c-.53,1.458-1.193,2.784-1.724,4.243-.53,1.326-.53,1.326.53,2.387.8.928,1.591,1.724,2.519,2.652.4.4.8.8.53,1.458C266.538,311.566,266.14,311.7,265.212,311.7Zm-9.148-6.364c.133.8.265,1.458.4,2.254.265,1.193.265,1.061,1.856,1.326a1.258,1.258,0,0,0,1.591-.928c.928-2.254.928-1.591-.53-3.182-.265-.265-.4-.53-.663-.663-.4-.4-.663-1.061-1.326-.53C256.726,304.009,255.931,304.274,256.064,305.335Zm5.171-.928c.133,0,.265-.133.4-.265.53-1.193,1.061-2.519,1.591-3.712,0-.133-.133-.265-.133-.4-.133,0-.265,0-.265.133-1.061.663-2.121,1.326-3.182,2.121-.133.133-.265.265-.265.4C259.511,302.815,260.969,304.406,261.234,304.406Zm-8.088,4.11h1.193c.53,0,.663-.265.53-.8s.133-1.458-.53-1.724c-.53-.265-.928.53-1.458.928a.13.13,0,0,0-.133.133c-.4.4-1.326.663-1.193,1.193C251.821,308.782,252.749,308.384,253.147,308.517Zm3.845,2.652c.133,1.458.265,1.989.4,1.856.663-.265.663-1.061.928-1.591.133-.265.4-.663,0-.8a1,1,0,0,0-1.061-.133C256.859,310.638,256.992,311.036,256.992,311.168Zm5.038-3.315H261.9a1.822,1.822,0,0,0-.663,1.061c-.133.53.4.4.663.53a5.638,5.638,0,0,0,1.458.265c.265,0,.4,0,.4-.265A18.842,18.842,0,0,0,262.03,307.854Zm-6.629-6.231c.265.265-.133.928.663.928a.57.57,0,0,0,.53-.53,1.4,1.4,0,0,0-.8-.928C255.4,300.959,255.4,301.357,255.4,301.622Z" transform="translate(8.91 -154.195)" fill="#43285a"/><path d="M249.445,308.2a23.355,23.355,0,0,0,2.6-.4c1-.2,1.1-.2,1.5.8.4.9.8,1.7,1.2,2.6.2.4.4.8.9.7a.962.962,0,0,0,.8-.9,26.954,26.954,0,0,0,.4-2.8c.2-1.2.2-1.1,1.4-1.2a24.518,24.518,0,0,0,2.7-.2.973.973,0,0,0,1.1-.7.887.887,0,0,0-.6-1l-3-2.4a1.093,1.093,0,0,1-.4-1.2c.2-.8.3-1.7.5-2.6.1-.4.1-1-.4-1.2a1.093,1.093,0,0,0-1.2.4c-.3.3-.6.7-.9,1-1.1,1.1-.7,1.2-2.2.2-.7-.5-1.5-.9-2.2-1.4-.5-.3-1.1-.7-1.7-.2s-.3,1.2,0,1.8c.4,1.1.9,2.1,1.3,3.2.4,1,.4,1-.4,1.8-.6.7-1.2,1.3-1.9,2-.3.3-.6.6-.4,1.1C248.445,308.1,248.745,308.2,249.445,308.2Zm6.9-4.8c-.1.6-.2,1.1-.3,1.7-.2.9-.2.8-1.4,1a.949.949,0,0,1-1.2-.7c-.7-1.7-.7-1.2.4-2.4.2-.2.3-.4.5-.5.3-.3.5-.8,1-.4C255.845,302.4,256.445,302.6,256.345,303.4Zm-3.9-.7c-.1,0-.2-.1-.3-.2-.4-.9-.8-1.9-1.2-2.8,0-.1.1-.2.1-.3.1,0,.2,0,.2.1.8.5,1.6,1,2.4,1.6.1.1.2.2.2.3C253.745,301.5,252.645,302.7,252.445,302.7Zm6.1,3.1h-.9c-.4,0-.5-.2-.4-.6s-.1-1.1.4-1.3c.4-.2.7.4,1.1.7a.1.1,0,0,1,.1.1c.3.3,1,.5.9.9C259.545,306,258.845,305.7,258.545,305.8Zm-2.9,2c-.1,1.1-.2,1.5-.3,1.4-.5-.2-.5-.8-.7-1.2-.1-.2-.3-.5,0-.6a.755.755,0,0,1,.8-.1C255.745,307.4,255.645,307.7,255.645,307.8Zm-3.8-2.5h.1a1.374,1.374,0,0,1,.5.8c.1.4-.3.3-.5.4a4.253,4.253,0,0,1-1.1.2c-.2,0-.3,0-.3-.2A14.208,14.208,0,0,1,251.845,305.3Zm5-4.7c-.2.2.1.7-.5.7a.43.43,0,0,1-.4-.4,1.057,1.057,0,0,1,.6-.7C256.845,300.1,256.845,300.4,256.845,300.6Z" transform="translate(-41.273 -196.8)" fill="#43285a"/><path d="M252.9,256a10.713,10.713,0,0,1-.6-2.7c-.1-.7-.1-1.4-.2-2.1,0-.3.1-.7.4-.8.4-.2.7,0,1,.3a28.961,28.961,0,0,1,1.9,2.9c.8,1.1.8,1.2,2.1.7,1-.4,1.9-.8,2.8-1.2.3-.1.6-.3.9-.4a.765.765,0,0,1,.9.2.75.75,0,0,1,0,.9,3.039,3.039,0,0,0-.5.7c-.6.9-1.2,1.8-1.8,2.6a1.2,1.2,0,0,0-.1,1.5c.6.9,1.1,1.8,1.6,2.6.2.3.3.6.5.9a.75.75,0,0,1,0,.9.765.765,0,0,1-.9.2,4.235,4.235,0,0,1-1.4-.6l-2.1-1.2c-.7-.4-.8-.4-1,.4-.2,1-.4,2.1-.6,3.2-.1.5,0,1.2-.7,1.3-.8.1-.9-.6-1.1-1.1-.4-1.1-.8-2.3-1.1-3.4-.3-.8-.3-.8-1.1-.6-.7.1-1.4.3-2.1.4-.4.1-.9.1-1.1-.3s.1-.8.4-1.1c1.2-1.1,2.3-2.1,3.5-3.2C252.7,256.7,253,256.5,252.9,256Zm-.4,3.7a1.206,1.206,0,0,1,1.2.8l.6,1.8c.1.2.1.7.4.6.3,0,.2-.4.3-.6.1-.5.2-1,.3-1.4.4-1.2.9-1.4,2-.8.7.4,1.4.8,2,1.1a.494.494,0,0,0,.3.1c.2-.1,0-.3-.1-.4-.4-.7-.8-1.4-1.2-2a1.958,1.958,0,0,1,.1-2.2l.9-1.2c.1-.2.4-.4.3-.6-.2-.3-.4,0-.7.1-.6.2-1.2.5-1.8.7a1.862,1.862,0,0,1-2.5-.9c-.3-.4-.6-.9-.9-1.3-.1-.1-.2-.2-.3-.2-.2,0-.2.3-.1.4.2.7.3,1.5.5,2.2a1.463,1.463,0,0,1-.6,1.9,11.981,11.981,0,0,0-1.2,1.1c-.4.4-1.1.6-1,1.2A11.318,11.318,0,0,0,252.5,259.7Z" transform="translate(-80.746 -62.815)" fill="#43285a"/><path d="M254.36,264.078a14.3,14.3,0,0,0-.8,3.6c-.133.934-.133,1.868-.267,2.8,0,.4.133.934.534,1.068.534.267.934,0,1.335-.4a38.646,38.646,0,0,0,2.536-3.87c1.068-1.468,1.068-1.6,2.8-.934,1.335.534,2.536,1.068,3.737,1.6.4.133.8.4,1.2.534a1.02,1.02,0,0,0,1.2-.267,1,1,0,0,0,0-1.2,4.055,4.055,0,0,1-.667-.934c-.8-1.2-1.6-2.4-2.4-3.47a1.6,1.6,0,0,1-.133-2c.8-1.2,1.468-2.4,2.135-3.47.267-.4.4-.8.667-1.2a1,1,0,0,0,0-1.2,1.021,1.021,0,0,0-1.2-.267,5.652,5.652,0,0,0-1.868.8l-2.8,1.6c-.934.534-1.068.534-1.335-.534-.267-1.335-.534-2.8-.8-4.271-.133-.667,0-1.6-.934-1.735-1.068-.133-1.2.8-1.468,1.468-.534,1.468-1.068,3.069-1.468,4.538-.4,1.068-.4,1.068-1.468.8-.934-.133-1.868-.4-2.8-.534-.534-.133-1.2-.133-1.468.4s.133,1.068.534,1.468c1.6,1.468,3.069,2.8,4.671,4.271C254.093,263.144,254.494,263.411,254.36,264.078Zm-.534-4.938a1.609,1.609,0,0,0,1.6-1.068l.8-2.4c.133-.267.133-.934.534-.8.4,0,.267.534.4.8.133.667.267,1.335.4,1.868.534,1.6,1.2,1.868,2.669,1.068.934-.534,1.868-1.068,2.669-1.468a.659.659,0,0,1,.4-.133c.267.133,0,.4-.133.534-.534.934-1.068,1.868-1.6,2.669a2.613,2.613,0,0,0,.133,2.936l1.2,1.6c.133.267.534.534.4.8-.267.4-.534,0-.934-.133-.8-.267-1.6-.667-2.4-.934-1.6-.534-2.4-.133-3.336,1.2-.4.534-.8,1.2-1.2,1.735-.133.133-.267.267-.4.267-.267,0-.267-.4-.133-.534.267-.934.4-2,.667-2.936a1.953,1.953,0,0,0-.8-2.536,16,16,0,0,1-1.6-1.468c-.534-.534-1.468-.8-1.335-1.6A15.108,15.108,0,0,1,253.827,259.14Z" transform="translate(-190.236 -181.094)" fill="#43285a"/><path d="M265.035,260.344a18.9,18.9,0,0,0,1.059-4.765c.177-1.235.177-2.471.353-3.706,0-.529-.176-1.235-.706-1.412-.706-.353-1.235,0-1.765.529a51.113,51.113,0,0,0-3.353,5.118c-1.412,1.941-1.412,2.118-3.706,1.235-1.765-.706-3.353-1.412-4.941-2.118-.529-.176-1.059-.529-1.588-.706a1.349,1.349,0,0,0-1.588.353,1.323,1.323,0,0,0,0,1.588,5.362,5.362,0,0,1,.882,1.235c1.059,1.588,2.118,3.176,3.176,4.588a2.118,2.118,0,0,1,.176,2.647c-1.059,1.588-1.941,3.176-2.824,4.588-.353.529-.529,1.059-.882,1.588a1.323,1.323,0,0,0,0,1.588,1.35,1.35,0,0,0,1.588.353,7.473,7.473,0,0,0,2.471-1.059l3.706-2.118c1.235-.706,1.412-.706,1.765.706.353,1.765.706,3.706,1.059,5.647.176.882,0,2.118,1.235,2.294,1.412.176,1.588-1.059,1.941-1.941.706-1.941,1.412-4.059,1.941-6,.529-1.412.529-1.412,1.941-1.059,1.235.176,2.471.529,3.706.706.706.176,1.588.176,1.941-.529s-.177-1.412-.706-1.941c-2.118-1.941-4.059-3.706-6.176-5.647C265.388,261.579,264.859,261.226,265.035,260.344Zm.706,6.529a2.128,2.128,0,0,0-2.118,1.412l-1.059,3.176c-.176.353-.176,1.235-.706,1.059-.529,0-.353-.706-.529-1.059-.176-.882-.353-1.765-.529-2.471-.706-2.118-1.588-2.471-3.529-1.412-1.235.706-2.471,1.412-3.529,1.941a.871.871,0,0,1-.529.176c-.353-.176,0-.529.176-.706.706-1.235,1.412-2.471,2.118-3.529a3.455,3.455,0,0,0-.176-3.882l-1.588-2.118c-.176-.353-.706-.706-.529-1.059.353-.529.706,0,1.235.176,1.059.353,2.118.882,3.176,1.235,2.118.706,3.176.176,4.412-1.588.529-.706,1.059-1.588,1.588-2.294.177-.176.353-.353.529-.353.353,0,.353.529.176.706-.353,1.235-.529,2.647-.882,3.882a2.582,2.582,0,0,0,1.059,3.353,21.142,21.142,0,0,1,2.118,1.941c.706.706,1.941,1.059,1.765,2.118A19.972,19.972,0,0,1,265.741,266.873Z" transform="translate(115.87 -184.533)" fill="#43285a"/><path d="M56.374,198.1a19,19,0,0,0,6.907.842,36.748,36.748,0,0,0,15.161-3.874c7.243-3.706,10.781-9.939,11.623-17.856a36.8,36.8,0,0,0-.505-9.6,25.033,25.033,0,0,0-5.9-11.96,44.788,44.788,0,0,0-7.243-6.57c-.337-.168-.505-.674-.842-.337-.337.168,0,.674,0,.842a45.146,45.146,0,0,1,2.19,9.433c.505,4.548.337,9.1-1.516,13.308a19.288,19.288,0,0,1-4.548,6.4,31.957,31.957,0,0,1-8.76,6.233,23.691,23.691,0,0,1-13.139,2.19c-2.358-.168-4.717-.337-7.075-.674-.337,0-.842-.337-1.011.168-.168.337.168.674.337.842C44.582,191.364,49.3,196.418,56.374,198.1Z" transform="translate(270.328 -50.605)" fill="#43285a"/><path d="M137.4,304.7l-2.7.3a87.83,87.83,0,0,1-10.3.4,1.078,1.078,0,0,1-.7-.2q2.55-1.5,5.1-2.7c.3-.1.7-.2.5-.6-.1-.3-.3-.3-.9,0-1.3.7-2.7,1.4-4,2.1-.2.1-.3.3-.6.2v-.1c2.5-2.5,4.7-5.2,7.2-7.7.2-.2.4-.5.2-.7-.3-.3-.5-.1-.7.2a11.983,11.983,0,0,0-1.1,1.2c-2.3,2.6-4.6,5.1-7.1,7.6-.2.2-.3.4-.7.4v-2.6c0-2.5,0-5,.2-7.5.2-2.2.3-4.3.5-6.5v-.9c0-.3,0-.6-.4-.6-.3,0-.4.3-.4.6v.1c0,1.7-.2,3.3-.3,5-.3,3.2-.4,6.4-.4,9.6a4.735,4.735,0,0,1-.1,1.7c-.2.1-.2,0-.3-.1-1.3-1.3-2.7-2.6-4-4l-3.2-3.2c-.2-.2-.4-.6-.8-.3-.2.2-.1.4.3.9.7.8,1.5,1.5,2.2,2.3l4.6,4.6a1.275,1.275,0,0,1,.5.7c-.2,0-.3,0-.4-.1-1.1-.4-2.1-.7-3.2-1.1-.6-.2-1.3-.5-1.9-.7a.381.381,0,0,0-.3.7,4.872,4.872,0,0,0,.7.3c1.1.4,2.2.7,3.2,1.1.2.1.4,0,.4.3-1.7-.1-3.5-.2-5.2-.3-2.9-.2-5.7-.4-8.6-.8h-.5a.265.265,0,0,0-.3.3c0,.1.1.3.2.3a1.268,1.268,0,0,0,.6.1c1.6.3,3.3.4,5,.6,3.4.3,6.8.6,10.2.7a1.483,1.483,0,0,1,.7.1.367.367,0,0,1-.1.3c-2.3,2.2-4.4,4.5-6.9,6.5-.2.2-.4.3-.5.5a.33.33,0,0,0,0,.5c.1.2.3.2.5.1a1.756,1.756,0,0,0,.5-.4,80.794,80.794,0,0,0,6-5.7c.2-.2.4-.5.7-.5a1.268,1.268,0,0,1,.1.6c-.3,4.2-.2,8.4-.2,12.6,0,.6.1,1.2.1,1.8a.43.43,0,0,0,.4.4c.2,0,.3-.2.3-.4v-.3c-.1-1.8-.1-3.6-.1-5.5,0-2.9,0-5.8.2-8.7a1.078,1.078,0,0,1,.2-.7c.3.5.5.9.8,1.4.7,1.3,1.3,2.6,2.1,3.9a1.47,1.47,0,0,0,.5.6c.2.1.3.1.4-.1.1-.1.1-.2.1-.4,0-.1-.1-.2-.2-.3a39.662,39.662,0,0,1-2.2-4,.4.4,0,0,1-.1-.5,2.651,2.651,0,0,1,.6.5c2.2,2.2,4.5,4.3,6.7,6.5.2.2.4.3.6.1s.1-.4-.1-.6a9.017,9.017,0,0,0-1-.9c-2.2-2.1-4.5-4.2-6.6-6.5a1.794,1.794,0,0,1-.5-.7h6.9a68.47,68.47,0,0,0,7.8-.7c.3,0,.8.1.8-.4C138.2,304.5,137.7,304.6,137.4,304.7Z" transform="translate(272.488 -10.3)" fill="#43285a"/><path d="M396.5,210.5a.891.891,0,0,1-.5.8,5.337,5.337,0,0,0-2.4,3.3.743.743,0,0,1-.6.6.755.755,0,0,1-.7-.4c-.1-.2-.3-.4-.4-.6a2.712,2.712,0,0,0-2.6-1.7,8.753,8.753,0,0,1-1.6-.2.634.634,0,0,1-.6-.5c-.1-.3.2-.5.4-.7l1.5-.9a4.05,4.05,0,0,0,2.1-2.8c.1-.2.1-.4.2-.6a.65.65,0,0,1,1.2,0c.1.3.2.5.3.8a2.446,2.446,0,0,0,2.3,2,1.884,1.884,0,0,1,.8.2A1.014,1.014,0,0,1,396.5,210.5Z" transform="translate(-333.491 -15.3)" fill="#43285a"/><path d="M396.5,210.5a.891.891,0,0,1-.5.8,5.337,5.337,0,0,0-2.4,3.3.743.743,0,0,1-.6.6.755.755,0,0,1-.7-.4c-.1-.2-.3-.4-.4-.6a2.712,2.712,0,0,0-2.6-1.7,8.753,8.753,0,0,1-1.6-.2.634.634,0,0,1-.6-.5c-.1-.3.2-.5.4-.7l1.5-.9a4.05,4.05,0,0,0,2.1-2.8c.1-.2.1-.4.2-.6a.65.65,0,0,1,1.2,0c.1.3.2.5.3.8a2.446,2.446,0,0,0,2.3,2,1.884,1.884,0,0,1,.8.2A1.014,1.014,0,0,1,396.5,210.5Z" transform="translate(-356.491 -70.4)" fill="#43285a"/><path d="M392.9,168.4a.548.548,0,0,1-.6-.4c-.1-.2-.2-.5-.3-.7a4.063,4.063,0,0,0-3.4-3h-.2c-.4-.1-.9-.2-.9-.7,0-.4.4-.6.7-.7a5.406,5.406,0,0,0,3.2-3.4c.1-.3.2-.8.7-.8s.6.4.7.7a4.633,4.633,0,0,0,2.6,3.3.969.969,0,0,1,.7.8c0,.4-.4.5-.8.6-1.7.6-1.9.8-1.9,2.7v1A.634.634,0,0,1,392.9,168.4Z" transform="translate(-170.132 41.2)" fill="#43285a"/><path d="M263.7,165.647a1.149,1.149,0,0,0-.6-.9,17.683,17.683,0,0,0-2.2-1.6,1.479,1.479,0,0,1-.6-1.8l.9-3a5.852,5.852,0,0,0,.2-1.3c0-.7-.6-.9-1.1-.5a2.337,2.337,0,0,0-.7.7,18.844,18.844,0,0,1-2.6,2.2c-.5.3-.8.3-1-.2-.6-1.3-1.3-2.5-1.9-3.7a3,3,0,0,0-.4-.8.625.625,0,0,0-1.1.2,3.4,3.4,0,0,0-.1,1c-.1,1.5-.1,3.1-.2,4.6a1.335,1.335,0,0,1-.9,1.4c-1,.4-2,.9-3,1.4a5.3,5.3,0,0,0-1,.6c-.4.3-.3.6,0,.9a1.676,1.676,0,0,0,1.2.3,29.623,29.623,0,0,0,3.1.3,1.172,1.172,0,0,1,1.1.9c.4,1.5.9,3,1.4,4.5.1.3.2.5.3.8a.792.792,0,0,0,.8.5.634.634,0,0,0,.6-.5,18.285,18.285,0,0,0,.8-2.5c.2-.7.4-1.4.6-2,.4-1.2.4-1.2,1.6-1.2a22.754,22.754,0,0,1,2.6.2,7.719,7.719,0,0,0,1.5.2C263.4,166.147,263.7,166.047,263.7,165.647Z" transform="matrix(0.53, 0.848, -0.848, 0.53, 282.844, -32.042)" fill="#43285a"/><path d="M251.2,83.9c.4,1.6.9,3.1,1.3,4.7.1.2.1.5.2.7.2.4.4.7.8.6a.749.749,0,0,0,.7-.6c.2-.4.3-.8.5-1.3a79.462,79.462,0,0,0,2.4-9.3c.5-2.7.6-2.7,3.3-2,3,.8,6,1.7,9.1,2.5a10.462,10.462,0,0,0,1.7.4c.5.1,1,.2,1.3-.4.3-.5,0-.9-.3-1.2-.2-.3-.5-.6-.7-.9-2-2.3-4-4.7-6.3-6.9a3.469,3.469,0,0,1-1-3.6,86.205,86.205,0,0,0,2.5-11.2,2.462,2.462,0,0,0,.1-1.2.776.776,0,0,0-1.2-.6,4.125,4.125,0,0,0-1.3,1c-1,1.1-2,2.1-2.9,3.2-1.3,1.6-2.8,3.1-4.2,4.6-.6.7-.7.6-1.1-.1l-4.8-8.1c-.5-.8-1-1.6-1.6-2.4-.3-.4-.6-.8-1.2-.7-.6.2-.6.7-.6,1.2,0,1.6.2,3.1.3,4.7.2,2.3.5,4.5.8,6.8.2,1.4.1,1.7-1.3,2.1a49.14,49.14,0,0,1-6.6,1.7,7.274,7.274,0,0,0-2.1.6c-1.2.5-1.3,1.2-.2,1.9a35.018,35.018,0,0,0,4.9,2.9c1.3.6,2.7,1.3,4,1.9a1.3,1.3,0,0,1,.9,1A82.712,82.712,0,0,1,251.2,83.9ZM244,68.1a30.785,30.785,0,0,0,4.9-1.3,1.886,1.886,0,0,0,1.5-2.3,11.022,11.022,0,0,0-.2-1.8c-.3-2.8-.6-5.7-.9-8.5,0-.2-.2-.6.1-.6.3-.1.4.3.5.5.4.7.8,1.3,1.2,2,1.5,2.5,2.9,5,4.4,7.4.7,1.1,1.4,1.2,2.3.3,1.5-1.6,3.1-3.2,4.5-4.9.8-1,1.7-2,2.6-3,.1-.1.3-.4.5-.3.3.1.1.4.1.7-.2,1-.3,2-.5,3-.6,2.5-1.2,5.1-1.8,7.6a4.134,4.134,0,0,0,1.2,4.3c1.9,1.9,3.6,3.9,5.4,5.8.3.3.6.7.9,1a.367.367,0,0,1,.1.3h-.3a6.468,6.468,0,0,1-1.3-.4c-2.7-.8-5.5-1.5-8.2-2.3a15.525,15.525,0,0,0-2.1-.4,1.842,1.842,0,0,0-2.2,1.4,22.916,22.916,0,0,0-.7,2.8c-.5,2.4-1.1,4.7-1.8,7.1-.1.2-.1.5-.2.7a.349.349,0,0,1-.1.2c-.2.1-.2-.1-.3-.2l-.3-.9c-.9-2.8-1.7-5.6-2.6-8.4a10.435,10.435,0,0,1-.8-2.5,1.292,1.292,0,0,0-.9-1.2c-1.4-.7-2.8-1.4-4.3-2a33.023,33.023,0,0,1-4.1-2.3c-.2-.1-.4-.2-.3-.4,0-.1.3-.2.4-.2A19.75,19.75,0,0,1,244,68.1Z" transform="matrix(0.53, 0.848, -0.848, 0.53, 306.08, 234.067)" fill="#43285a"/><path d="M249.445,301.178a23.355,23.355,0,0,1,2.6.4c1,.2,1.1.2,1.5-.8.4-.9.8-1.7,1.2-2.6.2-.4.4-.8.9-.7a.962.962,0,0,1,.8.9,26.954,26.954,0,0,1,.4,2.8c.2,1.2.2,1.1,1.4,1.2a24.518,24.518,0,0,1,2.7.2.973.973,0,0,1,1.1.7.887.887,0,0,1-.6,1l-3,2.4a1.093,1.093,0,0,0-.4,1.2c.2.8.3,1.7.5,2.6.1.4.1,1-.4,1.2a1.093,1.093,0,0,1-1.2-.4c-.3-.3-.6-.7-.9-1-1.1-1.1-.7-1.2-2.2-.2-.7.5-1.5.9-2.2,1.4-.5.3-1.1.7-1.7.2s-.3-1.2,0-1.8c.4-1.1.9-2.1,1.3-3.2.4-1,.4-1-.4-1.8-.6-.7-1.2-1.3-1.9-2-.3-.3-.6-.6-.4-1.1C248.445,301.278,248.745,301.178,249.445,301.178Zm6.9,4.8c-.1-.6-.2-1.1-.3-1.7-.2-.9-.2-.8-1.4-1a.949.949,0,0,0-1.2.7c-.7,1.7-.7,1.2.4,2.4.2.2.3.4.5.5.3.3.5.8,1,.4C255.845,306.978,256.445,306.778,256.345,305.978Zm-3.9.7c-.1,0-.2.1-.3.2-.4.9-.8,1.9-1.2,2.8,0,.1.1.2.1.3.1,0,.2,0,.2-.1.8-.5,1.6-1,2.4-1.6.1-.1.2-.2.2-.3C253.745,307.878,252.645,306.678,252.445,306.678Zm6.1-3.1h-.9c-.4,0-.5.2-.4.6s-.1,1.1.4,1.3c.4.2.7-.4,1.1-.7a.1.1,0,0,0,.1-.1c.3-.3,1-.5.9-.9C259.545,303.378,258.845,303.678,258.545,303.578Zm-2.9-2c-.1-1.1-.2-1.5-.3-1.4-.5.2-.5.8-.7,1.2-.1.2-.3.5,0,.6a.755.755,0,0,0,.8.1C255.745,301.978,255.645,301.678,255.645,301.578Zm-3.8,2.5h.1a1.374,1.374,0,0,0,.5-.8c.1-.4-.3-.3-.5-.4a4.253,4.253,0,0,0-1.1-.2c-.2,0-.3,0-.3.2A14.208,14.208,0,0,0,251.845,304.078Zm5,4.7c-.2-.2.1-.7-.5-.7a.43.43,0,0,0-.4.4,1.057,1.057,0,0,0,.6.7C256.845,309.278,256.845,308.978,256.845,308.778Z" transform="matrix(0.53, 0.848, -0.848, 0.53, 284.035, -298.166)" fill="#43285a"/><path d="M324.4,406.7a1.576,1.576,0,0,1-.7-.7,12.669,12.669,0,0,1-.6-1.8c-.3-1.3-.6-2.6-.8-3.9a1.846,1.846,0,0,0-1.2-1.5,40.917,40.917,0,0,0-4.9-1.8c-.5-.2-1.3-.2-1.3-1,0-.7.7-.8,1.3-.9,1.5-.4,2.9-.9,4.4-1.3a1.512,1.512,0,0,0,1.1-1.2,25.474,25.474,0,0,1,2.7-5.8,1.009,1.009,0,0,1,1.1-.7.963.963,0,0,1,.7,1l.3,3.6c.3,2.8.3,2.8,2.9,3.7,1.2.4,2.4.9,3.6,1.3a3,3,0,0,1,.8.4,1.121,1.121,0,0,1,0,1.9,3.506,3.506,0,0,1-1.4.6c-1.3.3-2.6.7-4,.9a1.828,1.828,0,0,0-1.5,1.3c-.6,1.5-.8,3-1.4,4.5-.1.3-.3.7-.4,1C325.1,406.6,324.8,406.7,324.4,406.7Z" transform="translate(-207.575 -161.491)" fill="#43285a"/><path d="M324.4,406.7a1.576,1.576,0,0,1-.7-.7,12.669,12.669,0,0,1-.6-1.8c-.3-1.3-.6-2.6-.8-3.9a1.846,1.846,0,0,0-1.2-1.5,40.917,40.917,0,0,0-4.9-1.8c-.5-.2-1.3-.2-1.3-1,0-.7.7-.8,1.3-.9,1.5-.4,2.9-.9,4.4-1.3a1.512,1.512,0,0,0,1.1-1.2,25.474,25.474,0,0,1,2.7-5.8,1.009,1.009,0,0,1,1.1-.7.963.963,0,0,1,.7,1l.3,3.6c.3,2.8.3,2.8,2.9,3.7,1.2.4,2.4.9,3.6,1.3a3,3,0,0,1,.8.4,1.121,1.121,0,0,1,0,1.9,3.506,3.506,0,0,1-1.4.6c-1.3.3-2.6.7-4,.9a1.828,1.828,0,0,0-1.5,1.3c-.6,1.5-.8,3-1.4,4.5-.1.3-.3.7-.4,1C325.1,406.6,324.8,406.7,324.4,406.7Z" transform="matrix(0.485, -0.875, 0.875, 0.485, -258.203, 147.217)" fill="#43285a"/><path d="M392.1,261.6a.666.666,0,0,1-.7-.5,4.96,4.96,0,0,0-2-2.3c-.6-.4-.7-1,0-1.3a4.1,4.1,0,0,0,1.9-2,.666.666,0,0,1,.7-.5c.4,0,.5.4.6.7a3.522,3.522,0,0,0,1.7,2.1c.7.4.7.9,0,1.3a2.817,2.817,0,0,0-1.5,2C392.6,261.3,392.4,261.6,392.1,261.6Z" transform="translate(-49.432 -86.087)" fill="#43285a"/><path d="M251.025,54.731c-.243-.97-.546-1.88-.788-2.85-.061-.121-.061-.3-.121-.424-.121-.243-.243-.424-.485-.364a.454.454,0,0,0-.424.364c-.121.243-.182.485-.3.788a48.183,48.183,0,0,0-1.455,5.639c-.3,1.637-.364,1.637-2,1.213-1.819-.485-3.638-1.031-5.518-1.516a6.344,6.344,0,0,0-1.031-.243c-.3-.061-.606-.121-.788.243-.182.3,0,.546.182.728.121.182.3.364.424.546,1.213,1.395,2.426,2.85,3.82,4.184a2.1,2.1,0,0,1,.606,2.183,52.274,52.274,0,0,0-1.516,6.791,1.493,1.493,0,0,0-.061.728.471.471,0,0,0,.728.364,2.5,2.5,0,0,0,.788-.606c.606-.667,1.213-1.273,1.758-1.94.788-.97,1.7-1.88,2.547-2.789.364-.424.424-.364.667.061l2.911,4.912c.3.485.606.97.97,1.455.182.243.364.485.728.424.364-.121.364-.424.364-.728,0-.97-.121-1.88-.182-2.85-.121-1.395-.3-2.729-.485-4.123-.121-.849-.061-1.031.788-1.273a29.8,29.8,0,0,1,4-1.031,4.411,4.411,0,0,0,1.273-.364c.728-.3.788-.728.121-1.152a21.234,21.234,0,0,0-2.971-1.759c-.788-.364-1.637-.788-2.426-1.152a.791.791,0,0,1-.546-.606A50.153,50.153,0,0,1,251.025,54.731Zm4.366,9.581a18.667,18.667,0,0,0-2.971.788,1.144,1.144,0,0,0-.91,1.395,6.682,6.682,0,0,0,.121,1.091c.182,1.7.364,3.456.546,5.154,0,.121.121.364-.061.364-.182.061-.243-.182-.3-.3-.243-.424-.485-.788-.728-1.213-.91-1.516-1.758-3.032-2.668-4.487-.424-.667-.849-.728-1.395-.182-.91.97-1.88,1.94-2.729,2.971-.485.606-1.031,1.213-1.577,1.819-.061.061-.182.243-.3.182-.182-.061-.061-.243-.061-.424.121-.606.182-1.213.3-1.819.364-1.516.728-3.093,1.091-4.609a2.507,2.507,0,0,0-.728-2.607c-1.152-1.152-2.183-2.365-3.274-3.517-.182-.182-.364-.424-.546-.606a.223.223,0,0,1-.061-.182h.182a3.922,3.922,0,0,1,.788.243c1.637.485,3.335.91,4.972,1.395a9.415,9.415,0,0,0,1.273.243,1.117,1.117,0,0,0,1.334-.849,13.9,13.9,0,0,0,.424-1.7c.3-1.455.667-2.85,1.091-4.305.061-.121.061-.3.121-.424a.212.212,0,0,1,.061-.121c.121-.061.121.061.182.121l.182.546c.546,1.7,1.031,3.4,1.577,5.094a6.327,6.327,0,0,1,.485,1.516.783.783,0,0,0,.546.728c.849.424,1.7.849,2.607,1.213a20.024,20.024,0,0,1,2.486,1.395c.121.061.243.121.182.243,0,.061-.182.121-.243.121A11.976,11.976,0,0,1,255.391,64.312Z" transform="translate(58.213 474.711)" fill="#43285a"/></g></g></svg>