<svg xmlns="http://www.w3.org/2000/svg" width="32.852" height="23.05" viewBox="0 0 32.852 23.05"><g transform="translate(0.004 -30.999)"><path d="M6.018,35.52c-.041.108-.755,2.079-.79,2.192-1.5,4.122-3.408,4.853-4.486,5.4a1.375,1.375,0,0,0,.154,2.512l12.489,4.56c.431-.988,1-2.347-.169-5.569l-.8-2.2A8.521,8.521,0,0,1,16.2,32.14a6.715,6.715,0,0,0-1.406-.727A6.85,6.85,0,0,0,6.018,35.52ZM27.908,50.5,21.971,52.66A3.273,3.273,0,0,0,27.908,50.5Z" transform="translate(0)" fill="#616e7c" opacity="0.2"/><path d="M98.146,82.563a3.271,3.271,0,0,0,3.79-1.191L96.01,79.211A3.274,3.274,0,0,0,98.146,82.563Zm25.034-7.45c-1.078-.551-2.994-1.283-4.488-5.4-.041-.113-.755-2.085-.79-2.193a6.852,6.852,0,1,0-12.874,4.7c.041.108.76,2.08.8,2.193,1.5,4.123.5,5.914.026,7.032a1.372,1.372,0,0,0,1.731,1.822l15.435-5.63A1.379,1.379,0,0,0,123.18,75.113Z" transform="translate(-91.074 -30.358)" fill="#616e7c"/></g></svg>