<svg xmlns="http://www.w3.org/2000/svg" width="24" height="25.401" viewBox="0 0 24 25.401"><g transform="translate(-3458.164 -3436)"><path d="M4295.571,3322.333h-.037a.867.867,0,0,1-.832-.9c.261-6.314,4.99-8.252,5.192-8.332a.868.868,0,0,1,.641,1.614c-.166.067-3.884,1.642-4.1,6.789A.869.869,0,0,1,4295.571,3322.333Z" transform="translate(-836.538 123.969)" fill="#fcb100"/><path d="M4300.253,3322.336a.869.869,0,0,1-.867-.832c-.212-5.152-3.939-6.725-4.1-6.79a.868.868,0,0,1,.642-1.614c.2.08,4.93,2.017,5.191,8.331a.867.867,0,0,1-.832.9Z" transform="translate(-818.958 123.968)" fill="#fcb100"/><g transform="translate(3459.049 3436)"><path d="M166.35,448a3.175,3.175,0,1,1-6.35,0Z" transform="translate(-152.062 -425.774)" fill="#fcb100"/><path d="M21.8,17.974c-.955-1.029-2.753-2.58-2.753-7.655A7.822,7.822,0,0,0,12.7,2.624V1.588a1.588,1.588,0,1,0-3.175,0V2.623a7.827,7.827,0,0,0-6.344,7.7c0,5.075-1.8,6.623-2.753,7.655A1.569,1.569,0,0,0,0,19.051a1.591,1.591,0,0,0,1.594,1.588H20.635A1.581,1.581,0,0,0,21.8,17.974Z" fill="#533b6b"/></g></g></svg>