<svg xmlns="http://www.w3.org/2000/svg" width="21" height="24" viewBox="0 0 21 24"><path d="M0,9V21.75A2.25,2.25,0,0,0,2.25,24h16.5A2.25,2.25,0,0,0,21,21.75V9ZM6,20.438A.563.563,0,0,1,5.438,21H3.563A.562.562,0,0,1,3,20.438V18.563A.563.563,0,0,1,3.563,18H5.438A.563.563,0,0,1,6,18.563Zm0-6A.563.563,0,0,1,5.438,15H3.563A.563.563,0,0,1,3,14.438V12.563A.563.563,0,0,1,3.563,12H5.438A.563.563,0,0,1,6,12.563Zm6,6a.563.563,0,0,1-.562.563H9.563A.562.562,0,0,1,9,20.438V18.563A.563.563,0,0,1,9.563,18h1.875a.563.563,0,0,1,.563.563Zm0-6a.563.563,0,0,1-.562.563H9.563A.563.563,0,0,1,9,14.438V12.563A.563.563,0,0,1,9.563,12h1.875a.563.563,0,0,1,.563.563Zm6,6a.563.563,0,0,1-.562.563H15.563A.562.562,0,0,1,15,20.438V18.563A.563.563,0,0,1,15.563,18h1.875a.563.563,0,0,1,.563.563Zm0-6a.563.563,0,0,1-.562.563H15.563A.563.563,0,0,1,15,14.438V12.563A.563.563,0,0,1,15.563,12h1.875a.563.563,0,0,1,.563.563ZM14.25,6h1.5a.75.75,0,0,0,.75-.75V.75A.75.75,0,0,0,15.75,0h-1.5a.75.75,0,0,0-.75.75v4.5A.75.75,0,0,0,14.25,6Zm-9,0h1.5a.75.75,0,0,0,.75-.75V.75A.75.75,0,0,0,6.75,0H5.25A.75.75,0,0,0,4.5.75v4.5A.75.75,0,0,0,5.25,6Z" fill="#7b8794"/><path d="M21,66.25V70H0V66.25A2.25,2.25,0,0,1,2.25,64H4.5v2.25a.75.75,0,0,0,.75.75h1.5a.75.75,0,0,0,.75-.75V64h6v2.25a.75.75,0,0,0,.75.75h1.5a.75.75,0,0,0,.75-.75V64h2.25A2.25,2.25,0,0,1,21,66.25Z" transform="translate(0 -61)" fill="#616e7c" opacity="0.3"/></svg>