<svg xmlns="http://www.w3.org/2000/svg" width="40" height="40" viewBox="0 0 40 40"><g transform="translate(-29 -29)"><rect width="40" height="40" transform="translate(29 29)" fill="#fff" opacity="0"/><g transform="translate(29 31.182)"><g transform="translate(0 0)"><path d="M189.029,60.895a1.426,1.426,0,0,0-1.438,1.381.84.84,0,0,1-.742.832.819.819,0,0,1-.908-.8,3.061,3.061,0,0,1,3.088-3.026h1.7a.809.809,0,1,1,0,1.617Zm0,0" transform="translate(-153.778 -51.365)" fill="#cc812a"/><path d="M188.833,60.792a1.335,1.335,0,0,0-1.346,1.294.786.786,0,0,1-.695.779.767.767,0,0,1-.851-.753,2.866,2.866,0,0,1,2.892-2.834h1.588a.757.757,0,1,1,0,1.514Zm0,0" transform="translate(-181.429 -30.826)" fill="#cc812a"/><path d="M2.909,2.087A1.336,1.336,0,0,1,1.556.787.787.787,0,0,0,.859,0,.778.778,0,0,0,0,.765,2.869,2.869,0,0,0,2.9,3.613l1.6,0a.776.776,0,0,0,.78-.765.766.766,0,0,0-.776-.761Zm0,0" transform="translate(17.438 0.478) rotate(8)" fill="#cc812a"/><path d="M116.52,12.228h-5.23a3.454,3.454,0,1,1,0-6.908h.774a1.708,1.708,0,0,0,1.723-1.688,1.708,1.708,0,0,0-1.723-1.688h-1.232a.739.739,0,0,1-.747-.732.74.74,0,0,1,.747-.732h1.232a3.188,3.188,0,0,1,3.216,3.152,3.188,3.188,0,0,1-3.216,3.152h-.774a1.991,1.991,0,1,0,0,3.981h5.23a.732.732,0,1,1,0,1.463Zm0,0" transform="translate(-107.766 -0.48)" fill="#cc812a"/><path d="M272.854,5.975c-2.5-3.015-5.431-4.219-8.71-3.577a10.922,10.922,0,0,0-4.259,1.882.9.9,0,0,1-1.245-.125.856.856,0,0,1,.127-1.22A12.684,12.684,0,0,1,263.8.7c2.732-.535,6.759-.243,10.431,4.184,2.508,3.024,5.9,4.692,8.437,4.148,1.918-.411,3.308-2.059,4.02-4.767a.887.887,0,0,1,1.078-.623A.866.866,0,0,1,288.4,4.7C286.178,13.14,278.091,12.29,272.854,5.975Zm0,0" transform="translate(-248.428 22.445)" fill="#cc812a"/><g transform="translate(3.686 2.927)" fill="#ffc94e" stroke="#cc812a" stroke-width="1.5"><ellipse cx="16.354" cy="16.354" rx="16.354" ry="16.354" stroke="none"/><ellipse cx="16.354" cy="16.354" rx="17.104" ry="17.104" fill="none"/></g><g transform="translate(7.539 2.956)"><path d="M111.372,93.461a32.17,32.17,0,0,0-14.434,14.05.6.6,0,0,1-1.076-.545A33.084,33.084,0,0,1,109.282,93.2h0A16.362,16.362,0,0,1,111.372,93.461Z" transform="translate(-95.797 -93.201)" fill="#faa31d"/></g><g transform="translate(5.559 3.578)"><path d="M80.325,101.164a30.752,30.752,0,0,0-8.76,10.507.6.6,0,0,1-1.076-.546,31.557,31.557,0,0,1,6.184-8.392A16.239,16.239,0,0,1,80.325,101.164Z" transform="translate(-70.424 -101.164)" fill="#faa31d"/></g><g transform="translate(10.802 4.653)"><path d="M155.526,115.707c-.306.115-.7.271-1.158.473a30.96,30.96,0,0,0-4.547,2.481,32.347,32.347,0,0,0-11.064,12.37.6.6,0,0,1-.539.33.6.6,0,0,1-.537-.875A33.547,33.547,0,0,1,149.2,117.627a31.766,31.766,0,0,1,4.975-2.68h0Q154.87,115.3,155.526,115.707Z" transform="translate(-137.616 -114.947)" fill="#faa31d"/></g><g transform="translate(14.245 7.568)"><path d="M199.852,153.264a.584.584,0,0,1-.084.032,25.21,25.21,0,0,0-6.133,3.125,32.5,32.5,0,0,0-10.762,12.287.6.6,0,0,1-1.076-.545A33.711,33.711,0,0,1,193,155.392a27.842,27.842,0,0,1,5.937-3.09Q199.414,152.764,199.852,153.264Z" transform="translate(-181.732 -152.302)" fill="#faa31d"/></g><g transform="translate(17.727 11.626)"><path d="M226.965,219.452a.6.6,0,0,1-.537-.876,33.169,33.169,0,0,1,13.54-14.2.6.6,0,0,1,.583,1.055A31.967,31.967,0,0,0,227.5,219.121.6.6,0,0,1,226.965,219.452Z" transform="translate(-226.363 -204.304)" fill="#faa31d"/></g><path d="M73.334,96.7v0a16.285,16.285,0,0,0-10.557-3.866q-.735,0-1.454.064A16.315,16.315,0,0,1,72.1,98.336a1.974,1.974,0,0,1,.416,1.856,31.708,31.708,0,0,1-4.451,9.4,25.627,25.627,0,0,1-2.691,3.237,3.353,3.353,0,0,1-4.087.527,27.126,27.126,0,0,1-11.264-12.8l-.41-1.075a16.351,16.351,0,0,0,.8,20.409h0A16.354,16.354,0,1,0,73.334,96.7Z" transform="translate(-42.737 -89.907)" fill="#f09227"/><path d="M75.842,216.942a16.356,16.356,0,0,1-27.295-17.9c.691,1.808,7.142,17.162,27.295,17.9Z" transform="translate(-42.737 -187.824)" fill="#faa31d"/><path d="M122.973,388.6a16.355,16.355,0,0,1-25.43.868l1.129-.168a24.5,24.5,0,0,0,10.554-4.074A32.708,32.708,0,0,0,122.973,388.6Z" transform="translate(-89.868 -359.484)" fill="#f49c1f"/><g transform="translate(3.927 14.537)"><path d="M63.752,256.735a.6.6,0,0,1-.809.269,30.442,30.442,0,0,1-11.132-9.61,28.9,28.9,0,0,1-2.3-3.843,16.23,16.23,0,0,1,.458-1.932c.1.252.3.726.607,1.359a27.678,27.678,0,0,0,2.246,3.757,29.22,29.22,0,0,0,10.662,9.191A.6.6,0,0,1,63.752,256.735Z" transform="translate(-49.511 -241.619)" fill="#f48c17"/></g><g transform="translate(3.686 19.183)"><path d="M55.715,313.725a.6.6,0,0,1-.846.1,32.851,32.851,0,0,1-7.647-8.547q-.26-.423-.486-.816a16.4,16.4,0,0,1-.316-3.214c0-.033,0-.066,0-.1a30.882,30.882,0,0,0,9.191,11.725A.6.6,0,0,1,55.715,313.725Z" transform="translate(-46.419 -301.153)" fill="#f48c17"/></g><path d="M142.362,170a16.353,16.353,0,0,1-27.356,12.1c17.357-2.586,21.9-18.283,22.912-23.306A16.3,16.3,0,0,1,142.362,170Z" transform="translate(-105.968 -150.722)" fill="#ffb72f"/><path d="M255.18,170a16.354,16.354,0,0,1-16.354,16.354q-.735,0-1.454-.064A16.359,16.359,0,0,0,250.01,161.7c.342-1.155.574-2.148.726-2.9A16.3,16.3,0,0,1,255.18,170Z" transform="translate(-218.786 -150.721)" fill="#faa31d"/><g transform="translate(12.067 11.988)"><path d="M177.213,210.755a31.686,31.686,0,0,1-3.736,8.051,28.911,28.911,0,0,1-7.34,7.769,30.118,30.118,0,0,1-10.559,4.789,16.179,16.179,0,0,1-1.751-.847,27.744,27.744,0,0,0,18.611-12.325,29.911,29.911,0,0,0,4-9.25A16.371,16.371,0,0,1,177.213,210.755Z" transform="translate(-153.827 -208.942)" fill="#f48c17"/></g><g transform="translate(16.952 18.204)"><path d="M235.872,289.682a16.532,16.532,0,0,1-.13,2.075,34.415,34.415,0,0,1-3.269,5.232,27.75,27.75,0,0,1-6.552,6.286,22.993,22.993,0,0,1-5.522,2.736h0q-.436.023-.879.023a16.343,16.343,0,0,1-3.088-.292c5.914-.918,10.978-4.1,15.058-9.453a32.93,32.93,0,0,0,4.348-7.686Q235.872,289.138,235.872,289.682Z" transform="translate(-216.431 -288.604)" fill="#f48c17"/></g></g></g></g></svg>