<svg xmlns="http://www.w3.org/2000/svg" width="40" height="40" viewBox="0 0 40 40"><g transform="translate(-30 -30)"><rect width="40" height="40" transform="translate(30 30)" fill="#fff" opacity="0"/><g transform="translate(30 32.677)"><path d="M41.3,14.87h0a.37.37,0,0,1,.37-.37H43.65a.621.621,0,0,1,.614.621h0a.614.614,0,0,1-.614.614h-.984a.377.377,0,0,0-.377.37h0a.37.37,0,0,1-.37.37H39.944a.614.614,0,0,1-.614-.614h0a.621.621,0,0,1,.614-.621h.991A.37.37,0,0,0,41.3,14.87Z" transform="translate(-13.951 -12.681)" fill="#d9ebf4"/><path d="M46.229,18.665h0a.215.215,0,0,0-.215-.215H44.875a.362.362,0,0,0-.355.362h0a.362.362,0,0,0,.355.355h.577a.215.215,0,0,1,.215.215h0a.215.215,0,0,0,.215.215H47.02a.355.355,0,0,0,.355-.355h0a.355.355,0,0,0-.355-.385h-.577A.215.215,0,0,1,46.229,18.665Z" transform="translate(-15.303 -13.709)" fill="#d9ebf4"/><path d="M43.866,26.468a.518.518,0,1,1-.51-.518A.518.518,0,0,1,43.866,26.468Z" transform="translate(-14.863 -15.662)" fill="#d9ebf4"/><path d="M42.981,20.316a.5.5,0,1,1-.5-.5.5.5,0,0,1,.5.5Z" transform="translate(-14.644 -14.066)" fill="#d9ebf4"/><circle cx="0.799" cy="0.799" r="0.799" transform="translate(24.58 6.472)" fill="#d9ebf4"/><path d="M38.818,13.409a.259.259,0,1,1-.259-.259.259.259,0,0,1,.259.259Z" transform="translate(-13.683 -12.33)" fill="#d9ebf4"/><circle cx="0.318" cy="0.318" r="0.318" transform="translate(32.701 6.952)" fill="#d9ebf4"/><path d="M46.982,27.218a.836.836,0,1,1-.828-.828.836.836,0,0,1,.828.828Z" transform="translate(-15.508 -15.776)" fill="#d9ebf4"/><path d="M50.988,18.722a.288.288,0,1,1-.127-.288A.288.288,0,0,1,50.988,18.722Z" transform="translate(-16.837 -13.693)" fill="#d9ebf4"/><path d="M9.15,27.288a1.058,1.058,0,1,0,1.058-1.058A1.058,1.058,0,0,0,9.15,27.288Z" transform="translate(-6.095 -15.734)" fill="#d9ebf4"/><path d="M20.152,35.737h-6.6a7.4,7.4,0,0,1,0-14.727,1.324,1.324,0,1,1,0,2.648,4.719,4.719,0,0,0,0,9.431h6.6a1.324,1.324,0,1,1,0,2.648Z" transform="translate(-5.499 -14.376)" fill="#f2d68b"/><path d="M14.45,34.619a4.719,4.719,0,0,1-4.157-2.5,4.712,4.712,0,0,1,3.314-8.063,1.324,1.324,0,0,0,1.324-1.324c0-.037,0-.067,0-.1a1.25,1.25,0,0,0-.473-.089,7.4,7.4,0,0,0-7.4,7.4,7.256,7.256,0,0,0,1.073,3.809,7.323,7.323,0,0,0,5.444,2.426h6.6A1.324,1.324,0,0,0,21.5,34.848v-.1a1.25,1.25,0,0,0-.473-.089Z" transform="translate(-5.551 -14.774)" fill="#dd8b31"/><path d="M19.9,36.217h-6.6a8.137,8.137,0,0,1,0-16.207,2.064,2.064,0,1,1,0,4.127,3.98,3.98,0,0,0,0,7.952h6.6a2.064,2.064,0,1,1,0,4.127Zm-6.6-14.735a6.657,6.657,0,0,0,0,13.248h6.6a.584.584,0,1,0,0-1.169h-6.6a5.459,5.459,0,0,1,0-10.91.584.584,0,1,0,0-1.169Z" transform="translate(-5.25 -14.115)" fill="#aa681f"/><path d="M37.366,18.4a5.385,5.385,0,0,0,4.712,2.648,5.392,5.392,0,0,0-4.068-8A.962.962,0,0,0,37,13.639a5.392,5.392,0,0,0,.362,4.756Z" transform="translate(-13.245 -12.301)" fill="#f7b45c"/><path d="M38.618,20.123a5.392,5.392,0,0,0,4.69,2.648A5.385,5.385,0,0,0,39.269,14.8a.962.962,0,0,0-1.006.592A5.37,5.37,0,0,0,38.618,20.123Z" transform="translate(-13.573 -12.757)" fill="#dd8b31"/><path d="M41.757,21.523a6.184,6.184,0,0,1-5.3-3.011h0a6.139,6.139,0,0,1-.407-5.407,1.694,1.694,0,0,1,1.79-1.05,6.073,6.073,0,0,1,4.527,2.959,6.154,6.154,0,0,1,.067,6.125.74.74,0,0,1-.644.377Zm-4.017-3.765a4.675,4.675,0,0,0,3.6,2.271,4.653,4.653,0,0,0-3.7-6.509.222.222,0,0,0-.229.133,4.638,4.638,0,0,0,.311,4.105Z" transform="translate(-12.983 -12.041)" fill="#aa681f"/><path d="M55.1,18.4a5.385,5.385,0,0,1-4.69,2.648,5.385,5.385,0,0,1,4.039-8,.962.962,0,0,1,1.006.592A5.37,5.37,0,0,1,55.1,18.4Z" transform="translate(-16.655 -12.301)" fill="#f7b45c"/><path d="M53.888,20.123a5.392,5.392,0,0,1-4.69,2.648A5.385,5.385,0,0,1,53.237,14.8a.962.962,0,0,1,1.006.592A5.415,5.415,0,0,1,53.888,20.123Z" transform="translate(-16.342 -12.757)" fill="#dd8b31"/><path d="M50.23,21.526h0a.74.74,0,0,1-.636-.377,6.176,6.176,0,0,1,.059-6.125,6.1,6.1,0,0,1,4.534-2.959,1.679,1.679,0,0,1,1.783,1.05,6.088,6.088,0,0,1-.407,5.407,6.162,6.162,0,0,1-5.333,3Zm4.127-8.033h0A4.653,4.653,0,0,0,50.659,20a4.675,4.675,0,0,0,3.61-2.271h0a4.638,4.638,0,0,0,.311-4.105.229.229,0,0,0-.222-.133Z" transform="translate(-16.419 -12.043)" fill="#aa681f"/><path d="M18.477,38.923v2.692a1.568,1.568,0,0,1-1.3,1.546l-2.079.348a2.589,2.589,0,0,0-2.108,2.959l1.243,4.009a1.265,1.265,0,0,0,1.25,1.065h2.737a.969.969,0,0,0,.969-.962h0a1.28,1.28,0,0,0-1.28-1.28h0a.466.466,0,0,1-.459-.422l-.436-1.169a.6.6,0,0,1,.584-.651h1.339a8.876,8.876,0,0,0,8.381-8.817V33.59l-5.089.88A4.52,4.52,0,0,0,18.477,38.923Z" transform="translate(-7.086 -17.65)" fill="#aa681f"/><path d="M47.016,40.219,46.8,31.75,27.924,33.7l-.414,7.989,12.442,1.871a5.178,5.178,0,0,0,.592,0,1.9,1.9,0,0,1,1.834,1.479l2.071,4.778a1.479,1.479,0,0,0,1.479,1.139h1.812A1.154,1.154,0,0,0,48.894,49.8v-.451a.976.976,0,0,0-.74-.947h0a.91.91,0,0,1-.74-.858Z" transform="translate(-10.875 -17.171)" fill="#915b1e"/><path d="M38.485,37.147l-.089-7.4L19.482,33.308l-.9,9.786,12.93.074a3.869,3.869,0,0,0,.584,0,1.908,1.908,0,0,1,1.842,1.479L36,49.426a1.479,1.479,0,0,0,1.442,1.132h1.812A1.154,1.154,0,0,0,40.408,49.4v-.451a.954.954,0,0,0-.74-.939h0a.917.917,0,0,1-.74-.865Z" transform="translate(-8.55 -16.651)" fill="#f7b45c"/><path d="M22.724,44.887l-1.664,2.16,11.1.059a3.87,3.87,0,0,0,.584,0,1.908,1.908,0,0,1,1.842,1.479l.518,2.13h.74l-1.058-3.75a2.877,2.877,0,0,0-2.766-2.086Z" transform="translate(-9.196 -20.589)" fill="#dd8b31"/><path d="M19.809,34.841l18.751-3.5L38.538,29.9,19.624,33.436l-.414,7.989.259.037Z" transform="translate(-8.714 -16.69)" fill="#f2d68b"/><path d="M38.993,51.045H37.181a2.219,2.219,0,0,1-2.145-1.635l-2.042-4.727-.044-.118a1.161,1.161,0,0,0-1.124-.88h-.111a4.054,4.054,0,0,1-.518,0l-12.885-.074a.737.737,0,0,1-.732-.806l.9-9.816a.74.74,0,0,1,.6-.658L38,28.8a.722.722,0,0,1,.865.71l.089,7.4a.74.74,0,0,1-1.479,0l-.067-6.48L19.9,33.685l-.74,8.425,12.124.067H31.4a2.958,2.958,0,0,0,.362,0h.118a2.641,2.641,0,0,1,2.53,1.945l2.012,4.793a.74.74,0,0,1,.037.118.74.74,0,0,0,.74.57h1.812a.414.414,0,0,0,.414-.414v-.451a.215.215,0,0,0-.178-.215,1.642,1.642,0,0,1-1.317-1.568l-.362-7.8a.74.74,0,0,1,1.479,0l.348,7.767a.178.178,0,0,0,.133.17,1.694,1.694,0,0,1,1.361,1.664v.451A1.894,1.894,0,0,1,38.993,51.045Z" transform="translate(-8.289 -16.399)" fill="#aa681f"/><path d="M39.014,21v6.953L30.7,29.529a8.348,8.348,0,0,0,8.137,8.558,8.348,8.348,0,0,0,8.137-8.558A8.366,8.366,0,0,0,39.014,21Z" transform="translate(-11.705 -14.373)" fill="#f7b45c"/><path d="M38.319,32a1.073,1.073,0,0,0,.74-1.6h0L30.7,31.976a8.877,8.877,0,0,0,.126,1.479" transform="translate(-11.705 -16.82)" fill="#f2d68b"/><path d="M49.855,29.693A8.536,8.536,0,0,0,44.44,21.63l-2.5.5V27.9l.281.7.607,2.086c1.147,3.913,6.975,3.181,7.02-.9A.451.451,0,0,0,49.855,29.693Z" transform="translate(-14.631 -14.537)" fill="#dd8b31"/><path d="M44.6,42.212l-.067-3.8,1.479,3.484a.755.755,0,0,1-1.383.607.814.814,0,0,1-.03-.288Z" transform="translate(-15.305 -18.905)" fill="#aa681f"/><path d="M11.522,38.815v2.707a1.576,1.576,0,0,1-1.3,1.553l-2.086.4a2.589,2.589,0,0,0-2.145,2.959l1.243,4.039a1.265,1.265,0,0,0,1.257,1.073h2.752a.969.969,0,0,0,.969-.969h0a1.28,1.28,0,0,0-1.287-1.28h0a.466.466,0,0,1-.459-.422l-.436-1.2a.592.592,0,0,1,.584-.651h1.346a8.876,8.876,0,0,0,8.425-8.876V33.46l-5.111.88a4.549,4.549,0,0,0-3.75,4.475Z" transform="translate(-5.264 -17.617)" fill="#f7b45c"/><path d="M11.522,42.68v1.243a1.576,1.576,0,0,1-1.3,1.553l-2.086.4a2.589,2.589,0,0,0-2.145,2.959l1.243,4.039a1.265,1.265,0,0,0,1.257,1.073h.392L7.513,48.938A1.479,1.479,0,0,1,8.74,47.222l2.663-.459a2.167,2.167,0,0,0,1.8-2.13V43.065a.385.385,0,0,0-.392-.385Z" transform="translate(-5.264 -20.017)" fill="#f2d68b"/><path d="M17.252,34.34a4.549,4.549,0,0,0-3.772,4.475v.547h1.287a.385.385,0,0,0,.392-.385h0A3.3,3.3,0,0,1,17.9,35.723l3.158-.547a1.583,1.583,0,0,0,1.309-1.553V33.46Z" transform="translate(-7.245 -17.421)" fill="#f2d68b"/><path d="M21.35,45.384a8.433,8.433,0,0,0,2.959-5.614,9.187,9.187,0,0,1-1.916,6.657h0a.743.743,0,0,1-1.169-.917A.843.843,0,0,1,21.35,45.384Z" transform="translate(-9.197 -19.259)" fill="#aa681f"/><path d="M11.019,53.887H8.267a2.012,2.012,0,0,1-1.982-1.635l-1.228-4v-.1A3.351,3.351,0,0,1,7.764,44.36L9.85,44a.828.828,0,0,0,.688-.821V40.44a.74.74,0,1,1,1.479,0v2.707A2.308,2.308,0,0,1,10.1,45.425l-2.086.362a1.879,1.879,0,0,0-1.531,2.086l1.228,3.987a.229.229,0,0,1,0,.1.533.533,0,0,0,.533.451H11a.229.229,0,0,0,.229-.229.547.547,0,0,0-.547-.54A1.191,1.191,0,0,1,9.5,50.662l-.392-1.124a.9.9,0,0,1-.044-.192,1.309,1.309,0,0,1,.377-1.013,1.339,1.339,0,0,1,.976-.444h1.339a8.137,8.137,0,0,0,5.452-2.508A.74.74,0,0,1,18.283,46.4,9.616,9.616,0,0,1,11.81,49.36H10.657l.3.8a2.034,2.034,0,0,1,1.812,2.012,1.709,1.709,0,0,1-1.746,1.716Z" transform="translate(-5.02 -19.241)" fill="#aa681f"/><path d="M1.119,0A3.8,3.8,0,0,0,1.57,1.576a.836.836,0,1,1-1.516.1l.037-.1A4.66,4.66,0,0,1,1.119,0Z" transform="matrix(0.951, 0.309, -0.309, 0.951, 6.225, 18.209)" fill="#aa681f"/><path d="M18.3,34.777a.742.742,0,1,1-.126-1.479l5.844-.991a.75.75,0,1,1,.251,1.479l-5.844.991Z" transform="translate(-8.267 -17.313)" fill="#aa681f"/><path d="M17.48,35.107a4.127,4.127,0,0,0-3.61,2.167,4.653,4.653,0,0,1,1.117-2.219,5,5,0,0,1,2.219-1.428h.044a.752.752,0,0,1,.451,1.435.932.932,0,0,1-.222.044Z" transform="translate(-7.324 -17.651)" fill="#aa681f"/><path d="M30.414,30.007a.743.743,0,0,1-.141-1.479l7.715-1.479v-6.31a.735.735,0,0,1,.784-.74A9.045,9.045,0,0,1,47.4,29.29a.74.74,0,1,1-1.479,0,7.634,7.634,0,0,0-6.435-7.752v6.154a.74.74,0,0,1-.6.74l-8.344,1.561Z" transform="translate(-11.419 -14.112)" fill="#aa681f"/><path d="M45.6,40.244a8.063,8.063,0,0,0,3.5-3.4,8.4,8.4,0,0,0,.969-4.593.742.742,0,1,1,1.479-.118v.118a9.475,9.475,0,0,1-1.827,4.993A8.418,8.418,0,0,1,45.6,40.244Z" transform="translate(-15.584 -17.092)" fill="#aa681f"/><path d="M51.9,19.929H49.493A2.53,2.53,0,0,1,47,17.414V15.75h2.707a3.21,3.21,0,0,1,3.21,3.21h0a.976.976,0,0,1-1.013.969Z" transform="translate(-15.948 -13.006)" fill="#d9ebf4"/><path d="M51.278,22.835v-3.21a3.8,3.8,0,0,0-1.886-3.3h0a8.336,8.336,0,0,0-8.351,0h0a3.809,3.809,0,0,0-1.9,3.3v3.21a2.781,2.781,0,0,0,1.376,2.411h0a9.394,9.394,0,0,0,9.379,0h0A2.781,2.781,0,0,0,51.278,22.835Z" transform="translate(-13.902 -12.864)" fill="#f7b45c"/><path d="M41.009,24.085V20.868a3.8,3.8,0,0,1,1.908-3.3,8.351,8.351,0,0,1,7.4-.473,3.7,3.7,0,0,0-.932-.74,8.336,8.336,0,0,0-8.351,0h0a3.809,3.809,0,0,0-1.9,3.3v3.21a2.781,2.781,0,0,0,1.383,2.389,8.876,8.876,0,0,0,1.095.54A2.781,2.781,0,0,1,41.009,24.085Z" transform="translate(-13.899 -12.872)" fill="#f2d68b"/><path d="M49.62,25.726a.74.74,0,0,1-.37-1.383,2.049,2.049,0,0,0,1.021-1.768v-3.21A3.084,3.084,0,0,0,48.732,16.7a7.641,7.641,0,0,0-7.611,0,3.084,3.084,0,0,0-1.531,2.663v3.21a2.049,2.049,0,0,0,1.021,1.768.742.742,0,1,1-.74,1.287,3.536,3.536,0,0,1-1.76-3.055v-3.21a4.579,4.579,0,0,1,2.271-3.943,9.113,9.113,0,0,1,9.091,0,4.571,4.571,0,0,1,2.278,3.943v3.21a3.551,3.551,0,0,1-1.76,3.055.74.74,0,0,1-.37.1Z" transform="translate(-13.634 -12.605)" fill="#aa681f"/><path d="M46.83,29.746a8.958,8.958,0,0,0,4.69-1.894.747.747,0,1,1,.932,1.169.533.533,0,0,1-.178.1h0a9.683,9.683,0,0,1-5.444.621Z" transform="translate(-15.904 -16.114)" fill="#aa681f"/><path d="M41.062,27.853a8.788,8.788,0,0,0,3.95,1.894,9.749,9.749,0,0,1-4.69-.607h0a.751.751,0,0,1,.547-1.4A.947.947,0,0,1,41.062,27.853Z" transform="translate(-14.086 -16.115)" fill="#aa681f"/><path d="M47.726,24.126c0,.274-.348.488-.74.488s-.777-.215-.777-.488.348-.266.777-.266S47.726,23.86,47.726,24.126Z" transform="translate(-15.742 -15.118)" fill="#aa681f"/></g></g></svg>