<svg xmlns="http://www.w3.org/2000/svg" width="40" height="40" viewBox="0 0 40 40"><g transform="translate(-28.502 -29)"><rect width="40" height="40" transform="translate(28.502 29)" fill="#fff" opacity="0"/><g transform="translate(30.405 32.549)"><g transform="translate(-21.333 -42.667)" fill="#3b292a"><path d="M 37.78352737426758 76.31711578369141 C 32.98623657226562 76.31711578369141 28.55924606323242 74.76167297363281 25.31805610656738 71.93731689453125 C 22.30906677246094 69.31529235839844 20.58331680297852 65.84160614013672 20.58331680297852 62.40693283081055 L 20.58331680297852 57.47186279296875 C 20.58331680297852 53.69427490234375 22.16143608093262 49.93450546264648 24.91301727294922 47.15658187866211 C 26.51874732971191 45.53548431396484 28.49255752563477 44.26680374145508 30.77961730957031 43.38578414916992 C 33.31019592285156 42.41095352172852 36.22011566162109 41.91667556762695 39.42854690551758 41.91667556762695 C 42.26838684082031 41.91667556762695 44.93308639526367 42.32028198242188 47.34862518310547 43.11629486083984 C 49.59691619873047 43.85719299316406 51.58782577514648 44.92120361328125 53.26603698730469 46.27876281738281 C 56.44853591918945 48.85318374633789 58.27378845214844 52.33332443237305 58.27378845214844 55.82684326171875 L 58.27378845214844 60.76191329956055 C 58.27378845214844 64.37247467041016 56.33415603637695 68.241455078125 53.08526611328125 71.1114501953125 C 50.39694595336914 73.48625183105469 45.56001663208008 76.31711578369141 37.78352737426758 76.31711578369141 Z M 47.34125137329102 56.64935302734375 C 47.71190643310547 56.69722747802734 48.09238433837891 56.72186279296875 48.47616577148438 56.72186279296875 C 48.85994720458984 56.72186279296875 49.24042510986328 56.69722747802734 49.61108016967773 56.64935302734375 C 49.24042510986328 56.60148239135742 48.85994338989258 56.57684326171875 48.47616577148438 56.57684326171875 C 48.09238815307617 56.57684326171875 47.71190643310547 56.60148239135742 47.34125137329102 56.64935302734375 Z" stroke="none"/><path d="M 39.42855072021484 42.66667175292969 C 26.26837921142578 42.66667175292969 21.33330917358398 51.11216735839844 21.33330917358398 57.47186279296875 L 21.33330917358398 62.40693283081055 C 21.33330917358398 68.76653289794922 27.78980255126953 75.56710815429688 37.78353118896484 75.56710815429688 C 50.94371032714844 75.56710815429688 57.52378082275391 67.12150573730469 57.52378082275391 60.76191329956055 L 57.52378082275391 55.82684326171875 C 57.52378082275391 49.46714019775391 50.94371032714844 42.66667175292969 39.42855072021484 42.66667175292969 M 48.47617340087891 57.47186279296875 C 47.02583312988281 57.47186279296875 45.71656036376953 57.15509414672852 44.70418167114258 56.64935302734375 C 45.71656036376953 56.14362335205078 47.02584075927734 55.82684326171875 48.47617340087891 55.82684326171875 C 49.92650985717773 55.82684326171875 51.23577880859375 56.14362335205078 52.24814987182617 56.64935302734375 C 51.23577880859375 57.15509414672852 49.92650985717773 57.47186279296875 48.47617340087891 57.47186279296875 M 39.42855072021484 41.16667175292969 C 42.34828186035156 41.16667175292969 45.09194946289062 41.58296203613281 47.58335876464844 42.40398406982422 C 49.91810989379883 43.17337036132812 51.98873901367188 44.28085327148438 53.73773193359375 45.69566345214844 C 57.09709167480469 48.41316223144531 59.02378082275391 52.1058349609375 59.02378082275391 55.82684326171875 L 59.02378082275391 60.76191329956055 C 59.02378082275391 62.60251235961914 58.54463958740234 64.55760192871094 57.63816070556641 66.41583251953125 C 56.68574142456055 68.36824035644531 55.32098007202148 70.13719177246094 53.58180236816406 71.67353820800781 C 51.6976318359375 73.33798217773438 49.45944213867188 74.64521789550781 46.92941284179688 75.55892944335938 C 44.15837097167969 76.55968475341797 41.08124923706055 77.06710815429688 37.78353118896484 77.06710815429688 C 35.2074089050293 77.06710815429688 32.75045013427734 76.64535522460938 30.48089218139648 75.81354522705078 C 28.35515975952148 75.03443908691406 26.45235061645508 73.9205322265625 24.8253288269043 72.50275421142578 C 21.65283203125 69.73826599121094 19.83330917358398 66.0584716796875 19.83330917358398 62.40693283081055 L 19.83330917358398 57.47186279296875 C 19.83330917358398 53.49817657470703 21.49058151245117 49.5460205078125 24.38016891479492 46.6287841796875 C 26.06100082397461 44.93187713623047 28.12337112426758 43.60530090332031 30.5100212097168 42.6859130859375 C 33.12694931030273 41.67782592773438 36.12758255004883 41.16667175292969 39.42855072021484 41.16667175292969 Z" stroke="none" fill="#3b292a"/></g><path d="M44.7,56.649a9.06,9.06,0,0,1,7.544,0,8.536,8.536,0,0,1-3.772.823h9.048V55.827c0-6.36-6.58-13.16-18.1-13.16-13.16,0-18.1,8.445-18.1,14.805H48.476A8.536,8.536,0,0,1,44.7,56.649Z" transform="translate(-21.333 -42.667)" fill="#7d1a00"/><path d="M39.429,42.667c-13.16,0-18.1,8.445-18.1,14.805s6.456,13.16,16.45,13.16c13.16,0,19.74-8.446,19.74-14.805S50.944,42.667,39.429,42.667Zm9.048,14.805c-3.18,0-5.758-1.473-5.758-3.29s2.578-3.29,5.758-3.29,5.758,1.473,5.758,3.29-2.578,3.29-5.758,3.29Z" transform="translate(-21.333 -42.667)" fill="#cd3e36"/><path d="M32.823,154.268H32v-1.645h.823a10.927,10.927,0,0,0,1.942-1c1.746-1.022,3.912-2.289,6.283-2.289a21.943,21.943,0,0,1,5.333.872,19.315,19.315,0,0,0,4.537.773h.823v1.645h-.823A20.422,20.422,0,0,1,46,151.8a20.808,20.808,0,0,0-4.95-.827c-1.925,0-3.876,1.142-5.444,2.06A6.842,6.842,0,0,1,32.823,154.268Z" transform="translate(-31.177 -141.108)" fill="#c82e25"/><path d="M44.312,77.16H42.667c0-10.41,10.76-13.16,16.45-13.16v1.645C54,65.645,44.312,68.052,44.312,77.16Z" transform="translate(-41.022 -62.355)" fill="#d96c66"/><path d="M37.784,228.139c-9.84,0-16.45-6.8-16.45-13.16h1.645c0,5.561,5.949,11.515,14.805,11.515,12.344,0,18.1-7.853,18.1-13.16h1.645C57.524,219.3,51.251,228.139,37.784,228.139Z" transform="translate(-21.333 -200.173)" fill="#7d1a00"/><path d="M51.161,271.331c-6.215-.888-8.005-6.913-8.077-7.169l1.581-.454c.063.214,1.586,5.26,6.728,5.994Z" transform="translate(-41.406 -246.664)" fill="#ecb8b5"/><path d="M86.978,77.041l-1.645,0A13.932,13.932,0,0,1,94.076,64.76l.61,1.528A12.057,12.057,0,0,0,86.978,77.041Z" transform="translate(-80.398 -63.057)" fill="#ecb8b5"/><path d="M141.2,255.19c-12.132,0-13.149-10.518-13.157-10.624l1.639-.138c.034.372.925,9.118,11.518,9.118Z" transform="translate(-119.813 -228.869)" fill="#ecb8b5"/><path d="M131.484,251.654a12.313,12.313,0,0,1-3.443-7.1l1.639-.139a10.839,10.839,0,0,0,2.964,6.069Z" transform="translate(-119.813 -228.86)" fill="#d96c66"/><path d="M265.947,208.81c-8.848,0-9.854-7.227-9.864-7.3l1.632-.207c.032.239.866,5.863,8.232,5.863Z" transform="translate(-237.982 -189.07)" fill="#ecb8b5"/><path d="M259.56,207.016a8.578,8.578,0,0,1-3.476-5.507l1.632-.207a7.023,7.023,0,0,0,2.792,4.371Z" transform="translate(-237.982 -189.07)" fill="#d96c66"/><path d="M203.707,231.1c-9.611,0-11.481-8.8-11.5-8.886l1.613-.325a9.744,9.744,0,0,0,9.886,7.566Z" transform="translate(-179.032 -208.066)" fill="#ecb8b5"/><path d="M195.447,227.953a12.14,12.14,0,0,1-3.239-5.743l1.613-.325a10.641,10.641,0,0,0,2.776,4.892Z" transform="translate(-179.032 -208.066)" fill="#d96c66"/><path d="M172.347,74.761l-1.639-.137C170.716,74.518,171.733,64,183.865,64v1.645C173.229,65.645,172.379,74.389,172.347,74.761Z" transform="translate(-159.19 -62.355)" fill="#ecb8b5"/><path d="M236.574,114.271l-1.6-.4c.019-.072,1.884-7.2,9.024-7.2,5.128,0,6.969,1.693,7.162,1.886L250,109.716s-1.557-1.4-6-1.4C238.162,108.312,236.637,114.027,236.574,114.271Z" transform="translate(-218.505 -101.732)" fill="#ecb8b5"/><path d="M41.048,218.268a13.732,13.732,0,0,1-4.633-.908,10.6,10.6,0,0,0-3.592-.737H32v-1.645h.823a12.227,12.227,0,0,1,4.111.822,12.058,12.058,0,0,0,4.114.823,11.758,11.758,0,0,0,4.935-1.645,11.577,11.577,0,0,1,4.935-1.645h.823v1.645h-.823a10.539,10.539,0,0,0-4.2,1.471A12.935,12.935,0,0,1,41.048,218.268Z" transform="translate(-31.177 -200.173)" fill="#d96c66"/><path d="M42.667,173.957c1.645,0,4.935-3.29,8.225-3.29s6.58,1.645,9.87,1.645v1.645c-3.29,0-6.58,3.29-9.87,3.29s-4.935-1.645-8.225-1.645Z" transform="translate(-41.022 -160.797)" fill="#ecb8b5"/><path d="M59.967,197.695a12.227,12.227,0,0,1-4.111-.822,13.389,13.389,0,0,0-3.356-.794l.129-1.64a14.889,14.889,0,0,1,3.746.873,10.6,10.6,0,0,0,3.592.737,10.539,10.539,0,0,0,4.2-1.472,15.451,15.451,0,0,1,4.739-1.755l.218,1.631a14.261,14.261,0,0,0-4.222,1.6A11.577,11.577,0,0,1,59.967,197.695Z" transform="translate(-50.097 -181.244)" fill="#e59b96"/><path d="M292.139,132.935h-1.645c0-1.814-2.583-3.29-5.758-3.29s-5.758,1.476-5.758,3.29h-1.645c0-2.814,3.182-4.935,7.4-4.935S292.139,130.121,292.139,132.935Z" transform="translate(-257.593 -121.42)" fill="#c11107"/></g></g></svg>