<svg xmlns="http://www.w3.org/2000/svg" width="21" height="24" viewBox="0 0 21 24"><path d="M20.438,22.5H19.5V5.625A1.125,1.125,0,0,0,18.375,4.5H15V1.125A1.125,1.125,0,0,0,13.875,0H7.125A1.125,1.125,0,0,0,6,1.125V4.5H2.625A1.125,1.125,0,0,0,1.5,5.625V22.5H.563A.563.563,0,0,0,0,23.063V24H9V19.5a.563.563,0,0,1,.563-.562h1.875A.563.563,0,0,1,12,19.5V24h9v-.937a.562.562,0,0,0-.562-.562ZM9,15.938a.563.563,0,0,1-.562.563H6.563A.563.563,0,0,1,6,15.938V14.063a.563.563,0,0,1,.563-.562H8.438A.563.563,0,0,1,9,14.063Zm0-4.5A.563.563,0,0,1,8.438,12H6.563A.563.563,0,0,1,6,11.438V9.563A.563.563,0,0,1,6.563,9H8.438A.563.563,0,0,1,9,9.563ZM11.5,5.5V7.125a.375.375,0,0,1-.375.375H9.875A.375.375,0,0,1,9.5,7.125V5.5H7.875A.375.375,0,0,1,7.5,5.125V3.875A.375.375,0,0,1,7.875,3.5H9.5V1.875A.375.375,0,0,1,9.875,1.5h1.25a.375.375,0,0,1,.375.375V3.5h1.625a.375.375,0,0,1,.375.375v1.25a.375.375,0,0,1-.375.375ZM15,15.938a.563.563,0,0,1-.562.563H12.563A.563.563,0,0,1,12,15.938V14.063a.563.563,0,0,1,.563-.562h1.875a.563.563,0,0,1,.563.563Zm0-4.5a.563.563,0,0,1-.562.563H12.563A.563.563,0,0,1,12,11.438V9.563A.563.563,0,0,1,12.563,9h1.875A.563.563,0,0,1,15,9.563Z" fill="#52606d" opacity="0.4"/><path d="M130.438,44h-1.875a.563.563,0,0,0-.562.563v1.875a.563.563,0,0,0,.563.563h1.875a.563.563,0,0,0,.563-.562V44.563A.563.563,0,0,0,130.438,44Zm0-4.5h-1.875a.563.563,0,0,0-.562.563v1.875a.563.563,0,0,0,.563.563h1.875a.563.563,0,0,0,.563-.562V40.063A.563.563,0,0,0,130.438,39.5Zm5.063-3.875v-1.25a.375.375,0,0,0-.375-.375H133.5V32.375a.375.375,0,0,0-.375-.375h-1.25a.375.375,0,0,0-.375.375V34h-1.625a.375.375,0,0,0-.375.375v1.25a.375.375,0,0,0,.375.375H131.5v1.625a.375.375,0,0,0,.375.375h1.25a.375.375,0,0,0,.375-.375V36h1.625A.375.375,0,0,0,135.5,35.625ZM136.438,44h-1.875a.563.563,0,0,0-.562.563v1.875a.563.563,0,0,0,.563.563h1.875a.563.563,0,0,0,.563-.562V44.563A.563.563,0,0,0,136.438,44Zm0-4.5h-1.875a.563.563,0,0,0-.562.563v1.875a.563.563,0,0,0,.563.563h1.875a.563.563,0,0,0,.563-.562V40.063A.563.563,0,0,0,136.438,39.5Z" transform="translate(-122 -30.5)" fill="#52606d"/></svg>