<svg xmlns="http://www.w3.org/2000/svg" width="30.857" height="24" viewBox="0 0 30.857 24"><g transform="translate(0 -32)"><path d="M3.429,32A3.428,3.428,0,0,0,0,35.429V38a.858.858,0,0,0,.857.857h6V35.429A3.428,3.428,0,0,0,3.429,32ZM30,49.143H15.429v2.571A4.286,4.286,0,0,1,11.143,56H24.857a6,6,0,0,0,6-6A.853.853,0,0,0,30,49.143Z" fill="#7b8794" opacity="0.2"/><path d="M86.286,37.143v12H76v2.571a4.286,4.286,0,0,1-8.571,0V35.429A3.428,3.428,0,0,0,64,32H81.143A5.144,5.144,0,0,1,86.286,37.143Z" transform="translate(-60.571)" fill="#7b8794"/></g></svg>