<svg xmlns="http://www.w3.org/2000/svg" width="27" height="24" viewBox="0 0 27 24"><path d="M173.5,0A7.5,7.5,0,1,0,181,7.5,7.5,7.5,0,0,0,173.5,0ZM178,8.25a4.5,4.5,0,1,1-9,0v-6l3,3h3l3-3ZM165.861,2.776,164,2,163.223.139a.25.25,0,0,0-.447,0L162,2l-1.861.776a.25.25,0,0,0,0,.447L162,4l.776,1.861a.25.25,0,0,0,.447,0L164,4l1.862-.776a.25.25,0,0,0,0-.447Z" transform="translate(-154 0)" fill="#616e7c" opacity="0.4"/><path d="M44.182,54.858h0A8.813,8.813,0,0,0,38,58.779V54.75a4.5,4.5,0,0,0-4.5-4.5,1.5,1.5,0,0,0,0,3,1.5,1.5,0,0,1,1.5,1.5v12a3,3,0,0,0,3,3h8.25A.75.75,0,0,0,47,69v-.75a1.5,1.5,0,0,0-1.5-1.5H44l6-4.5V69a.75.75,0,0,0,.75.75h1.5A.75.75,0,0,0,53,69V60.6a7.493,7.493,0,0,1-8.818-5.741ZM53,51H50l-3-3v6a4.5,4.5,0,0,0,9,0V48Zm-3.375,3.75a.75.75,0,1,1,.53-.22.75.75,0,0,1-.53.22Zm3.75,0a.75.75,0,1,1,.53-.22A.75.75,0,0,1,53.375,54.75Z" transform="translate(-32 -45.75)" fill="#616e7c"/></svg>