<svg xmlns="http://www.w3.org/2000/svg" width="24" height="24" viewBox="0 0 24 24"><path d="M12,8A12,12,0,1,0,24,20,12,12,0,0,0,12,8Zm0,4.645A4.258,4.258,0,1,1,7.742,16.9,4.258,4.258,0,0,1,12,12.645ZM12,29.29a9.271,9.271,0,0,1-7.089-3.3A5.4,5.4,0,0,1,9.677,23.1a1.2,1.2,0,0,1,.344.053,6.032,6.032,0,0,0,3.958,0,1.2,1.2,0,0,1,.344-.053,5.4,5.4,0,0,1,4.766,2.894A9.271,9.271,0,0,1,12,29.29Z" transform="translate(0 -8)" fill="#616e7c"/><path d="M108.589,112.516a4.258,4.258,0,1,0-4.258-4.258A4.258,4.258,0,0,0,108.589,112.516Zm2.323,1.935a1.2,1.2,0,0,0-.344.053,6.032,6.032,0,0,1-3.958,0,1.2,1.2,0,0,0-.344-.053,5.4,5.4,0,0,0-4.766,2.894,9.264,9.264,0,0,0,14.177,0A5.4,5.4,0,0,0,110.911,114.452Z" transform="translate(-96.589 -99.355)" fill="#616e7c" opacity="0.4"/></svg>